<svg width="326" height="66" viewBox="0 0 326 66" fill="none" xmlns="http://www.w3.org/2000/svg">
<g filter="url(#filter0_d)">
<path d="M111.353 26.722H122.463V29.164H114.785V32.662H121.737V35.104H114.785V41H111.353V26.722ZM127.662 41.22C126.665 41.22 125.917 41.132 125.418 40.956C124.934 40.7653 124.59 40.4353 124.384 39.966C124.194 39.482 124.098 38.7633 124.098 37.81C124.098 36.9593 124.201 36.292 124.406 35.808C124.626 35.324 124.971 34.9793 125.44 34.774C125.924 34.554 126.584 34.444 127.42 34.444H131.028V33.718C131.028 33.2633 130.962 32.926 130.83 32.706C130.713 32.486 130.486 32.332 130.148 32.244C129.826 32.156 129.334 32.112 128.674 32.112C127.765 32.112 126.518 32.2 124.934 32.376V30.352C126.093 30.2053 127.45 30.132 129.004 30.132C130.368 30.132 131.417 30.2347 132.15 30.44C132.898 30.6453 133.434 30.9973 133.756 31.496C134.079 31.9947 134.24 32.7207 134.24 33.674V41H131.094V40.032C130.845 40.4573 130.508 40.758 130.082 40.934C129.657 41.1247 128.85 41.22 127.662 41.22ZM128.916 39.218C129.562 39.218 130.024 39.196 130.302 39.152C130.508 39.1227 130.647 39.0787 130.72 39.02C130.808 38.9613 130.882 38.866 130.94 38.734C130.999 38.6313 131.028 38.4773 131.028 38.272V36.204H128.828C128.33 36.204 127.978 36.2407 127.772 36.314C127.567 36.3727 127.428 36.5047 127.354 36.71C127.281 36.9007 127.244 37.2453 127.244 37.744C127.244 38.228 127.281 38.5653 127.354 38.756C127.428 38.9467 127.567 39.0713 127.772 39.13C127.992 39.1887 128.374 39.218 128.916 39.218ZM142.258 41.22C141.701 41.22 141.261 41.2053 140.938 41.176C140.616 41.1613 140.22 41.1247 139.75 41.066C139.281 41.0073 138.892 40.9047 138.584 40.758C138.291 40.6113 137.983 40.3913 137.66 40.098C137.059 39.5993 136.758 38.7487 136.758 37.546V34.004C136.758 33.036 136.978 32.2293 137.418 31.584C137.58 31.3493 137.814 31.1367 138.122 30.946C138.445 30.7407 138.768 30.5793 139.09 30.462C139.354 30.374 139.706 30.3007 140.146 30.242C140.586 30.1833 140.975 30.1467 141.312 30.132H142.478C143.3 30.132 144.378 30.264 145.712 30.528V32.64C144.202 32.288 143.043 32.112 142.236 32.112C140.755 32.112 140.014 32.6107 140.014 33.608V37.524C140.014 38.6533 140.828 39.218 142.456 39.218C143.248 39.218 144.385 39.0567 145.866 38.734V40.846C144.532 41.0953 143.329 41.22 142.258 41.22ZM153.025 41.22C149.256 41.22 147.371 40.0687 147.371 37.766V33.938C147.371 32.6033 147.797 31.6353 148.647 31.034C149.513 30.4327 150.84 30.132 152.629 30.132C154.316 30.132 155.548 30.4253 156.325 31.012C157.117 31.584 157.513 32.5593 157.513 33.938V36.534H150.605V37.502C150.605 38.118 150.825 38.558 151.265 38.822C151.705 39.086 152.497 39.218 153.641 39.218C154.697 39.218 155.885 39.064 157.205 38.756V40.802C155.9 41.0807 154.507 41.22 153.025 41.22ZM154.455 34.708V33.168C154.455 32.816 154.309 32.552 154.015 32.376C153.737 32.2 153.26 32.112 152.585 32.112C151.808 32.112 151.287 32.2 151.023 32.376C150.745 32.5667 150.605 32.8307 150.605 33.168V34.708H154.455ZM159.969 30.352H163.137V31.65C163.386 30.638 164.523 30.132 166.547 30.132C167.911 30.132 168.864 30.3813 169.407 30.88C169.964 31.364 170.243 32.134 170.243 33.19V41H167.031V33.608C167.031 33.1973 166.987 32.8893 166.899 32.684C166.825 32.4787 166.664 32.332 166.415 32.244C166.18 32.156 165.813 32.112 165.315 32.112C164.684 32.112 164.222 32.156 163.929 32.244C163.635 32.3173 163.437 32.4567 163.335 32.662C163.232 32.8673 163.181 33.1827 163.181 33.608V41H159.969V30.352ZM177.035 41.22C175.891 41.22 174.49 41.11 172.833 40.89V38.756C174.871 39.064 176.287 39.218 177.079 39.218C177.753 39.218 178.252 39.152 178.575 39.02C178.897 38.888 179.059 38.646 179.059 38.294V37.634C179.059 37.2673 178.956 37.0107 178.751 36.864C178.545 36.7027 178.142 36.622 177.541 36.622H176.155C175.025 36.622 174.153 36.402 173.537 35.962C172.921 35.5073 172.613 34.8473 172.613 33.982V32.684C172.613 31.76 173.053 31.1073 173.933 30.726C174.813 30.33 176.14 30.132 177.915 30.132C178.619 30.132 179.88 30.198 181.699 30.33V32.376C179.411 32.2 178.12 32.112 177.827 32.112C176.961 32.112 176.397 32.1707 176.133 32.288C175.898 32.42 175.781 32.662 175.781 33.014V33.586C175.781 33.7767 175.876 33.9453 176.067 34.092C176.257 34.224 176.536 34.29 176.903 34.29H178.311C180.921 34.29 182.227 35.1407 182.227 36.842V38.184C182.227 38.6973 182.131 39.1447 181.941 39.526C181.75 39.9073 181.501 40.208 181.193 40.428C180.899 40.6333 180.518 40.7947 180.049 40.912C179.594 41.0293 179.117 41.11 178.619 41.154C178.164 41.198 177.636 41.22 177.035 41.22ZM196.611 41.22C195.79 41.22 195.064 41.1833 194.433 41.11C193.803 41.0367 193.179 40.912 192.563 40.736C191.903 40.56 191.361 40.3253 190.935 40.032C190.51 39.724 190.165 39.328 189.901 38.844C189.637 38.3307 189.505 37.744 189.505 37.084V31.144C189.505 30.4253 189.652 29.78 189.945 29.208C190.239 28.6213 190.635 28.1593 191.133 27.822C191.603 27.514 192.16 27.25 192.805 27.03C193.465 26.81 194.111 26.6633 194.741 26.59C195.269 26.5313 195.907 26.502 196.655 26.502C198.679 26.502 200.615 26.656 202.463 26.964V29.56C200.762 29.1493 198.826 28.944 196.655 28.944C194.177 28.944 192.937 29.6627 192.937 31.1V36.842C192.937 37.546 193.267 38.0447 193.927 38.338C194.602 38.6313 195.614 38.778 196.963 38.778C197.682 38.778 198.452 38.668 199.273 38.448V35.126H196.941V32.882H202.551V40.296C201.818 40.56 200.879 40.78 199.735 40.956C198.606 41.132 197.565 41.22 196.611 41.22ZM208.207 41.22C207.21 41.22 206.462 41.132 205.963 40.956C205.479 40.7653 205.134 40.4353 204.929 39.966C204.738 39.482 204.643 38.7633 204.643 37.81C204.643 36.9593 204.746 36.292 204.951 35.808C205.171 35.324 205.516 34.9793 205.985 34.774C206.469 34.554 207.129 34.444 207.965 34.444H211.573V33.718C211.573 33.2633 211.507 32.926 211.375 32.706C211.258 32.486 211.03 32.332 210.693 32.244C210.37 32.156 209.879 32.112 209.219 32.112C208.31 32.112 207.063 32.2 205.479 32.376V30.352C206.638 30.2053 207.994 30.132 209.549 30.132C210.913 30.132 211.962 30.2347 212.695 30.44C213.443 30.6453 213.978 30.9973 214.301 31.496C214.624 31.9947 214.785 32.7207 214.785 33.674V41H211.639V40.032C211.39 40.4573 211.052 40.758 210.627 40.934C210.202 41.1247 209.395 41.22 208.207 41.22ZM209.461 39.218C210.106 39.218 210.568 39.196 210.847 39.152C211.052 39.1227 211.192 39.0787 211.265 39.02C211.353 38.9613 211.426 38.866 211.485 38.734C211.544 38.6313 211.573 38.4773 211.573 38.272V36.204H209.373C208.874 36.204 208.522 36.2407 208.317 36.314C208.112 36.3727 207.972 36.5047 207.899 36.71C207.826 36.9007 207.789 37.2453 207.789 37.744C207.789 38.228 207.826 38.5653 207.899 38.756C207.972 38.9467 208.112 39.0713 208.317 39.13C208.537 39.1887 208.918 39.218 209.461 39.218ZM217.611 30.352H220.823V31.65C221.028 30.638 222.077 30.132 223.969 30.132C224.966 30.132 225.722 30.264 226.235 30.528C226.748 30.7773 227.093 31.1733 227.269 31.716C227.445 31.1587 227.782 30.7553 228.281 30.506C228.794 30.2567 229.564 30.132 230.591 30.132C231.515 30.132 232.226 30.242 232.725 30.462C233.224 30.6673 233.568 30.99 233.759 31.43C233.964 31.87 234.067 32.4567 234.067 33.19V41H230.855V33.63C230.855 33.1607 230.826 32.8307 230.767 32.64C230.708 32.4347 230.576 32.2953 230.371 32.222C230.18 32.1487 229.843 32.112 229.359 32.112C228.758 32.112 228.325 32.1487 228.061 32.222C227.812 32.2953 227.643 32.4347 227.555 32.64C227.482 32.8307 227.445 33.1607 227.445 33.63V41H224.233V33.63C224.233 33.1607 224.204 32.8307 224.145 32.64C224.086 32.4347 223.954 32.2953 223.749 32.222C223.558 32.1487 223.221 32.112 222.737 32.112C222.136 32.112 221.703 32.1487 221.439 32.222C221.19 32.2953 221.021 32.4347 220.933 32.64C220.86 32.8307 220.823 33.1607 220.823 33.63V41H217.611V30.352ZM242.229 41.22C238.459 41.22 236.575 40.0687 236.575 37.766V33.938C236.575 32.6033 237 31.6353 237.851 31.034C238.716 30.4327 240.043 30.132 241.833 30.132C243.519 30.132 244.751 30.4253 245.529 31.012C246.321 31.584 246.717 32.5593 246.717 33.938V36.534H239.809V37.502C239.809 38.118 240.029 38.558 240.469 38.822C240.909 39.086 241.701 39.218 242.845 39.218C243.901 39.218 245.089 39.064 246.409 38.756V40.802C245.103 41.0807 243.71 41.22 242.229 41.22ZM243.659 34.708V33.168C243.659 32.816 243.512 32.552 243.219 32.376C242.94 32.2 242.463 32.112 241.789 32.112C241.011 32.112 240.491 32.2 240.227 32.376C239.948 32.5667 239.809 32.8307 239.809 33.168V34.708H243.659ZM258.994 41.22C257.63 41.22 255.943 41.088 253.934 40.824V38.206C256.427 38.5873 258.129 38.778 259.038 38.778C260.945 38.778 261.898 38.2867 261.898 37.304V36.38C261.898 35.9107 261.759 35.5513 261.48 35.302C261.216 35.0527 260.732 34.928 260.028 34.928H258.356C255.217 34.928 253.648 33.6813 253.648 31.188V30.132C253.648 28.8853 254.169 27.9687 255.21 27.382C256.251 26.7953 257.901 26.502 260.16 26.502C261.333 26.502 262.822 26.5973 264.626 26.788V29.34C262.411 29.076 260.886 28.944 260.05 28.944C258.891 28.944 258.114 29.0393 257.718 29.23C257.293 29.4353 257.08 29.758 257.08 30.198V31.21C257.08 31.958 257.711 32.332 258.972 32.332H260.688C262.316 32.332 263.497 32.6327 264.23 33.234C264.963 33.8353 265.33 34.752 265.33 35.984V36.93C265.33 38.6313 264.721 39.7827 263.504 40.384C262.917 40.692 262.265 40.9047 261.546 41.022C260.842 41.154 259.991 41.22 258.994 41.22ZM272.908 41.22C272.365 41.22 271.91 41.198 271.544 41.154C271.177 41.11 270.81 41.022 270.444 40.89C270.033 40.758 269.696 40.5747 269.432 40.34C269.182 40.1053 268.977 39.7827 268.816 39.372C268.64 38.9467 268.552 38.4553 268.552 37.898V32.332H266.396V30.352H268.552V27.272H271.764V30.352H274.69V32.332H271.764V37.348C271.764 37.8613 271.808 38.25 271.896 38.514C271.984 38.7633 272.152 38.9467 272.402 39.064C272.651 39.1667 273.032 39.218 273.546 39.218C273.751 39.218 274.132 39.1813 274.69 39.108V41.11C274 41.1833 273.406 41.22 272.908 41.22ZM281.647 41.22C280.987 41.22 280.444 41.198 280.019 41.154C279.593 41.11 279.139 41.022 278.655 40.89C278.127 40.7433 277.701 40.538 277.379 40.274C277.056 39.9953 276.785 39.6067 276.565 39.108C276.345 38.624 276.235 38.0373 276.235 37.348V34.202C276.235 33.498 276.345 32.882 276.565 32.354C276.785 31.826 277.071 31.4153 277.423 31.122C277.731 30.8727 278.134 30.6673 278.633 30.506C279.146 30.33 279.645 30.22 280.129 30.176C280.686 30.1467 281.192 30.132 281.647 30.132C282.321 30.132 282.857 30.154 283.253 30.198C283.663 30.2273 284.111 30.3153 284.595 30.462C285.123 30.6233 285.548 30.8433 285.871 31.122C286.208 31.4007 286.494 31.7967 286.729 32.31C286.949 32.838 287.059 33.4687 287.059 34.202V37.348C287.059 38.008 286.949 38.5873 286.729 39.086C286.523 39.5847 286.252 39.9733 285.915 40.252C285.621 40.5013 285.218 40.7067 284.705 40.868C284.206 41.0147 283.715 41.11 283.231 41.154C282.791 41.198 282.263 41.22 281.647 41.22ZM281.647 39.218C282.248 39.218 282.703 39.174 283.011 39.086C283.319 38.9833 283.531 38.8293 283.649 38.624C283.781 38.4187 283.847 38.118 283.847 37.722V33.696C283.847 33.1093 283.693 32.6987 283.385 32.464C283.077 32.2293 282.497 32.112 281.647 32.112C280.796 32.112 280.217 32.2293 279.909 32.464C279.601 32.6987 279.447 33.1093 279.447 33.696V37.722C279.447 38.118 279.505 38.4187 279.623 38.624C279.755 38.8293 279.975 38.9833 280.283 39.086C280.591 39.174 281.045 39.218 281.647 39.218ZM289.562 30.352H292.62V32.222C292.62 31.8847 292.76 31.5547 293.038 31.232C293.317 30.9093 293.669 30.6453 294.094 30.44C294.534 30.2347 294.967 30.132 295.392 30.132H296.536V32.794H295.436C294.527 32.794 293.852 32.9333 293.412 33.212C292.987 33.4907 292.774 33.9527 292.774 34.598V41H289.562V30.352ZM303.652 41.22C299.883 41.22 297.998 40.0687 297.998 37.766V33.938C297.998 32.6033 298.424 31.6353 299.274 31.034C300.14 30.4327 301.467 30.132 303.256 30.132C304.943 30.132 306.175 30.4253 306.952 31.012C307.744 31.584 308.14 32.5593 308.14 33.938V36.534H301.232V37.502C301.232 38.118 301.452 38.558 301.892 38.822C302.332 39.086 303.124 39.218 304.268 39.218C305.324 39.218 306.512 39.064 307.832 38.756V40.802C306.527 41.0807 305.134 41.22 303.652 41.22ZM305.082 34.708V33.168C305.082 32.816 304.936 32.552 304.642 32.376C304.364 32.2 303.887 32.112 303.212 32.112C302.435 32.112 301.914 32.2 301.65 32.376C301.372 32.5667 301.232 32.8307 301.232 33.168V34.708H305.082Z" fill="#004E9A"/>
<path d="M111.353 26.722V25.722H110.353V26.722H111.353ZM122.463 26.722H123.463V25.722H122.463V26.722ZM122.463 29.164V30.164H123.463V29.164H122.463ZM114.785 29.164V28.164H113.785V29.164H114.785ZM114.785 32.662H113.785V33.662H114.785V32.662ZM121.737 32.662H122.737V31.662H121.737V32.662ZM121.737 35.104V36.104H122.737V35.104H121.737ZM114.785 35.104V34.104H113.785V35.104H114.785ZM114.785 41V42H115.785V41H114.785ZM111.353 41H110.353V42H111.353V41ZM111.353 27.722H122.463V25.722H111.353V27.722ZM121.463 26.722V29.164H123.463V26.722H121.463ZM122.463 28.164H114.785V30.164H122.463V28.164ZM113.785 29.164V32.662H115.785V29.164H113.785ZM114.785 33.662H121.737V31.662H114.785V33.662ZM120.737 32.662V35.104H122.737V32.662H120.737ZM121.737 34.104H114.785V36.104H121.737V34.104ZM113.785 35.104V41H115.785V35.104H113.785ZM114.785 40H111.353V42H114.785V40ZM112.353 41V26.722H110.353V41H112.353ZM125.418 40.956L125.052 41.8864L125.068 41.893L125.085 41.899L125.418 40.956ZM124.384 39.966L123.454 40.3325L123.461 40.3498L123.468 40.3668L124.384 39.966ZM124.406 35.808L123.496 35.3942L123.491 35.4058L123.486 35.4174L124.406 35.808ZM125.44 34.774L125.841 35.6902L125.848 35.6873L125.854 35.6844L125.44 34.774ZM131.028 34.444V35.444H132.028V34.444H131.028ZM130.83 32.706L129.948 33.1766L129.96 33.1989L129.973 33.2205L130.83 32.706ZM130.148 32.244L129.885 33.2088L129.896 33.2116L130.148 32.244ZM124.934 32.376H123.934V33.4933L125.045 33.3699L124.934 32.376ZM124.934 30.352L124.809 29.3599L123.934 29.4706V30.352H124.934ZM132.15 30.44L131.881 31.403L131.886 31.4043L132.15 30.44ZM133.756 31.496L132.917 32.0393V32.0393L133.756 31.496ZM134.24 41V42H135.24V41H134.24ZM131.094 41H130.094V42H131.094V41ZM131.094 40.032H132.094V36.3487L130.232 39.5263L131.094 40.032ZM130.082 40.934L129.7 40.01L129.686 40.0155L129.673 40.0215L130.082 40.934ZM130.302 39.152L130.161 38.1621L130.154 38.1631L130.146 38.1642L130.302 39.152ZM130.72 39.02L130.166 38.1879L130.129 38.212L130.096 38.2391L130.72 39.02ZM130.94 38.734L130.072 38.2379L130.047 38.2817L130.026 38.3279L130.94 38.734ZM131.028 36.204H132.028V35.204H131.028V36.204ZM127.772 36.314L128.047 37.2755L128.078 37.2666L128.109 37.2557L127.772 36.314ZM127.354 36.71L128.288 37.069L128.292 37.0577L128.296 37.0463L127.354 36.71ZM127.354 38.756L128.288 38.397L127.354 38.756ZM127.772 39.13L127.498 40.0915L127.506 40.094L127.515 40.0962L127.772 39.13ZM127.662 40.22C126.696 40.22 126.086 40.1313 125.751 40.013L125.085 41.899C125.748 42.1327 126.633 42.22 127.662 42.22V40.22ZM125.785 40.0256C125.543 39.9302 125.398 39.7881 125.3 39.5652L123.468 40.3668C123.781 41.0826 124.326 41.6005 125.052 41.8864L125.785 40.0256ZM125.315 39.5995C125.194 39.2922 125.098 38.7246 125.098 37.81H123.098C123.098 38.8021 123.194 39.6718 123.454 40.3325L125.315 39.5995ZM125.098 37.81C125.098 37.0206 125.196 36.506 125.327 36.1985L123.486 35.4174C123.205 36.078 123.098 36.8981 123.098 37.81H125.098ZM125.317 36.2218C125.439 35.953 125.607 35.7926 125.841 35.6902L125.039 33.8578C124.335 34.1661 123.814 34.695 123.496 35.3942L125.317 36.2218ZM125.854 35.6844C126.155 35.5476 126.654 35.444 127.42 35.444V33.444C126.514 33.444 125.694 33.5604 125.026 33.8636L125.854 35.6844ZM127.42 35.444H131.028V33.444H127.42V35.444ZM132.028 34.444V33.718H130.028V34.444H132.028ZM132.028 33.718C132.028 33.2033 131.96 32.6455 131.688 32.1915L129.973 33.2205C129.963 33.2036 129.98 33.2249 129.997 33.316C130.015 33.405 130.028 33.5358 130.028 33.718H132.028ZM131.713 32.2354C131.418 31.6836 130.898 31.406 130.401 31.2764L129.896 33.2116C129.938 33.2227 129.968 33.2334 129.987 33.2415C130.006 33.2496 130.012 33.2545 130.011 33.2534C130.009 33.2521 129.999 33.2452 129.986 33.2311C129.973 33.2166 129.959 33.1981 129.948 33.1766L131.713 32.2354ZM130.411 31.2792C129.955 31.1549 129.355 31.112 128.674 31.112V33.112C129.314 33.112 129.696 33.1571 129.885 33.2088L130.411 31.2792ZM128.674 31.112C127.711 31.112 126.422 31.2046 124.824 31.3821L125.045 33.3699C126.615 33.1954 127.819 33.112 128.674 33.112V31.112ZM125.934 32.376V30.352H123.934V32.376H125.934ZM125.06 31.3441C126.166 31.2041 127.479 31.132 129.004 31.132V29.132C127.42 29.132 126.02 29.2066 124.809 29.3599L125.06 31.3441ZM129.004 31.132C130.337 31.132 131.278 31.2343 131.881 31.403L132.42 29.477C131.555 29.235 130.4 29.132 129.004 29.132V31.132ZM131.886 31.4043C132.471 31.565 132.764 31.8033 132.917 32.0393L134.596 30.9527C134.103 30.1914 133.326 29.7257 132.415 29.4757L131.886 31.4043ZM132.917 32.0393C133.089 32.3055 133.24 32.8073 133.24 33.674H135.24C135.24 32.6341 135.069 31.6839 134.596 30.9527L132.917 32.0393ZM133.24 33.674V41H135.24V33.674H133.24ZM134.24 40H131.094V42H134.24V40ZM132.094 41V40.032H130.094V41H132.094ZM130.232 39.5263C130.084 39.7778 129.909 39.9234 129.7 40.01L130.465 41.858C131.106 41.5926 131.606 41.1369 131.957 40.5377L130.232 39.5263ZM129.673 40.0215C129.597 40.0556 129.406 40.1122 129.041 40.1554C128.69 40.1969 128.233 40.22 127.662 40.22V42.22C128.279 42.22 128.82 42.1954 129.276 42.1416C129.717 42.0895 130.142 42.0031 130.491 41.8465L129.673 40.0215ZM128.916 40.218C129.565 40.218 130.095 40.1971 130.458 40.1398L130.146 38.1642C129.952 38.1949 129.558 38.218 128.916 38.218V40.218ZM130.444 40.1419C130.66 40.1111 131.042 40.0429 131.345 39.8009L130.096 38.2391C130.149 38.1967 130.194 38.1726 130.218 38.1607C130.243 38.1485 130.259 38.1436 130.26 38.1434C130.261 38.143 130.254 38.1453 130.236 38.1491C130.218 38.1529 130.194 38.1574 130.161 38.1621L130.444 40.1419ZM131.275 39.8521C131.568 39.6565 131.746 39.384 131.854 39.1401L130.026 38.3279C130.017 38.348 130.048 38.2662 130.166 38.1879L131.275 39.8521ZM131.808 39.2301C131.996 38.9025 132.028 38.5398 132.028 38.272H130.028C130.028 38.2998 130.027 38.3206 130.026 38.335C130.025 38.3496 130.024 38.3556 130.024 38.3544C130.024 38.3533 130.026 38.342 130.033 38.3231C130.039 38.3041 130.051 38.2742 130.072 38.2379L131.808 39.2301ZM132.028 38.272V36.204H130.028V38.272H132.028ZM131.028 35.204H128.828V37.204H131.028V35.204ZM128.828 35.204C128.324 35.204 127.819 35.2356 127.436 35.3723L128.109 37.2557C128.104 37.2573 128.155 37.2406 128.294 37.2261C128.425 37.2125 128.601 37.204 128.828 37.204V35.204ZM127.498 35.3525C126.974 35.5019 126.592 35.8721 126.412 36.3737L128.296 37.0463C128.287 37.0714 128.261 37.127 128.201 37.183C128.142 37.2395 128.081 37.2657 128.047 37.2755L127.498 35.3525ZM126.421 36.351C126.274 36.7339 126.244 37.2497 126.244 37.744H128.244C128.244 37.5161 128.253 37.343 128.266 37.2173C128.281 37.0804 128.296 37.0459 128.288 37.069L126.421 36.351ZM126.244 37.744C126.244 38.228 126.274 38.7338 126.421 39.115L128.288 38.397C128.296 38.4179 128.28 38.3833 128.266 38.2519C128.253 38.1307 128.244 37.9637 128.244 37.744H126.244ZM126.421 39.115C126.613 39.614 127.006 39.9512 127.498 40.0915L128.047 38.1685C128.069 38.1748 128.123 38.1953 128.181 38.2473C128.24 38.3003 128.273 38.3583 128.288 38.397L126.421 39.115ZM127.515 40.0962C127.874 40.1921 128.373 40.218 128.916 40.218V38.218C128.374 38.218 128.111 38.1853 128.03 38.1638L127.515 40.0962ZM140.938 41.176L141.029 40.1801L141.006 40.1781L140.984 40.177L140.938 41.176ZM139.75 41.066L139.626 42.0583L139.75 41.066ZM138.584 40.758L138.137 41.6524L138.146 41.6567L138.154 41.6609L138.584 40.758ZM137.66 40.098L138.333 39.3581L138.316 39.3428L138.299 39.3282L137.66 40.098ZM137.418 31.584L136.594 31.0175L136.592 31.0207L137.418 31.584ZM138.122 30.946L138.649 31.7963L138.659 31.7897L138.122 30.946ZM139.09 30.462L138.774 29.5133L138.761 29.5176L138.748 29.5222L139.09 30.462ZM141.312 30.132V29.132H141.29L141.269 29.1329L141.312 30.132ZM145.712 30.528H146.712V29.7064L145.906 29.547L145.712 30.528ZM145.712 32.64L145.485 33.6139L146.712 33.8998V32.64H145.712ZM145.866 38.734H146.866V37.4927L145.653 37.7569L145.866 38.734ZM145.866 40.846L146.05 41.829L146.866 41.6765V40.846H145.866ZM142.258 40.22C141.713 40.22 141.307 40.2054 141.029 40.1801L140.848 42.1719C141.214 42.2052 141.689 42.22 142.258 42.22V40.22ZM140.984 40.177C140.696 40.164 140.328 40.1305 139.874 40.0737L139.626 42.0583C140.111 42.1189 140.535 42.1587 140.893 42.175L140.984 40.177ZM139.874 40.0737C139.473 40.0236 139.196 39.9419 139.014 39.8551L138.154 41.6609C138.588 41.8674 139.089 41.9911 139.626 42.0583L139.874 40.0737ZM139.031 39.8636C138.842 39.7688 138.609 39.6087 138.333 39.3581L136.988 40.8379C137.357 41.1739 137.74 41.4539 138.137 41.6524L139.031 39.8636ZM138.299 39.3282C138.027 39.1031 137.758 38.6129 137.758 37.546H135.758C135.758 38.8845 136.091 40.0956 137.022 40.8678L138.299 39.3282ZM137.758 37.546V34.004H135.758V37.546H137.758ZM137.758 34.004C137.758 33.1885 137.942 32.5907 138.244 32.1473L136.592 31.0207C136.014 31.868 135.758 32.8835 135.758 34.004H137.758ZM138.242 32.1505C138.307 32.0566 138.427 31.9331 138.649 31.7963L137.596 30.0957C137.201 30.3402 136.852 30.6421 136.594 31.0175L138.242 32.1505ZM138.659 31.7897C138.927 31.619 139.185 31.4916 139.432 31.4018L138.748 29.5222C138.35 29.667 137.962 29.8623 137.585 30.1023L138.659 31.7897ZM139.406 31.4107C139.586 31.3508 139.869 31.2878 140.278 31.2332L140.014 29.2508C139.544 29.3135 139.122 29.3972 138.774 29.5133L139.406 31.4107ZM140.278 31.2332C140.697 31.1773 141.056 31.1441 141.356 31.1311L141.269 29.1329C140.894 29.1492 140.475 29.1893 140.014 29.2508L140.278 31.2332ZM141.312 31.132H142.478V29.132H141.312V31.132ZM142.478 31.132C143.206 31.132 144.212 31.2506 145.518 31.509L145.906 29.547C144.543 29.2774 143.393 29.132 142.478 29.132V31.132ZM144.712 30.528V32.64H146.712V30.528H144.712ZM145.939 31.6661C144.409 31.3095 143.16 31.112 142.236 31.112V33.112C142.925 33.112 143.994 33.2665 145.485 33.6139L145.939 31.6661ZM142.236 31.112C141.415 31.112 140.623 31.2446 140.011 31.6565C139.329 32.1158 139.014 32.8222 139.014 33.608H141.014C141.014 33.4829 141.037 33.4219 141.049 33.3972C141.059 33.3768 141.077 33.3501 141.128 33.3155C141.257 33.2288 141.576 33.112 142.236 33.112V31.112ZM139.014 33.608V37.524H141.014V33.608H139.014ZM139.014 37.524C139.014 38.3633 139.337 39.1186 140.055 39.6162C140.706 40.0677 141.557 40.218 142.456 40.218V38.218C141.727 38.218 141.358 38.0859 141.195 37.9728C141.098 37.9057 141.014 37.814 141.014 37.524H139.014ZM142.456 40.218C143.358 40.218 144.579 40.0378 146.079 39.7111L145.653 37.7569C144.191 38.0755 143.138 38.218 142.456 38.218V40.218ZM144.866 38.734V40.846H146.866V38.734H144.866ZM145.683 39.863C144.393 40.1039 143.253 40.22 142.258 40.22V42.22C143.404 42.22 144.67 42.0868 146.05 41.829L145.683 39.863ZM148.647 31.034L148.077 30.2128L148.07 30.2174L148.647 31.034ZM156.325 31.012L155.723 31.8102L155.731 31.8165L155.74 31.8227L156.325 31.012ZM157.513 36.534V37.534H158.513V36.534H157.513ZM150.605 36.534V35.534H149.605V36.534H150.605ZM151.265 38.822L151.78 37.9645V37.9645L151.265 38.822ZM157.205 38.756H158.205V37.4958L156.978 37.7822L157.205 38.756ZM157.205 40.802L157.414 41.78L158.205 41.611V40.802H157.205ZM154.455 34.708V35.708H155.455V34.708H154.455ZM154.015 32.376L153.481 33.2215L153.491 33.2276L153.501 33.2335L154.015 32.376ZM151.023 32.376L150.469 31.5439L150.459 31.5507L151.023 32.376ZM150.605 34.708H149.605V35.708H150.605V34.708ZM153.025 40.22C151.21 40.22 150.016 39.9369 149.306 39.5031C148.676 39.1183 148.371 38.587 148.371 37.766H146.371C146.371 39.2477 147.009 40.4433 148.264 41.2099C149.438 41.9274 151.072 42.22 153.025 42.22V40.22ZM148.371 37.766V33.938H146.371V37.766H148.371ZM148.371 33.938C148.371 32.8265 148.712 32.2127 149.225 31.8506L148.07 30.2174C146.881 31.058 146.371 32.3802 146.371 33.938H148.371ZM149.218 31.8552C149.835 31.4264 150.917 31.132 152.629 31.132V29.132C150.764 29.132 149.19 29.439 148.077 30.2128L149.218 31.8552ZM152.629 31.132C154.241 31.132 155.206 31.4201 155.723 31.8102L156.928 30.2138C155.89 29.4306 154.391 29.132 152.629 29.132V31.132ZM155.74 31.8227C156.175 32.137 156.513 32.7393 156.513 33.938H158.513C158.513 32.3794 158.06 31.031 156.911 30.2013L155.74 31.8227ZM156.513 33.938V36.534H158.513V33.938H156.513ZM157.513 35.534H150.605V37.534H157.513V35.534ZM149.605 36.534V37.502H151.605V36.534H149.605ZM149.605 37.502C149.605 38.3867 149.945 39.196 150.751 39.6795L151.78 37.9645C151.706 37.92 151.605 37.8493 151.605 37.502H149.605ZM150.751 39.6795C151.447 40.0972 152.489 40.218 153.641 40.218V38.218C152.506 38.218 151.964 38.0748 151.78 37.9645L150.751 39.6795ZM153.641 40.218C154.792 40.218 156.058 40.0506 157.433 39.7298L156.978 37.7822C155.713 38.0774 154.603 38.218 153.641 38.218V40.218ZM156.205 38.756V40.802H158.205V38.756H156.205ZM156.997 39.824C155.767 40.0866 154.444 40.22 153.025 40.22V42.22C154.569 42.22 156.033 42.0748 157.414 41.78L156.997 39.824ZM155.455 34.708V33.168H153.455V34.708H155.455ZM155.455 33.168C155.455 32.4772 155.135 31.8816 154.53 31.5185L153.501 33.2335C153.511 33.2396 153.509 33.2398 153.501 33.2316C153.492 33.2229 153.481 33.2093 153.471 33.1916C153.462 33.1741 153.457 33.1596 153.455 33.1521C153.454 33.1453 153.455 33.1494 153.455 33.168H155.455ZM154.549 31.5305C154.015 31.1928 153.288 31.112 152.585 31.112V33.112C152.884 33.112 153.107 33.1318 153.267 33.1614C153.434 33.1922 153.488 33.2255 153.481 33.2215L154.549 31.5305ZM152.585 31.112C152.164 31.112 151.78 31.1354 151.445 31.192C151.127 31.2459 150.771 31.3427 150.469 31.5439L151.578 33.208C151.54 33.2333 151.577 33.1981 151.779 33.164C151.965 33.1326 152.229 33.112 152.585 33.112V31.112ZM150.459 31.5507C149.908 31.9275 149.605 32.5002 149.605 33.168H151.605C151.605 33.1527 151.607 33.1491 151.606 33.1545C151.604 33.1603 151.601 33.1711 151.594 33.1838C151.588 33.1964 151.581 33.2052 151.577 33.2095C151.573 33.2135 151.575 33.2101 151.588 33.2013L150.459 31.5507ZM149.605 33.168V34.708H151.605V33.168H149.605ZM150.605 35.708H154.455V33.708H150.605V35.708ZM159.969 30.352V29.352H158.969V30.352H159.969ZM163.137 30.352H164.137V29.352H163.137V30.352ZM163.137 31.65H162.137L164.108 31.8892L163.137 31.65ZM169.407 30.88L168.73 31.6163L168.74 31.6258L168.751 31.635L169.407 30.88ZM170.243 41V42H171.243V41H170.243ZM167.031 41H166.031V42H167.031V41ZM166.899 32.684L165.957 33.0203L165.967 33.0495L165.979 33.0779L166.899 32.684ZM166.415 32.244L166.063 33.1803L166.073 33.1837L166.082 33.187L166.415 32.244ZM163.929 32.244L164.171 33.2141L164.194 33.2085L164.216 33.2018L163.929 32.244ZM163.181 41V42H164.181V41H163.181ZM159.969 41H158.969V42H159.969V41ZM159.969 31.352H163.137V29.352H159.969V31.352ZM162.137 30.352V31.65H164.137V30.352H162.137ZM164.108 31.8892C164.144 31.7426 164.235 31.5797 164.583 31.4251C164.968 31.2538 165.597 31.132 166.547 31.132V29.132C165.472 29.132 164.521 29.2632 163.769 29.5979C162.98 29.9493 162.379 30.5454 162.166 31.4108L164.108 31.8892ZM166.547 31.132C167.85 31.132 168.475 31.3824 168.73 31.6163L170.083 30.1437C169.252 29.3802 167.971 29.132 166.547 29.132V31.132ZM168.751 31.635C169.008 31.8586 169.243 32.2952 169.243 33.19H171.243C171.243 31.9728 170.919 30.8694 170.062 30.125L168.751 31.635ZM169.243 33.19V41H171.243V33.19H169.243ZM170.243 40H167.031V42H170.243V40ZM168.031 41V33.608H166.031V41H168.031ZM168.031 33.608C168.031 33.1564 167.987 32.6844 167.818 32.2901L165.979 33.0779C165.978 33.0753 165.994 33.1121 166.008 33.2104C166.021 33.3055 166.031 33.436 166.031 33.608H168.031ZM167.84 32.3477C167.644 31.7982 167.214 31.4657 166.747 31.301L166.082 33.187C166.107 33.1958 166.086 33.1932 166.05 33.1599C166.009 33.1229 165.975 33.0722 165.957 33.0203L167.84 32.3477ZM166.766 31.3077C166.355 31.1538 165.839 31.112 165.315 31.112V33.112C165.788 33.112 166.004 33.1582 166.063 33.1803L166.766 31.3077ZM165.315 31.112C164.667 31.112 164.082 31.154 163.641 31.2862L164.216 33.2018C164.362 33.158 164.701 33.112 165.315 33.112V31.112ZM163.686 31.2739C163.205 31.3941 162.712 31.6715 162.44 32.2148L164.229 33.1092C164.217 33.1333 164.201 33.1568 164.183 33.1777C164.165 33.1985 164.148 33.2127 164.136 33.2213C164.112 33.2377 164.115 33.2281 164.171 33.2141L163.686 31.2739ZM162.44 32.2148C162.231 32.6324 162.181 33.1382 162.181 33.608H164.181C164.181 33.4327 164.191 33.3036 164.206 33.2132C164.221 33.1192 164.237 33.094 164.229 33.1092L162.44 32.2148ZM162.181 33.608V41H164.181V33.608H162.181ZM163.181 40H159.969V42H163.181V40ZM160.969 41V30.352H158.969V41H160.969ZM172.833 40.89H171.833V41.766L172.701 41.8813L172.833 40.89ZM172.833 38.756L172.982 37.7672L171.833 37.5936V38.756H172.833ZM178.575 39.02L178.953 39.9455L178.575 39.02ZM178.751 36.864L178.133 37.6503L178.151 37.6644L178.169 37.6777L178.751 36.864ZM173.537 35.962L172.943 36.7666L172.949 36.7712L172.955 36.7757L173.537 35.962ZM173.933 30.726L174.33 31.6436L174.343 31.6379L173.933 30.726ZM181.699 30.33H182.699V29.4L181.771 29.3326L181.699 30.33ZM181.699 32.376L181.622 33.3731L182.699 33.4559V32.376H181.699ZM176.133 32.288L175.726 31.3742L175.683 31.3933L175.642 31.4164L176.133 32.288ZM176.067 34.092L175.457 34.8846L175.477 34.8999L175.497 34.9142L176.067 34.092ZM181.941 39.526L181.046 39.0788L181.941 39.526ZM181.193 40.428L181.766 41.2473L181.774 41.2417L181.193 40.428ZM180.049 40.912L179.806 39.9418L179.799 39.9437L180.049 40.912ZM178.619 41.154L178.531 40.1578L178.522 40.1586L178.619 41.154ZM177.035 40.22C175.95 40.22 174.596 40.1153 172.964 39.8987L172.701 41.8813C174.384 42.1047 175.832 42.22 177.035 42.22V40.22ZM173.833 40.89V38.756H171.833V40.89H173.833ZM172.683 39.7448C174.717 40.0521 176.202 40.218 177.079 40.218V38.218C176.371 38.218 175.025 38.0759 172.982 37.7672L172.683 39.7448ZM177.079 40.218C177.785 40.218 178.444 40.1538 178.953 39.9455L178.196 38.0945C178.06 38.1502 177.722 38.218 177.079 38.218V40.218ZM178.953 39.9455C179.262 39.8192 179.558 39.6119 179.77 39.2942C179.981 38.9771 180.059 38.6254 180.059 38.294H178.059C178.059 38.3146 178.055 38.2599 178.105 38.1848C178.156 38.109 178.21 38.0888 178.196 38.0945L178.953 39.9455ZM180.059 38.294V37.634H178.059V38.294H180.059ZM180.059 37.634C180.059 37.0993 179.905 36.4595 179.332 36.0503L178.169 37.6777C178.139 37.6562 178.112 37.6299 178.091 37.6015C178.069 37.5738 178.058 37.5505 178.053 37.5379C178.044 37.5164 178.059 37.5386 178.059 37.634H180.059ZM179.368 36.0777C179.091 35.86 178.766 35.7571 178.49 35.7019C178.202 35.6442 177.88 35.622 177.541 35.622V37.622C177.803 37.622 177.983 37.6401 178.098 37.6631C178.225 37.6885 178.204 37.7066 178.133 37.6503L179.368 36.0777ZM177.541 35.622H176.155V37.622H177.541V35.622ZM176.155 35.622C175.137 35.622 174.499 35.4208 174.118 35.1483L172.955 36.7757C173.806 37.3832 174.914 37.622 176.155 37.622V35.622ZM174.13 35.1574C173.806 34.9178 173.613 34.5774 173.613 33.982H171.613C171.613 35.1173 172.035 36.0969 172.943 36.7666L174.13 35.1574ZM173.613 33.982V32.684H171.613V33.982H173.613ZM173.613 32.684C173.613 32.3858 173.681 32.1945 173.772 32.0605C173.864 31.9239 174.027 31.775 174.33 31.6436L173.535 29.8084C172.958 30.0583 172.461 30.4264 172.113 30.9425C171.764 31.4611 171.613 32.0582 171.613 32.684H173.613ZM174.343 31.6379C175.027 31.3302 176.182 31.132 177.915 31.132V29.132C176.097 29.132 174.598 29.3298 173.522 29.8141L174.343 31.6379ZM177.915 31.132C178.578 31.132 179.805 31.1952 181.626 31.3274L181.771 29.3326C179.954 29.2008 178.659 29.132 177.915 29.132V31.132ZM180.699 30.33V32.376H182.699V30.33H180.699ZM181.775 31.3789C179.516 31.2052 178.17 31.112 177.827 31.112V33.112C178.07 33.112 179.305 33.1948 181.622 33.3731L181.775 31.3789ZM177.827 31.112C177.375 31.112 176.98 31.1271 176.651 31.1614C176.344 31.1932 176.008 31.2492 175.726 31.3742L176.539 33.2018C176.521 33.2095 176.599 33.1775 176.857 33.1506C177.093 33.1262 177.413 33.112 177.827 33.112V31.112ZM175.642 31.4164C174.995 31.7804 174.781 32.4287 174.781 33.014H176.781C176.781 32.9443 176.793 32.9545 176.768 33.0048C176.756 33.0312 176.735 33.0625 176.707 33.093C176.678 33.1235 176.648 33.1453 176.623 33.1596L175.642 31.4164ZM174.781 33.014V33.586H176.781V33.014H174.781ZM174.781 33.586C174.781 34.1668 175.091 34.6032 175.457 34.8846L176.676 33.2994C176.662 33.2886 176.69 33.3066 176.723 33.3634C176.758 33.4267 176.781 33.506 176.781 33.586H174.781ZM175.497 34.9142C175.927 35.2115 176.441 35.29 176.903 35.29V33.29C176.776 33.29 176.695 33.2784 176.649 33.2674C176.603 33.2566 176.608 33.2503 176.636 33.2698L175.497 34.9142ZM176.903 35.29H178.311V33.29H176.903V35.29ZM178.311 35.29C179.539 35.29 180.287 35.496 180.702 35.7658C181.041 35.9873 181.227 36.2925 181.227 36.842H183.227C183.227 35.6902 182.759 34.7194 181.794 34.0902C180.902 33.5094 179.693 33.29 178.311 33.29V35.29ZM181.227 36.842V38.184H183.227V36.842H181.227ZM181.227 38.184C181.227 38.5734 181.155 38.8618 181.046 39.0788L182.835 39.9732C183.108 39.4275 183.227 38.8213 183.227 38.184H181.227ZM181.046 39.0788C180.919 39.3329 180.771 39.5005 180.611 39.6143L181.774 41.2417C182.231 40.9155 182.581 40.4818 182.835 39.9732L181.046 39.0788ZM180.619 39.6088C180.454 39.7241 180.196 39.8444 179.806 39.9419L180.291 41.8821C180.84 41.7449 181.344 41.5425 181.766 41.2472L180.619 39.6088ZM179.799 39.9437C179.4 40.0465 178.978 40.1184 178.531 40.1579L178.706 42.1501C179.256 42.1016 179.787 42.0122 180.298 41.8803L179.799 39.9437ZM178.522 40.1586C178.108 40.1988 177.613 40.22 177.035 40.22V42.22C177.659 42.22 178.22 42.1972 178.715 42.1493L178.522 40.1586ZM194.433 41.11L194.318 42.1033L194.433 41.11ZM192.563 40.736L192.838 39.7745L192.83 39.772L192.821 39.7698L192.563 40.736ZM190.935 40.032L190.349 40.8419L190.358 40.8487L190.368 40.8552L190.935 40.032ZM189.901 38.844L189.012 39.3013L189.018 39.3122L189.024 39.3229L189.901 38.844ZM189.945 29.208L190.835 29.6643L190.84 29.6552L189.945 29.208ZM191.133 27.822L190.585 26.9859L190.573 26.9937L191.133 27.822ZM192.805 27.03L192.489 26.0813L192.483 26.0835L192.805 27.03ZM194.741 26.59L194.631 25.5961L194.626 25.5967L194.741 26.59ZM202.463 26.964H203.463V26.1169L202.628 25.9776L202.463 26.964ZM202.463 29.56L202.229 30.5321L203.463 30.8301V29.56H202.463ZM193.927 38.338L193.521 39.2518L193.529 39.2551L193.927 38.338ZM199.273 38.448L199.532 39.4139L200.273 39.2154V38.448H199.273ZM199.273 35.126H200.273V34.126H199.273V35.126ZM196.941 35.126H195.941V36.126H196.941V35.126ZM196.941 32.882V31.882H195.941V32.882H196.941ZM202.551 32.882H203.551V31.882H202.551V32.882ZM202.551 40.296L202.89 41.2369L203.551 40.9988V40.296H202.551ZM199.735 40.956L199.583 39.9676L199.581 39.9679L199.735 40.956ZM196.611 40.22C195.818 40.22 195.132 40.1845 194.549 40.1167L194.318 42.1033C194.996 42.1822 195.762 42.22 196.611 42.22V40.22ZM194.549 40.1167C193.973 40.0497 193.403 39.9357 192.838 39.7745L192.289 41.6975C192.956 41.8883 193.633 42.0237 194.318 42.1033L194.549 40.1167ZM192.821 39.7698C192.238 39.6144 191.809 39.4198 191.503 39.2088L190.368 40.8552C190.912 41.2308 191.569 41.5056 192.306 41.7022L192.821 39.7698ZM191.522 39.2221C191.223 39.0057 190.976 38.7252 190.779 38.3651L189.024 39.3229C189.355 39.9308 189.797 40.4423 190.349 40.8419L191.522 39.2221ZM190.791 38.3867C190.609 38.0339 190.505 37.6079 190.505 37.084H188.505C188.505 37.8801 188.666 38.6275 189.012 39.3013L190.791 38.3867ZM190.505 37.084V31.144H188.505V37.084H190.505ZM190.505 31.144C190.505 30.5651 190.623 30.0792 190.835 29.6643L189.056 28.7517C188.682 29.4808 188.505 30.2856 188.505 31.144H190.505ZM190.84 29.6552C191.063 29.208 191.35 28.8829 191.694 28.6503L190.573 26.9937C189.92 27.4358 189.414 28.0346 189.051 28.7608L190.84 29.6552ZM191.682 28.658C192.068 28.4049 192.546 28.1749 193.128 27.9765L192.483 26.0835C191.774 26.3251 191.138 26.6231 190.585 26.986L191.682 28.658ZM193.122 27.9787C193.723 27.7784 194.301 27.648 194.857 27.5833L194.626 25.5967C193.921 25.6787 193.208 25.8416 192.489 26.0813L193.122 27.9787ZM194.852 27.5839C195.332 27.5306 195.931 27.502 196.655 27.502V25.502C195.884 25.502 195.207 25.5321 194.631 25.5961L194.852 27.5839ZM196.655 27.502C198.629 27.502 200.51 27.6521 202.299 27.9504L202.628 25.9776C200.721 25.6599 198.73 25.502 196.655 25.502V27.502ZM201.463 26.964V29.56H203.463V26.964H201.463ZM202.698 28.5879C200.904 28.1549 198.887 27.944 196.655 27.944V29.944C198.765 29.944 200.62 30.1438 202.229 30.5321L202.698 28.5879ZM196.655 27.944C195.352 27.944 194.212 28.1272 193.365 28.6179C192.436 29.1569 191.937 30.0262 191.937 31.1H193.937C193.937 30.7365 194.059 30.5278 194.369 30.3481C194.762 30.1202 195.48 29.944 196.655 29.944V27.944ZM191.937 31.1V36.842H193.937V31.1H191.937ZM191.937 36.842C191.937 37.3548 192.06 37.8556 192.351 38.2959C192.641 38.7345 193.054 39.044 193.521 39.2518L194.334 37.4242C194.141 37.3387 194.059 37.2522 194.019 37.1921C193.98 37.1338 193.937 37.0332 193.937 36.842H191.937ZM193.529 39.2551C194.394 39.6314 195.572 39.778 196.963 39.778V37.778C195.656 37.778 194.81 37.6313 194.326 37.4209L193.529 39.2551ZM196.963 39.778C197.784 39.778 198.641 39.6525 199.532 39.4139L199.015 37.4821C198.263 37.6835 197.581 37.778 196.963 37.778V39.778ZM200.273 38.448V35.126H198.273V38.448H200.273ZM199.273 34.126H196.941V36.126H199.273V34.126ZM197.941 35.126V32.882H195.941V35.126H197.941ZM196.941 33.882H202.551V31.882H196.941V33.882ZM201.551 32.882V40.296H203.551V32.882H201.551ZM202.213 39.3551C201.561 39.5896 200.691 39.7972 199.583 39.9676L199.887 41.9444C201.068 41.7628 202.075 41.5304 202.89 41.2369L202.213 39.3551ZM199.581 39.9679C198.493 40.1375 197.504 40.22 196.611 40.22V42.22C197.625 42.22 198.719 42.1265 199.889 41.9441L199.581 39.9679ZM205.963 40.956L205.597 41.8864L205.613 41.893L205.63 41.899L205.963 40.956ZM204.929 39.966L203.999 40.3325L204.006 40.3498L204.013 40.3668L204.929 39.966ZM204.951 35.808L204.041 35.3942L204.036 35.4058L204.031 35.4174L204.951 35.808ZM205.985 34.774L206.386 35.6902L206.392 35.6873L206.399 35.6844L205.985 34.774ZM211.573 34.444V35.444H212.573V34.444H211.573ZM211.375 32.706L210.493 33.1766L210.505 33.1989L210.518 33.2205L211.375 32.706ZM210.693 32.244L210.43 33.2088L210.441 33.2116L210.693 32.244ZM205.479 32.376H204.479V33.4933L205.59 33.3699L205.479 32.376ZM205.479 30.352L205.354 29.3599L204.479 29.4706V30.352H205.479ZM212.695 30.44L212.426 31.403L212.43 31.4043L212.695 30.44ZM214.301 31.496L213.462 32.0393V32.0393L214.301 31.496ZM214.785 41V42H215.785V41H214.785ZM211.639 41H210.639V42H211.639V41ZM211.639 40.032H212.639V36.3487L210.776 39.5263L211.639 40.032ZM210.627 40.934L210.245 40.01L210.231 40.0155L210.218 40.0215L210.627 40.934ZM210.847 39.152L210.706 38.1621L210.698 38.1631L210.691 38.1642L210.847 39.152ZM211.265 39.02L210.71 38.1879L210.674 38.212L210.64 38.2391L211.265 39.02ZM211.485 38.734L210.617 38.2379L210.592 38.2817L210.571 38.3279L211.485 38.734ZM211.573 36.204H212.573V35.204H211.573V36.204ZM208.317 36.314L208.592 37.2755L208.623 37.2666L208.653 37.2557L208.317 36.314ZM207.899 36.71L208.833 37.069L208.837 37.0577L208.841 37.0463L207.899 36.71ZM207.899 38.756L208.833 38.397L207.899 38.756ZM208.317 39.13L208.042 40.0915L208.051 40.094L208.059 40.0962L208.317 39.13ZM208.207 40.22C207.241 40.22 206.631 40.1313 206.296 40.013L205.63 41.899C206.293 42.1327 207.178 42.22 208.207 42.22V40.22ZM206.33 40.0256C206.087 39.9302 205.943 39.7881 205.845 39.5652L204.013 40.3668C204.326 41.0826 204.871 41.6005 205.597 41.8864L206.33 40.0256ZM205.86 39.5995C205.739 39.2922 205.643 38.7246 205.643 37.81H203.643C203.643 38.8021 203.738 39.6718 203.999 40.3325L205.86 39.5995ZM205.643 37.81C205.643 37.0206 205.741 36.506 205.872 36.1985L204.031 35.4174C203.75 36.078 203.643 36.8981 203.643 37.81H205.643ZM205.862 36.2218C205.984 35.953 206.152 35.7926 206.386 35.6902L205.584 33.8578C204.88 34.1661 204.359 34.695 204.041 35.3942L205.862 36.2218ZM206.399 35.6844C206.7 35.5476 207.199 35.444 207.965 35.444V33.444C207.059 33.444 206.238 33.5604 205.571 33.8636L206.399 35.6844ZM207.965 35.444H211.573V33.444H207.965V35.444ZM212.573 34.444V33.718H210.573V34.444H212.573ZM212.573 33.718C212.573 33.2033 212.505 32.6455 212.233 32.1915L210.518 33.2205C210.508 33.2036 210.524 33.2249 210.542 33.316C210.56 33.405 210.573 33.5358 210.573 33.718H212.573ZM212.258 32.2354C211.963 31.6836 211.442 31.406 210.946 31.2764L210.441 33.2116C210.483 33.2227 210.513 33.2334 210.532 33.2415C210.551 33.2496 210.557 33.2545 210.556 33.2534C210.554 33.2521 210.544 33.2452 210.531 33.2311C210.518 33.2166 210.504 33.1981 210.493 33.1766L212.258 32.2354ZM210.956 31.2792C210.5 31.1549 209.899 31.112 209.219 31.112V33.112C209.859 33.112 210.241 33.1571 210.43 33.2088L210.956 31.2792ZM209.219 31.112C208.255 31.112 206.967 31.2046 205.369 31.3821L205.59 33.3699C207.16 33.1954 208.364 33.112 209.219 33.112V31.112ZM206.479 32.376V30.352H204.479V32.376H206.479ZM205.605 31.3441C206.711 31.2041 208.024 31.132 209.549 31.132V29.132C207.965 29.132 206.565 29.2066 205.354 29.3599L205.605 31.3441ZM209.549 31.132C210.882 31.132 211.823 31.2343 212.426 31.403L212.965 29.477C212.1 29.235 210.945 29.132 209.549 29.132V31.132ZM212.43 31.4043C213.016 31.565 213.309 31.8033 213.462 32.0393L215.141 30.9527C214.648 30.1914 213.871 29.7257 212.96 29.4757L212.43 31.4043ZM213.462 32.0393C213.634 32.3055 213.785 32.8073 213.785 33.674H215.785C215.785 32.6341 215.614 31.6839 215.141 30.9527L213.462 32.0393ZM213.785 33.674V41H215.785V33.674H213.785ZM214.785 40H211.639V42H214.785V40ZM212.639 41V40.032H210.639V41H212.639ZM210.776 39.5263C210.629 39.7778 210.454 39.9234 210.245 40.01L211.01 41.858C211.651 41.5926 212.151 41.1369 212.502 40.5377L210.776 39.5263ZM210.218 40.0215C210.142 40.0556 209.951 40.1122 209.586 40.1554C209.235 40.1969 208.778 40.22 208.207 40.22V42.22C208.824 42.22 209.365 42.1954 209.821 42.1416C210.262 42.0895 210.687 42.0031 211.036 41.8465L210.218 40.0215ZM209.461 40.218C210.11 40.218 210.64 40.1971 211.003 40.1398L210.691 38.1642C210.497 38.1949 210.103 38.218 209.461 38.218V40.218ZM210.989 40.1419C211.205 40.1111 211.587 40.0429 211.89 39.8009L210.64 38.2391C210.693 38.1967 210.738 38.1726 210.763 38.1607C210.788 38.1485 210.804 38.1436 210.805 38.1434C210.806 38.143 210.799 38.1453 210.781 38.1491C210.763 38.1529 210.739 38.1574 210.706 38.1621L210.989 40.1419ZM211.82 39.8521C212.113 39.6565 212.291 39.384 212.399 39.1401L210.571 38.3279C210.562 38.348 210.593 38.2662 210.71 38.1879L211.82 39.8521ZM212.353 39.2301C212.541 38.9025 212.573 38.5398 212.573 38.272H210.573C210.573 38.2998 210.572 38.3206 210.571 38.335C210.57 38.3496 210.569 38.3556 210.569 38.3544C210.569 38.3533 210.571 38.342 210.578 38.3231C210.584 38.3041 210.596 38.2742 210.617 38.2379L212.353 39.2301ZM212.573 38.272V36.204H210.573V38.272H212.573ZM211.573 35.204H209.373V37.204H211.573V35.204ZM209.373 35.204C208.869 35.204 208.363 35.2356 207.981 35.3723L208.653 37.2557C208.649 37.2573 208.7 37.2406 208.839 37.2261C208.97 37.2125 209.146 37.204 209.373 37.204V35.204ZM208.042 35.3525C207.519 35.5019 207.137 35.8721 206.957 36.3737L208.841 37.0463C208.832 37.0714 208.806 37.127 208.746 37.183C208.687 37.2395 208.626 37.2657 208.592 37.2755L208.042 35.3525ZM206.966 36.351C206.819 36.7339 206.789 37.2497 206.789 37.744H208.789C208.789 37.5161 208.798 37.343 208.811 37.2173C208.826 37.0804 208.841 37.0459 208.833 37.069L206.966 36.351ZM206.789 37.744C206.789 38.228 206.819 38.7338 206.966 39.115L208.833 38.397C208.841 38.4179 208.825 38.3833 208.811 38.2519C208.798 38.1307 208.789 37.9637 208.789 37.744H206.789ZM206.966 39.115C207.158 39.614 207.551 39.9512 208.042 40.0915L208.592 38.1685C208.614 38.1748 208.667 38.1953 208.725 38.2473C208.785 38.3003 208.818 38.3583 208.833 38.397L206.966 39.115ZM208.059 40.0962C208.419 40.1921 208.918 40.218 209.461 40.218V38.218C208.919 38.218 208.655 38.1853 208.575 38.1638L208.059 40.0962ZM217.611 30.352V29.352H216.611V30.352H217.611ZM220.823 30.352H221.823V29.352H220.823V30.352ZM220.823 31.65H219.823L221.803 31.8488L220.823 31.65ZM226.235 30.528L225.778 31.4173L225.788 31.4225L225.798 31.4275L226.235 30.528ZM227.269 31.716L226.318 32.0245L227.282 34.9966L228.223 32.0171L227.269 31.716ZM228.281 30.506L227.844 29.6064L227.834 29.6116L228.281 30.506ZM232.725 30.462L232.321 31.3769L232.333 31.3819L232.344 31.3867L232.725 30.462ZM233.759 31.43L232.842 31.8276L232.847 31.8403L232.853 31.8529L233.759 31.43ZM234.067 41V42H235.067V41H234.067ZM230.855 41H229.855V42H230.855V41ZM230.767 32.64L229.806 32.9147L229.808 32.9244L229.811 32.9341L230.767 32.64ZM230.371 32.222L230.012 33.1553L230.023 33.1597L230.035 33.1637L230.371 32.222ZM228.061 32.222L227.793 31.2585L227.786 31.2605L227.779 31.2626L228.061 32.222ZM227.555 32.64L226.636 32.2461L226.629 32.2634L226.622 32.281L227.555 32.64ZM227.445 41V42H228.445V41H227.445ZM224.233 41H223.233V42H224.233V41ZM224.145 32.64L223.184 32.9147L223.186 32.9244L223.189 32.9341L224.145 32.64ZM223.749 32.222L223.39 33.1553L223.401 33.1597L223.413 33.1637L223.749 32.222ZM221.439 32.222L221.171 31.2585L221.164 31.2605L221.157 31.2626L221.439 32.222ZM220.933 32.64L220.014 32.2461L220.007 32.2634L220 32.281L220.933 32.64ZM220.823 41V42H221.823V41H220.823ZM217.611 41H216.611V42H217.611V41ZM217.611 31.352H220.823V29.352H217.611V31.352ZM219.823 30.352V31.65H221.823V30.352H219.823ZM221.803 31.8488C221.835 31.6912 221.914 31.5491 222.198 31.4121C222.528 31.253 223.09 31.132 223.969 31.132V29.132C222.956 29.132 222.048 29.264 221.329 29.6109C220.564 29.9799 220.016 30.5968 219.843 31.4512L221.803 31.8488ZM223.969 31.132C224.908 31.132 225.474 31.2611 225.778 31.4173L226.692 29.6387C225.97 29.2669 225.025 29.132 223.969 29.132V31.132ZM225.798 31.4275C226.067 31.558 226.226 31.7407 226.318 32.0245L228.22 31.4075C227.96 30.606 227.43 29.9966 226.672 29.6285L225.798 31.4275ZM228.223 32.0171C228.322 31.704 228.485 31.5223 228.728 31.4004L227.834 29.6116C227.08 29.9884 226.569 30.6133 226.316 31.4149L228.223 32.0171ZM228.718 31.4055C229.026 31.2559 229.613 31.132 230.591 31.132V29.132C229.516 29.132 228.563 29.2574 227.844 29.6065L228.718 31.4055ZM230.591 31.132C231.46 31.132 232.009 31.239 232.321 31.3769L233.129 29.5471C232.444 29.245 231.571 29.132 230.591 29.132V31.132ZM232.344 31.3867C232.635 31.5063 232.768 31.657 232.842 31.8276L234.677 31.0324C234.369 30.323 233.813 29.8284 233.106 29.5373L232.344 31.3867ZM232.853 31.8529C232.973 32.1104 233.067 32.535 233.067 33.19H235.067C235.067 32.3783 234.956 31.6296 234.665 31.0071L232.853 31.8529ZM233.067 33.19V41H235.067V33.19H233.067ZM234.067 40H230.855V42H234.067V40ZM231.855 41V33.63H229.855V41H231.855ZM231.855 33.63C231.855 33.1591 231.83 32.6942 231.723 32.3459L229.811 32.9341C229.811 32.9332 229.825 32.9845 229.837 33.119C229.848 33.2453 229.855 33.4138 229.855 33.63H231.855ZM231.729 32.3653C231.579 31.8421 231.209 31.4594 230.707 31.2803L230.035 33.1637C230.01 33.1548 229.954 33.1284 229.898 33.0692C229.842 33.0095 229.815 32.949 229.806 32.9147L231.729 32.3653ZM230.73 31.2887C230.349 31.1421 229.843 31.112 229.359 31.112V33.112C229.579 33.112 229.746 33.1205 229.867 33.1336C229.998 33.1479 230.033 33.1634 230.012 33.1553L230.73 31.2887ZM229.359 31.112C228.749 31.112 228.198 31.146 227.793 31.2585L228.329 33.1855C228.452 33.1513 228.767 33.112 229.359 33.112V31.112ZM227.779 31.2626C227.296 31.4048 226.861 31.7204 226.636 32.2461L228.474 33.0339C228.457 33.0744 228.426 33.1185 228.385 33.1525C228.347 33.1835 228.324 33.1869 228.343 33.1814L227.779 31.2626ZM226.622 32.281C226.476 32.6603 226.445 33.1562 226.445 33.63H228.445C228.445 33.4185 228.454 33.2577 228.467 33.1409C228.48 33.0151 228.496 32.9805 228.488 32.999L226.622 32.281ZM226.445 33.63V41H228.445V33.63H226.445ZM227.445 40H224.233V42H227.445V40ZM225.233 41V33.63H223.233V41H225.233ZM225.233 33.63C225.233 33.1591 225.208 32.6942 225.101 32.3459L223.189 32.9341C223.189 32.9332 223.203 32.9845 223.215 33.119C223.226 33.2453 223.233 33.4138 223.233 33.63H225.233ZM225.107 32.3653C224.957 31.8421 224.587 31.4594 224.085 31.2803L223.413 33.1637C223.388 33.1548 223.332 33.1284 223.276 33.0692C223.22 33.0095 223.193 32.949 223.184 32.9147L225.107 32.3653ZM224.108 31.2887C223.727 31.1421 223.221 31.112 222.737 31.112V33.112C222.957 33.112 223.124 33.1205 223.245 33.1336C223.376 33.1479 223.411 33.1634 223.39 33.1553L224.108 31.2887ZM222.737 31.112C222.127 31.112 221.576 31.146 221.171 31.2585L221.707 33.1855C221.83 33.1513 222.145 33.112 222.737 33.112V31.112ZM221.157 31.2626C220.674 31.4048 220.239 31.7204 220.014 32.2461L221.852 33.0339C221.835 33.0744 221.804 33.1185 221.763 33.1525C221.725 33.1835 221.702 33.1869 221.721 33.1814L221.157 31.2626ZM220 32.281C219.854 32.6603 219.823 33.1562 219.823 33.63H221.823C221.823 33.4185 221.832 33.2577 221.845 33.1409C221.858 33.0151 221.874 32.9805 221.866 32.999L220 32.281ZM219.823 33.63V41H221.823V33.63H219.823ZM220.823 40H217.611V42H220.823V40ZM218.611 41V30.352H216.611V41H218.611ZM237.851 31.034L237.28 30.2128L237.273 30.2174L237.851 31.034ZM245.529 31.012L244.926 31.8102L244.935 31.8165L244.943 31.8227L245.529 31.012ZM246.717 36.534V37.534H247.717V36.534H246.717ZM239.809 36.534V35.534H238.809V36.534H239.809ZM240.469 38.822L240.983 37.9645V37.9645L240.469 38.822ZM246.409 38.756H247.409V37.4958L246.181 37.7822L246.409 38.756ZM246.409 40.802L246.617 41.78L247.409 41.611V40.802H246.409ZM243.659 34.708V35.708H244.659V34.708H243.659ZM243.219 32.376L242.685 33.2215L242.694 33.2276L242.704 33.2335L243.219 32.376ZM240.227 32.376L239.672 31.5439L239.662 31.5507L240.227 32.376ZM239.809 34.708H238.809V35.708H239.809V34.708ZM242.229 40.22C240.413 40.22 239.219 39.9369 238.509 39.5031C237.88 39.1183 237.575 38.587 237.575 37.766H235.575C235.575 39.2477 236.212 40.4433 237.467 41.2099C238.641 41.9274 240.275 42.22 242.229 42.22V40.22ZM237.575 37.766V33.938H235.575V37.766H237.575ZM237.575 33.938C237.575 32.8265 237.916 32.2127 238.428 31.8506L237.273 30.2174C236.084 31.058 235.575 32.3802 235.575 33.938H237.575ZM238.421 31.8552C239.038 31.4264 240.12 31.132 241.833 31.132V29.132C239.967 29.132 238.394 29.439 237.28 30.2128L238.421 31.8552ZM241.833 31.132C243.444 31.132 244.409 31.4201 244.926 31.8102L246.131 30.2138C245.093 29.4306 243.594 29.132 241.833 29.132V31.132ZM244.943 31.8227C245.378 32.137 245.717 32.7393 245.717 33.938H247.717C247.717 32.3794 247.263 31.031 246.114 30.2013L244.943 31.8227ZM245.717 33.938V36.534H247.717V33.938H245.717ZM246.717 35.534H239.809V37.534H246.717V35.534ZM238.809 36.534V37.502H240.809V36.534H238.809ZM238.809 37.502C238.809 38.3867 239.148 39.196 239.954 39.6795L240.983 37.9645C240.909 37.92 240.809 37.8493 240.809 37.502H238.809ZM239.954 39.6795C240.65 40.0972 241.692 40.218 242.845 40.218V38.218C241.709 38.218 241.167 38.0748 240.983 37.9645L239.954 39.6795ZM242.845 40.218C243.995 40.218 245.261 40.0506 246.636 39.7298L246.181 37.7822C244.916 38.0774 243.806 38.218 242.845 38.218V40.218ZM245.409 38.756V40.802H247.409V38.756H245.409ZM246.2 39.824C244.97 40.0866 243.647 40.22 242.229 40.22V42.22C243.773 42.22 245.236 42.0748 246.617 41.78L246.2 39.824ZM244.659 34.708V33.168H242.659V34.708H244.659ZM244.659 33.168C244.659 32.4772 244.338 31.8816 243.733 31.5185L242.704 33.2335C242.714 33.2396 242.712 33.2398 242.704 33.2316C242.695 33.2229 242.684 33.2093 242.674 33.1916C242.665 33.1741 242.66 33.1596 242.658 33.1521C242.657 33.1453 242.659 33.1494 242.659 33.168H244.659ZM243.753 31.5305C243.218 31.1928 242.491 31.112 241.789 31.112V33.112C242.087 33.112 242.31 33.1318 242.471 33.1614C242.637 33.1922 242.691 33.2255 242.685 33.2215L243.753 31.5305ZM241.789 31.112C241.368 31.112 240.983 31.1354 240.648 31.192C240.33 31.2459 239.974 31.3427 239.672 31.5439L240.781 33.208C240.743 33.2333 240.78 33.1981 240.982 33.164C241.168 33.1326 241.432 33.112 241.789 33.112V31.112ZM239.662 31.5507C239.111 31.9275 238.809 32.5002 238.809 33.168H240.809C240.809 33.1527 240.81 33.1491 240.809 33.1545C240.808 33.1603 240.804 33.1711 240.798 33.1838C240.791 33.1964 240.784 33.2052 240.78 33.2095C240.776 33.2135 240.778 33.2101 240.791 33.2013L239.662 31.5507ZM238.809 33.168V34.708H240.809V33.168H238.809ZM239.809 35.708H243.659V33.708H239.809V35.708ZM253.934 40.824H252.934V41.7012L253.804 41.8155L253.934 40.824ZM253.934 38.206L254.085 37.2175L252.934 37.0414V38.206H253.934ZM261.48 35.302L260.793 36.029L260.803 36.0383L260.813 36.0472L261.48 35.302ZM255.21 27.382L255.701 28.2532L255.21 27.382ZM264.626 26.788H265.626V25.8881L264.731 25.7935L264.626 26.788ZM264.626 29.34L264.508 30.333L265.626 30.4663V29.34H264.626ZM257.718 29.23L257.284 28.329L257.283 28.3294L257.718 29.23ZM264.23 33.234L263.596 34.0073L264.23 33.234ZM263.504 40.384L263.061 39.4874L263.05 39.4929L263.039 39.4986L263.504 40.384ZM261.546 41.022L261.385 40.0351L261.373 40.037L261.362 40.0391L261.546 41.022ZM258.994 40.22C257.689 40.22 256.049 40.0933 254.064 39.8325L253.804 41.8155C255.838 42.0827 257.571 42.22 258.994 42.22V40.22ZM254.934 40.824V38.206H252.934V40.824H254.934ZM253.783 39.1945C256.268 39.5746 258.042 39.778 259.038 39.778V37.778C258.216 37.778 256.587 37.6001 254.085 37.2175L253.783 39.1945ZM259.038 39.778C260.045 39.778 260.952 39.6537 261.641 39.2984C262 39.1132 262.326 38.8521 262.559 38.492C262.795 38.127 262.898 37.7186 262.898 37.304H260.898C260.898 37.3808 260.882 37.4022 260.88 37.4058C260.874 37.4142 260.842 37.4601 260.725 37.5206C260.461 37.6566 259.938 37.778 259.038 37.778V39.778ZM262.898 37.304V36.38H260.898V37.304H262.898ZM262.898 36.38C262.898 35.7041 262.689 35.0422 262.147 34.5568L260.813 36.0472C260.828 36.0605 260.898 36.1172 260.898 36.38H262.898ZM262.167 34.575C261.606 34.046 260.778 33.928 260.028 33.928V35.928C260.327 35.928 260.535 35.9551 260.67 35.9899C260.806 36.0252 260.822 36.056 260.793 36.029L262.167 34.575ZM260.028 33.928H258.356V35.928H260.028V33.928ZM258.356 33.928C256.892 33.928 255.979 33.6328 255.447 33.21C254.959 32.822 254.648 32.2115 254.648 31.188H252.648C252.648 32.6578 253.122 33.9173 254.203 34.776C255.24 35.5998 256.681 35.928 258.356 35.928V33.928ZM254.648 31.188V30.132H252.648V31.188H254.648ZM254.648 30.132C254.648 29.2272 254.99 28.6535 255.701 28.2532L254.719 26.5108C253.347 27.2839 252.648 28.5435 252.648 30.132H254.648ZM255.701 28.2532C256.511 27.7971 257.945 27.502 260.16 27.502V25.502C257.857 25.502 255.992 25.7936 254.719 26.5108L255.701 28.2532ZM260.16 27.502C261.285 27.502 262.735 27.5937 264.521 27.7825L264.731 25.7935C262.909 25.6009 261.382 25.502 260.16 25.502V27.502ZM263.626 26.788V29.34H265.626V26.788H263.626ZM264.744 28.347C262.534 28.0836 260.953 27.944 260.05 27.944V29.944C260.819 29.944 262.288 30.0684 264.508 30.333L264.744 28.347ZM260.05 27.944C259.447 27.944 258.919 27.9686 258.476 28.0229C258.05 28.0752 257.629 28.163 257.284 28.329L258.152 30.131C258.203 30.1063 258.369 30.0511 258.72 30.0081C259.054 29.9671 259.494 29.944 260.05 29.944V27.944ZM257.283 28.3294C256.944 28.4932 256.63 28.7334 256.405 29.0757C256.176 29.4222 256.08 29.8103 256.08 30.198H258.08C258.08 30.1688 258.083 30.1574 258.083 30.1586C258.083 30.1608 258.08 30.1682 258.074 30.1763C258.069 30.1841 258.068 30.1837 258.076 30.1764C258.086 30.1684 258.109 30.1516 258.153 30.1306L257.283 28.3294ZM256.08 30.198V31.21H258.08V30.198H256.08ZM256.08 31.21C256.08 31.9283 256.416 32.5401 257.043 32.9116C257.587 33.2345 258.275 33.332 258.972 33.332V31.332C258.407 31.332 258.149 31.2425 258.063 31.1914C258.035 31.1747 258.051 31.1779 258.07 31.2109C258.088 31.243 258.08 31.2535 258.08 31.21H256.08ZM258.972 33.332H260.688V31.332H258.972V33.332ZM260.688 33.332C262.235 33.332 263.131 33.6258 263.596 34.0073L264.864 32.4607C263.863 31.6396 262.397 31.332 260.688 31.332V33.332ZM263.596 34.0073C264.032 34.3649 264.33 34.955 264.33 35.984H266.33C266.33 34.549 265.895 33.3057 264.864 32.4607L263.596 34.0073ZM264.33 35.984V36.93H266.33V35.984H264.33ZM264.33 36.93C264.33 38.3662 263.845 39.1003 263.061 39.4874L263.947 41.2806C265.598 40.465 266.33 38.8964 266.33 36.93H264.33ZM263.039 39.4986C262.557 39.752 262.008 39.9333 261.385 40.0351L261.707 42.0089C262.521 41.876 263.278 41.632 263.969 41.2694L263.039 39.4986ZM261.362 40.0391C260.737 40.1563 259.952 40.22 258.994 40.22V42.22C260.031 42.22 260.947 42.1517 261.73 42.0049L261.362 40.0391ZM271.544 41.154L271.663 40.1611L271.544 41.154ZM270.444 40.89L270.783 39.9491L270.766 39.9433L270.75 39.938L270.444 40.89ZM269.432 40.34L268.746 41.0682L268.757 41.078L268.767 41.0874L269.432 40.34ZM268.816 39.372L269.747 39.0063L269.743 38.998L269.74 38.9896L268.816 39.372ZM268.552 32.332H269.552V31.332H268.552V32.332ZM266.396 32.332H265.396V33.332H266.396V32.332ZM266.396 30.352V29.352H265.396V30.352H266.396ZM268.552 30.352V31.352H269.552V30.352H268.552ZM268.552 27.272V26.272H267.552V27.272H268.552ZM271.764 27.272H272.764V26.272H271.764V27.272ZM271.764 30.352H270.764V31.352H271.764V30.352ZM274.69 30.352H275.69V29.352H274.69V30.352ZM274.69 32.332V33.332H275.69V32.332H274.69ZM271.764 32.332V31.332H270.764V32.332H271.764ZM271.896 38.514L270.947 38.8302L270.95 38.8385L270.953 38.8468L271.896 38.514ZM272.402 39.064L271.976 39.9688L271.998 39.9793L272.021 39.9887L272.402 39.064ZM274.69 39.108H275.69V37.9678L274.559 38.1165L274.69 39.108ZM274.69 41.11L274.796 42.1044L275.69 42.0093V41.11H274.69ZM272.908 40.22C272.388 40.22 271.976 40.1987 271.663 40.1611L271.425 42.1469C271.844 42.1973 272.342 42.22 272.908 42.22V40.22ZM271.663 40.1611C271.375 40.1266 271.082 40.057 270.783 39.9491L270.105 41.8309C270.539 41.987 270.979 42.0934 271.425 42.1469L271.663 40.1611ZM270.75 39.938C270.443 39.8393 270.236 39.7168 270.096 39.5926L268.767 41.0874C269.156 41.4325 269.623 41.6767 270.138 41.842L270.75 39.938ZM270.117 39.6118C270.002 39.5032 269.869 39.3178 269.747 39.0063L267.885 39.7377C268.085 40.2476 268.363 40.7075 268.746 41.0682L270.117 39.6118ZM269.74 38.9896C269.623 38.7082 269.552 38.3511 269.552 37.898H267.552C267.552 38.5596 267.656 39.1851 267.892 39.7544L269.74 38.9896ZM269.552 37.898V32.332H267.552V37.898H269.552ZM268.552 31.332H266.396V33.332H268.552V31.332ZM267.396 32.332V30.352H265.396V32.332H267.396ZM266.396 31.352H268.552V29.352H266.396V31.352ZM269.552 30.352V27.272H267.552V30.352H269.552ZM268.552 28.272H271.764V26.272H268.552V28.272ZM270.764 27.272V30.352H272.764V27.272H270.764ZM271.764 31.352H274.69V29.352H271.764V31.352ZM273.69 30.352V32.332H275.69V30.352H273.69ZM274.69 31.332H271.764V33.332H274.69V31.332ZM270.764 32.332V37.348H272.764V32.332H270.764ZM270.764 37.348C270.764 37.8942 270.808 38.4117 270.947 38.8302L272.844 38.1978C272.808 38.0883 272.764 37.8285 272.764 37.348H270.764ZM270.953 38.8468C271.134 39.3599 271.496 39.743 271.976 39.9688L272.828 38.1592C272.817 38.1541 272.813 38.1512 272.814 38.1518C272.815 38.1526 272.819 38.1557 272.824 38.1614C272.83 38.1673 272.834 38.1733 272.837 38.1784C272.84 38.1834 272.84 38.185 272.839 38.1812L270.953 38.8468ZM272.021 39.9887C272.456 40.1679 272.998 40.218 273.546 40.218V38.218C273.067 38.218 272.846 38.1654 272.783 38.1393L272.021 39.9887ZM273.546 40.218C273.826 40.218 274.269 40.1719 274.82 40.0995L274.559 38.1165C273.996 38.1907 273.676 38.218 273.546 38.218V40.218ZM273.69 39.108V41.11H275.69V39.108H273.69ZM274.584 40.1156C273.917 40.1865 273.36 40.22 272.908 40.22V42.22C273.452 42.22 274.084 42.1801 274.796 42.1044L274.584 40.1156ZM280.019 41.154L280.122 40.1593L280.019 41.154ZM278.655 40.89L278.387 41.8535L278.392 41.8548L278.655 40.89ZM277.379 40.274L276.725 41.0308L276.735 41.0395L276.746 41.048L277.379 40.274ZM276.565 39.108L277.48 38.7043L277.475 38.6942L276.565 39.108ZM276.565 32.354L277.488 32.7386L276.565 32.354ZM277.423 31.122L276.794 30.3448L276.788 30.3492L276.783 30.3538L277.423 31.122ZM278.633 30.506L278.941 31.4574L278.949 31.4548L278.957 31.4519L278.633 30.506ZM280.129 30.176L280.076 29.1774L280.057 29.1784L280.038 29.1801L280.129 30.176ZM283.253 30.198L283.142 31.1919L283.162 31.1941L283.182 31.1955L283.253 30.198ZM284.595 30.462L284.887 29.5056L284.885 29.505L284.595 30.462ZM285.871 31.122L285.217 31.8788L285.225 31.886L285.234 31.893L285.871 31.122ZM286.729 32.31L287.652 31.9254L287.645 31.9097L287.638 31.8942L286.729 32.31ZM286.729 39.086L285.814 38.6824L285.809 38.6937L285.804 38.7052L286.729 39.086ZM285.915 40.252L285.278 39.481L285.267 39.4901L285.915 40.252ZM284.705 40.868L284.987 41.8274L284.996 41.8248L285.005 41.822L284.705 40.868ZM283.231 41.154L283.14 40.1581L283.131 40.159L283.231 41.154ZM283.011 39.086L283.285 40.0475L283.306 40.0416L283.327 40.0347L283.011 39.086ZM283.649 38.624L282.808 38.0832L282.793 38.1052L282.781 38.1279L283.649 38.624ZM283.385 32.464L283.991 31.6686L283.385 32.464ZM279.623 38.624L278.755 39.1201L278.767 39.1428L278.782 39.1648L279.623 38.624ZM280.283 39.086L279.967 40.0347L279.987 40.0416L280.008 40.0475L280.283 39.086ZM281.647 40.22C281.005 40.22 280.5 40.1984 280.122 40.1593L279.916 42.1487C280.388 42.1976 280.969 42.22 281.647 42.22V40.22ZM280.122 40.1593C279.759 40.1218 279.358 40.0453 278.918 39.9252L278.392 41.8548C278.919 41.9987 279.428 42.0982 279.916 42.1487L280.122 40.1593ZM278.922 39.9265C278.488 39.8058 278.199 39.6532 278.012 39.5L276.746 41.048C277.204 41.4228 277.765 41.6808 278.387 41.8535L278.922 39.9265ZM278.032 39.5172C277.849 39.3585 277.656 39.1039 277.48 38.7044L275.65 39.5116C275.914 40.1095 276.264 40.6322 276.725 41.0308L278.032 39.5172ZM277.475 38.6942C277.329 38.3726 277.235 37.9352 277.235 37.348H275.235C275.235 38.1395 275.361 38.8754 275.654 39.5218L277.475 38.6942ZM277.235 37.348V34.202H275.235V37.348H277.235ZM277.235 34.202C277.235 33.6004 277.329 33.1201 277.488 32.7386L275.642 31.9694C275.361 32.6439 275.235 33.3956 275.235 34.202H277.235ZM277.488 32.7386C277.661 32.3232 277.862 32.0579 278.063 31.8902L276.783 30.3538C276.28 30.7728 275.909 31.3288 275.642 31.9694L277.488 32.7386ZM278.052 31.8992C278.239 31.7477 278.523 31.5925 278.941 31.4574L278.325 29.5546C277.745 29.7422 277.222 29.9976 276.794 30.3448L278.052 31.8992ZM278.957 31.4519C279.403 31.2989 279.824 31.2079 280.219 31.1719L280.038 29.1801C279.466 29.2321 278.889 29.3611 278.308 29.5601L278.957 31.4519ZM280.181 31.1746C280.725 31.146 281.213 31.132 281.647 31.132V29.132C281.171 29.132 280.647 29.1473 280.076 29.1774L280.181 31.1746ZM281.647 31.132C282.306 31.132 282.799 31.1538 283.142 31.1919L283.363 29.2041C282.914 29.1542 282.337 29.132 281.647 29.132V31.132ZM283.182 31.1955C283.503 31.2185 283.876 31.2892 284.305 31.419L284.885 29.505C284.345 29.3414 283.823 29.2362 283.324 29.2005L283.182 31.1955ZM284.303 31.4184C284.735 31.5505 285.026 31.7137 285.217 31.8788L286.524 30.3652C286.07 29.973 285.51 29.6961 284.887 29.5056L284.303 31.4184ZM285.234 31.893C285.426 32.0516 285.63 32.3114 285.819 32.7258L287.638 31.8942C287.358 31.2819 286.99 30.7497 286.508 30.351L285.234 31.893ZM285.806 32.6946C285.963 33.0716 286.059 33.565 286.059 34.202H288.059C288.059 33.3723 287.935 32.6044 287.652 31.9254L285.806 32.6946ZM286.059 34.202V37.348H288.059V34.202H286.059ZM286.059 37.348C286.059 37.8977 285.967 38.3347 285.814 38.6824L287.644 39.4896C287.93 38.8399 288.059 38.1183 288.059 37.348H286.059ZM285.804 38.7052C285.647 39.087 285.463 39.3284 285.278 39.481L286.552 41.023C287.042 40.6182 287.4 40.0823 287.653 39.4667L285.804 38.7052ZM285.267 39.4901C285.108 39.6256 284.838 39.7779 284.405 39.914L285.005 41.822C285.598 41.6354 286.135 41.3771 286.562 41.0139L285.267 39.4901ZM284.423 39.9086C283.982 40.0382 283.555 40.1204 283.14 40.1581L283.321 42.1499C283.875 42.0996 284.43 41.9912 284.987 41.8274L284.423 39.9086ZM283.131 40.159C282.734 40.1987 282.241 40.22 281.647 40.22V42.22C282.284 42.22 282.847 42.1973 283.33 42.149L283.131 40.159ZM281.647 40.218C282.275 40.218 282.841 40.1744 283.285 40.0475L282.736 38.1245C282.564 38.1736 282.221 38.218 281.647 38.218V40.218ZM283.327 40.0347C283.781 39.8834 284.239 39.6075 284.517 39.1201L282.781 38.1279C282.789 38.1124 282.799 38.1003 282.806 38.092C282.814 38.0839 282.818 38.0815 282.815 38.0836C282.808 38.0886 282.774 38.1109 282.695 38.1373L283.327 40.0347ZM284.49 39.1648C284.772 38.7265 284.847 38.2017 284.847 37.722H282.847C282.847 37.8673 282.834 37.9669 282.821 38.0301C282.807 38.0935 282.795 38.1027 282.808 38.0832L284.49 39.1648ZM284.847 37.722V33.696H282.847V37.722H284.847ZM284.847 33.696C284.847 32.9627 284.654 32.1741 283.991 31.6686L282.779 33.2594C282.764 33.2481 282.775 33.246 282.795 33.2991C282.818 33.3614 282.847 33.4845 282.847 33.696H284.847ZM283.991 31.6686C283.67 31.4242 283.285 31.2942 282.918 31.2199C282.541 31.1436 282.112 31.112 281.647 31.112V33.112C282.032 33.112 282.318 33.139 282.521 33.1801C282.733 33.2231 282.791 33.2691 282.779 33.2594L283.991 31.6686ZM281.647 31.112C281.181 31.112 280.752 31.1436 280.376 31.2199C280.009 31.2942 279.623 31.4242 279.303 31.6686L280.515 33.2594C280.502 33.2691 280.56 33.2231 280.773 33.1801C280.976 33.139 281.262 33.112 281.647 33.112V31.112ZM279.303 31.6686C278.639 32.1741 278.447 32.9627 278.447 33.696H280.447C280.447 33.4845 280.475 33.3614 280.499 33.2991C280.519 33.246 280.53 33.2481 280.515 33.2594L279.303 31.6686ZM278.447 33.696V37.722H280.447V33.696H278.447ZM278.447 37.722C278.447 38.1882 278.511 38.6938 278.755 39.1201L280.491 38.1279C280.5 38.1431 280.487 38.1262 280.472 38.053C280.458 37.9809 280.447 37.8733 280.447 37.722H278.447ZM278.782 39.1648C279.072 39.6171 279.514 39.8838 279.967 40.0347L280.599 38.1373C280.518 38.1104 280.477 38.0858 280.46 38.0743C280.446 38.0643 280.453 38.0661 280.464 38.0832L278.782 39.1648ZM280.008 40.0475C280.452 40.1744 281.019 40.218 281.647 40.218V38.218C281.072 38.218 280.729 38.1736 280.557 38.1245L280.008 40.0475ZM289.562 30.352V29.352H288.562V30.352H289.562ZM292.62 30.352H293.62V29.352H292.62V30.352ZM293.038 31.232L292.281 30.5784L293.038 31.232ZM294.094 30.44L293.671 29.5337L293.66 29.5394L294.094 30.44ZM296.536 30.132H297.536V29.132H296.536V30.132ZM296.536 32.794V33.794H297.536V32.794H296.536ZM293.412 33.212L292.877 32.3672L292.871 32.3713L292.864 32.3755L293.412 33.212ZM292.774 41V42H293.774V41H292.774ZM289.562 41H288.562V42H289.562V41ZM289.562 31.352H292.62V29.352H289.562V31.352ZM291.62 30.352V32.222H293.62V30.352H291.62ZM293.62 32.222C293.62 32.1827 293.631 32.076 293.795 31.8856L292.281 30.5784C291.889 31.0333 291.62 31.5866 291.62 32.222H293.62ZM293.795 31.8856C293.975 31.6771 294.213 31.4929 294.529 31.3406L293.66 29.5394C293.124 29.7978 292.659 30.1416 292.281 30.5784L293.795 31.8856ZM294.517 31.3462C294.844 31.1939 295.132 31.132 295.392 31.132V29.132C294.801 29.132 294.225 29.2754 293.671 29.5338L294.517 31.3462ZM295.392 31.132H296.536V29.132H295.392V31.132ZM295.536 30.132V32.794H297.536V30.132H295.536ZM296.536 31.794H295.436V33.794H296.536V31.794ZM295.436 31.794C294.461 31.794 293.557 31.9367 292.877 32.3672L293.947 34.0568C294.148 33.9299 294.593 33.794 295.436 33.794V31.794ZM292.864 32.3755C292.081 32.889 291.774 33.7181 291.774 34.598H293.774C293.774 34.1872 293.893 34.0924 293.96 34.0485L292.864 32.3755ZM291.774 34.598V41H293.774V34.598H291.774ZM292.774 40H289.562V42H292.774V40ZM290.562 41V30.352H288.562V41H290.562ZM299.274 31.034L298.704 30.2128L298.697 30.2174L299.274 31.034ZM306.952 31.012L306.35 31.8102L306.358 31.8165L306.367 31.8227L306.952 31.012ZM308.14 36.534V37.534H309.14V36.534H308.14ZM301.232 36.534V35.534H300.232V36.534H301.232ZM301.892 38.822L302.407 37.9645V37.9645L301.892 38.822ZM307.832 38.756H308.832V37.4958L307.605 37.7822L307.832 38.756ZM307.832 40.802L308.041 41.78L308.832 41.611V40.802H307.832ZM305.082 34.708V35.708H306.082V34.708H305.082ZM304.642 32.376L304.108 33.2215L304.118 33.2276L304.128 33.2335L304.642 32.376ZM301.65 32.376L301.096 31.5439L301.086 31.5507L301.65 32.376ZM301.232 34.708H300.232V35.708H301.232V34.708ZM303.652 40.22C301.837 40.22 300.643 39.9369 299.933 39.5031C299.303 39.1183 298.998 38.587 298.998 37.766H296.998C296.998 39.2477 297.636 40.4433 298.891 41.2099C300.065 41.9274 301.699 42.22 303.652 42.22V40.22ZM298.998 37.766V33.938H296.998V37.766H298.998ZM298.998 33.938C298.998 32.8265 299.339 32.2127 299.852 31.8506L298.697 30.2174C297.508 31.058 296.998 32.3802 296.998 33.938H298.998ZM299.845 31.8552C300.462 31.4264 301.544 31.132 303.256 31.132V29.132C301.391 29.132 299.817 29.439 298.704 30.2128L299.845 31.8552ZM303.256 31.132C304.868 31.132 305.833 31.4201 306.35 31.8102L307.555 30.2138C306.517 29.4306 305.018 29.132 303.256 29.132V31.132ZM306.367 31.8227C306.802 32.137 307.14 32.7393 307.14 33.938H309.14C309.14 32.3794 308.687 31.031 307.538 30.2013L306.367 31.8227ZM307.14 33.938V36.534H309.14V33.938H307.14ZM308.14 35.534H301.232V37.534H308.14V35.534ZM300.232 36.534V37.502H302.232V36.534H300.232ZM300.232 37.502C300.232 38.3867 300.572 39.196 301.378 39.6795L302.407 37.9645C302.333 37.92 302.232 37.8493 302.232 37.502H300.232ZM301.378 39.6795C302.074 40.0972 303.116 40.218 304.268 40.218V38.218C303.133 38.218 302.591 38.0748 302.407 37.9645L301.378 39.6795ZM304.268 40.218C305.419 40.218 306.685 40.0506 308.06 39.7298L307.605 37.7822C306.34 38.0774 305.23 38.218 304.268 38.218V40.218ZM306.832 38.756V40.802H308.832V38.756H306.832ZM307.624 39.824C306.394 40.0866 305.071 40.22 303.652 40.22V42.22C305.196 42.22 306.66 42.0748 308.041 41.78L307.624 39.824ZM306.082 34.708V33.168H304.082V34.708H306.082ZM306.082 33.168C306.082 32.4772 305.762 31.8816 305.157 31.5185L304.128 33.2335C304.138 33.2396 304.136 33.2398 304.128 33.2316C304.119 33.2229 304.108 33.2093 304.098 33.1916C304.089 33.1741 304.084 33.1596 304.082 33.1521C304.081 33.1453 304.082 33.1494 304.082 33.168H306.082ZM305.176 31.5305C304.642 31.1928 303.915 31.112 303.212 31.112V33.112C303.511 33.112 303.734 33.1318 303.894 33.1614C304.061 33.1922 304.115 33.2255 304.108 33.2215L305.176 31.5305ZM303.212 31.112C302.791 31.112 302.407 31.1354 302.072 31.192C301.754 31.2459 301.398 31.3427 301.096 31.5439L302.205 33.208C302.167 33.2333 302.204 33.1981 302.406 33.164C302.592 33.1326 302.856 33.112 303.212 33.112V31.112ZM301.086 31.5507C300.535 31.9275 300.232 32.5002 300.232 33.168H302.232C302.232 33.1527 302.234 33.1491 302.233 33.1545C302.231 33.1603 302.228 33.1711 302.221 33.1838C302.215 33.1964 302.208 33.2052 302.204 33.2095C302.2 33.2135 302.202 33.2101 302.215 33.2013L301.086 31.5507ZM300.232 33.168V34.708H302.232V33.168H300.232ZM301.232 35.708H305.082V33.708H301.232V35.708Z" fill="#004E9A"/>
</g>
<path d="M99.9463 45.4223C99.6972 39.6928 98.7008 33.3406 97.2061 27.3619C95.7115 21.6325 93.8432 16.2766 91.6012 12.1663C82.8824 -3.15386 73.4163 -0.787331 62.0818 2.20197C58.4697 3.07385 54.6085 4.07029 50.6228 4.44395H49.3773C45.3915 4.07029 41.5303 3.07385 37.9183 2.20197C26.5838 -0.662776 17.1177 -3.15386 8.39889 12.2909C6.15691 16.4012 4.16404 21.757 2.79394 27.4865C1.29929 33.4651 0.302858 39.8174 0.0537492 45.5469C-0.195359 51.8992 0.427412 56.5077 1.79751 59.7461C3.16761 62.7354 5.16048 64.6037 7.77612 65.351C10.1426 65.9738 12.8828 65.7247 15.7476 64.4791C20.6052 62.4863 26.2102 58.2514 31.6905 53.1447C35.5517 49.4081 42.7759 47.5398 50 47.5398C57.2242 47.5398 64.4483 49.4081 68.3095 53.1447C73.7899 58.2514 79.3949 62.4863 84.2525 64.4791C87.1172 65.6001 89.8574 65.9738 92.2239 65.351C94.715 64.6037 96.8325 62.8599 98.2026 59.6215C99.5726 56.5077 100.195 51.8992 99.9463 45.4223ZM93.9677 57.8778C93.2204 59.6215 92.2239 60.618 90.9784 60.9916C89.6083 61.3653 87.8645 61.1162 85.8717 60.3689C81.5123 58.6251 76.4056 54.7639 71.4234 50.0308C66.6903 45.2978 58.3452 42.9312 50 42.9312C41.6549 42.9312 33.3098 45.2978 28.4521 49.7817C23.3454 54.5148 18.2387 58.5005 14.0038 60.1197C12.011 60.8671 10.2672 61.2407 8.89711 60.7425C7.65156 60.3689 6.65513 59.3724 5.9078 57.6287C4.91137 55.2621 4.41315 51.4009 4.66226 45.6714C4.91137 40.3156 5.78325 34.2124 7.2779 28.4829C8.648 23.1271 10.3918 18.1449 12.5092 14.4083C19.3597 2.07742 27.3311 4.07029 36.7973 6.56138C40.6585 7.55781 44.6442 8.55424 49.0036 8.92791C49.1282 8.92791 49.1282 8.92791 49.2527 8.92791H50.6228C50.7474 8.92791 50.7474 8.92791 50.8719 8.92791C55.3559 8.55424 59.3416 7.55781 63.2028 6.56138C72.6689 4.19484 80.6404 2.07742 87.4909 14.4083C89.6083 18.1449 91.3521 23.0025 92.7222 28.4829C94.0923 34.2124 95.0887 40.1911 95.3378 45.6714C95.5869 51.4009 95.0887 55.2621 93.9677 57.8778Z" fill="#004E9A"/>
<path d="M38.5408 21.1342C37.2952 20.0132 35.8006 19.1414 34.0568 19.0168C33.9322 17.3976 33.1849 15.7784 32.0639 14.6574L31.9394 14.5329C30.5693 13.1628 28.8255 12.4154 26.8327 12.4154C24.8398 12.4154 22.9715 13.2873 21.7259 14.5329C20.6049 15.6538 19.7331 17.2731 19.6085 19.0168C17.8647 19.1414 16.3701 19.8887 15.1245 21.0097L15 21.1342C13.6299 22.5043 12.8826 24.2481 12.8826 26.241C12.8826 28.2338 13.7544 30.1021 15 31.3477C16.2455 32.5932 17.7402 33.3406 19.6085 33.4651C19.7331 35.2089 20.4804 36.8281 21.7259 37.9491C23.096 39.3192 24.8398 40.0665 26.8327 40.0665C28.8255 40.0665 30.6938 39.1946 31.9394 37.9491C33.0604 36.7035 33.9322 35.2089 34.0568 33.4651C35.8006 33.3406 37.4198 32.5932 38.5408 31.3477C39.9109 29.9776 40.6582 28.2338 40.6582 26.241C40.6582 24.2481 39.7863 22.3798 38.5408 21.1342ZM35.4269 28.1093C34.9287 28.6075 34.3059 28.8566 33.5586 28.8566H31.8148C30.5693 28.8566 29.4483 29.853 29.4483 31.2231V32.8423C29.4483 33.5897 29.1992 34.2124 28.701 34.7107C28.2027 35.2089 27.58 35.458 26.8327 35.458C26.0853 35.458 25.4626 35.2089 24.9643 34.7107C24.4661 34.2124 24.217 33.5897 24.217 32.8423V31.0986C24.217 29.853 23.2206 28.732 21.8505 28.732H20.1067C19.3594 28.732 18.7366 28.4829 18.2384 27.9847C17.8647 27.6111 17.4911 26.9883 17.4911 26.241C17.4911 25.4936 17.7402 24.8709 18.2384 24.3726C18.2384 24.3726 18.2384 24.3727 18.363 24.2481C18.8612 23.8744 19.4839 23.6253 20.1067 23.6253H21.8505C23.096 23.6253 24.217 22.6289 24.217 21.2588V19.515C24.217 18.7677 24.4661 18.1449 24.9643 17.6467C25.4626 17.1485 26.0853 16.8994 26.8327 16.8994C27.58 16.8994 28.2027 17.1485 28.701 17.6467C28.701 17.6467 28.701 17.6467 28.8255 17.7713C29.1992 18.2695 29.4483 18.8923 29.4483 19.515V21.2588C29.4483 22.5043 30.4447 23.6253 31.8148 23.6253H33.5586C34.3059 23.6253 34.9287 23.8744 35.4269 24.3726C35.9251 24.8709 36.1742 25.4936 36.1742 26.241C36.1742 26.9883 35.9251 27.6111 35.4269 28.1093Z" fill="#004E9A"/>
<path d="M71.6723 21.757C74.0799 21.757 76.0317 19.8052 76.0317 17.3976C76.0317 14.99 74.0799 13.0382 71.6723 13.0382C69.2646 13.0382 67.3129 14.99 67.3129 17.3976C67.3129 19.8052 69.2646 21.757 71.6723 21.757Z" fill="#004E9A"/>
<path d="M71.6723 39.4437C74.0799 39.4437 76.0317 37.4919 76.0317 35.0843C76.0317 32.6767 74.0799 30.7249 71.6723 30.7249C69.2646 30.7249 67.3129 32.6767 67.3129 35.0843C67.3129 37.4919 69.2646 39.4437 71.6723 39.4437Z" fill="#004E9A"/>
<path d="M62.8289 30.6004C65.2365 30.6004 67.1883 28.6486 67.1883 26.241C67.1883 23.8333 65.2365 21.8816 62.8289 21.8816C60.4213 21.8816 58.4695 23.8333 58.4695 26.241C58.4695 28.6486 60.4213 30.6004 62.8289 30.6004Z" fill="#004E9A"/>
<path d="M80.5156 30.6004C82.9232 30.6004 84.875 28.6486 84.875 26.241C84.875 23.8333 82.9232 21.8816 80.5156 21.8816C78.108 21.8816 76.1562 23.8333 76.1562 26.241C76.1562 28.6486 78.108 30.6004 80.5156 30.6004Z" fill="#004E9A"/>
<defs>
<filter id="filter0_d" x="106.353" y="25.502" width="206.788" height="24.718" filterUnits="userSpaceOnUse" color-interpolation-filters="sRGB">
<feFlood flood-opacity="0" result="BackgroundImageFix"/>
<feColorMatrix in="SourceAlpha" type="matrix" values="0 0 0 0 0 0 0 0 0 0 0 0 0 0 0 0 0 0 127 0"/>
<feOffset dy="4"/>
<feGaussianBlur stdDeviation="2"/>
<feColorMatrix type="matrix" values="0 0 0 0 0 0 0 0 0 0 0 0 0 0 0 0 0 0 0.25 0"/>
<feBlend mode="normal" in2="BackgroundImageFix" result="effect1_dropShadow"/>
<feBlend mode="normal" in="SourceGraphic" in2="effect1_dropShadow" result="shape"/>
</filter>
</defs>
</svg>
