<svg width="209" height="98" viewBox="0 0 209 98" fill="none" xmlns="http://www.w3.org/2000/svg">
<g filter="url(#filter0_d)">
<path d="M6.3525 73.722H17.4625V76.164H9.7845V79.662H16.7365V82.104H9.7845V88H6.3525V73.722ZM22.6622 88.22C21.6649 88.22 20.9169 88.132 20.4182 87.956C19.9342 87.7653 19.5896 87.4353 19.3842 86.966C19.1936 86.482 19.0982 85.7633 19.0982 84.81C19.0982 83.9593 19.2009 83.292 19.4062 82.808C19.6262 82.324 19.9709 81.9793 20.4402 81.774C20.9242 81.554 21.5842 81.444 22.4202 81.444H26.0282V80.718C26.0282 80.2633 25.9622 79.926 25.8302 79.706C25.7129 79.486 25.4856 79.332 25.1482 79.244C24.8256 79.156 24.3342 79.112 23.6742 79.112C22.7649 79.112 21.5182 79.2 19.9342 79.376V77.352C21.0929 77.2053 22.4496 77.132 24.0042 77.132C25.3682 77.132 26.4169 77.2347 27.1502 77.44C27.8982 77.6453 28.4336 77.9973 28.7562 78.496C29.0789 78.9947 29.2402 79.7207 29.2402 80.674V88H26.0942V87.032C25.8449 87.4573 25.5076 87.758 25.0822 87.934C24.6569 88.1247 23.8502 88.22 22.6622 88.22ZM23.9162 86.218C24.5616 86.218 25.0236 86.196 25.3022 86.152C25.5076 86.1227 25.6469 86.0787 25.7202 86.02C25.8082 85.9613 25.8816 85.866 25.9402 85.734C25.9989 85.6313 26.0282 85.4773 26.0282 85.272V83.204H23.8282C23.3296 83.204 22.9776 83.2407 22.7722 83.314C22.5669 83.3727 22.4276 83.5047 22.3542 83.71C22.2809 83.9007 22.2442 84.2453 22.2442 84.744C22.2442 85.228 22.2809 85.5653 22.3542 85.756C22.4276 85.9467 22.5669 86.0713 22.7722 86.13C22.9922 86.1887 23.3736 86.218 23.9162 86.218ZM37.2582 88.22C36.7009 88.22 36.2609 88.2053 35.9382 88.176C35.6155 88.1613 35.2195 88.1247 34.7502 88.066C34.2809 88.0073 33.8922 87.9047 33.5842 87.758C33.2909 87.6113 32.9829 87.3913 32.6602 87.098C32.0589 86.5993 31.7582 85.7487 31.7582 84.546V81.004C31.7582 80.036 31.9782 79.2293 32.4182 78.584C32.5795 78.3493 32.8142 78.1367 33.1222 77.946C33.4449 77.7407 33.7675 77.5793 34.0902 77.462C34.3542 77.374 34.7062 77.3007 35.1462 77.242C35.5862 77.1833 35.9749 77.1467 36.3122 77.132H37.4782C38.2995 77.132 39.3775 77.264 40.7122 77.528V79.64C39.2015 79.288 38.0429 79.112 37.2362 79.112C35.7549 79.112 35.0142 79.6107 35.0142 80.608V84.524C35.0142 85.6533 35.8282 86.218 37.4562 86.218C38.2482 86.218 39.3849 86.0567 40.8662 85.734V87.846C39.5315 88.0953 38.3289 88.22 37.2582 88.22ZM48.0255 88.22C44.2562 88.22 42.3715 87.0687 42.3715 84.766V80.938C42.3715 79.6033 42.7968 78.6353 43.6475 78.034C44.5128 77.4327 45.8402 77.132 47.6295 77.132C49.3162 77.132 50.5482 77.4253 51.3255 78.012C52.1175 78.584 52.5135 79.5593 52.5135 80.938V83.534H45.6055V84.502C45.6055 85.118 45.8255 85.558 46.2655 85.822C46.7055 86.086 47.4975 86.218 48.6415 86.218C49.6975 86.218 50.8855 86.064 52.2055 85.756V87.802C50.9002 88.0807 49.5068 88.22 48.0255 88.22ZM49.4555 81.708V80.168C49.4555 79.816 49.3088 79.552 49.0155 79.376C48.7368 79.2 48.2602 79.112 47.5855 79.112C46.8082 79.112 46.2875 79.2 46.0235 79.376C45.7448 79.5667 45.6055 79.8307 45.6055 80.168V81.708H49.4555ZM54.9685 77.352H58.1365V78.65C58.3859 77.638 59.5225 77.132 61.5465 77.132C62.9105 77.132 63.8639 77.3813 64.4065 77.88C64.9639 78.364 65.2425 79.134 65.2425 80.19V88H62.0305V80.608C62.0305 80.1973 61.9865 79.8893 61.8985 79.684C61.8252 79.4787 61.6639 79.332 61.4145 79.244C61.1799 79.156 60.8132 79.112 60.3145 79.112C59.6839 79.112 59.2219 79.156 58.9285 79.244C58.6352 79.3173 58.4372 79.4567 58.3345 79.662C58.2319 79.8673 58.1805 80.1827 58.1805 80.608V88H54.9685V77.352ZM72.0345 88.22C70.8905 88.22 69.4899 88.11 67.8325 87.89V85.756C69.8712 86.064 71.2865 86.218 72.0785 86.218C72.7532 86.218 73.2519 86.152 73.5745 86.02C73.8972 85.888 74.0585 85.646 74.0585 85.294V84.634C74.0585 84.2673 73.9559 84.0107 73.7505 83.864C73.5452 83.7027 73.1419 83.622 72.5405 83.622H71.1545C70.0252 83.622 69.1525 83.402 68.5365 82.962C67.9205 82.5073 67.6125 81.8473 67.6125 80.982V79.684C67.6125 78.76 68.0525 78.1073 68.9325 77.726C69.8125 77.33 71.1399 77.132 72.9145 77.132C73.6185 77.132 74.8799 77.198 76.6985 77.33V79.376C74.4105 79.2 73.1199 79.112 72.8265 79.112C71.9612 79.112 71.3965 79.1707 71.1325 79.288C70.8979 79.42 70.7805 79.662 70.7805 80.014V80.586C70.7805 80.7767 70.8759 80.9453 71.0665 81.092C71.2572 81.224 71.5359 81.29 71.9025 81.29H73.3105C75.9212 81.29 77.2265 82.1407 77.2265 83.842V85.184C77.2265 85.6973 77.1312 86.1447 76.9405 86.526C76.7499 86.9073 76.5005 87.208 76.1925 87.428C75.8992 87.6333 75.5179 87.7947 75.0485 87.912C74.5939 88.0293 74.1172 88.11 73.6185 88.154C73.1639 88.198 72.6359 88.22 72.0345 88.22ZM91.6114 88.22C90.7901 88.22 90.0641 88.1833 89.4334 88.11C88.8028 88.0367 88.1794 87.912 87.5634 87.736C86.9034 87.56 86.3608 87.3253 85.9354 87.032C85.5101 86.724 85.1654 86.328 84.9014 85.844C84.6374 85.3307 84.5054 84.744 84.5054 84.084V78.144C84.5054 77.4253 84.6521 76.78 84.9454 76.208C85.2388 75.6213 85.6348 75.1593 86.1334 74.822C86.6028 74.514 87.1601 74.25 87.8054 74.03C88.4654 73.81 89.1108 73.6633 89.7414 73.59C90.2694 73.5313 90.9074 73.502 91.6554 73.502C93.6794 73.502 95.6154 73.656 97.4634 73.964V76.56C95.7621 76.1493 93.8261 75.944 91.6554 75.944C89.1768 75.944 87.9374 76.6627 87.9374 78.1V83.842C87.9374 84.546 88.2674 85.0447 88.9274 85.338C89.6021 85.6313 90.6141 85.778 91.9634 85.778C92.6821 85.778 93.4521 85.668 94.2734 85.448V82.126H91.9414V79.882H97.5514V87.296C96.8181 87.56 95.8794 87.78 94.7354 87.956C93.6061 88.132 92.5648 88.22 91.6114 88.22ZM103.207 88.22C102.21 88.22 101.462 88.132 100.963 87.956C100.479 87.7653 100.134 87.4353 99.9292 86.966C99.7385 86.482 99.6432 85.7633 99.6432 84.81C99.6432 83.9593 99.7458 83.292 99.9512 82.808C100.171 82.324 100.516 81.9793 100.985 81.774C101.469 81.554 102.129 81.444 102.965 81.444H106.573V80.718C106.573 80.2633 106.507 79.926 106.375 79.706C106.258 79.486 106.03 79.332 105.693 79.244C105.37 79.156 104.879 79.112 104.219 79.112C103.31 79.112 102.063 79.2 100.479 79.376V77.352C101.638 77.2053 102.994 77.132 104.549 77.132C105.913 77.132 106.962 77.2347 107.695 77.44C108.443 77.6453 108.978 77.9973 109.301 78.496C109.624 78.9947 109.785 79.7207 109.785 80.674V88H106.639V87.032C106.39 87.4573 106.052 87.758 105.627 87.934C105.202 88.1247 104.395 88.22 103.207 88.22ZM104.461 86.218C105.106 86.218 105.568 86.196 105.847 86.152C106.052 86.1227 106.192 86.0787 106.265 86.02C106.353 85.9613 106.426 85.866 106.485 85.734C106.544 85.6313 106.573 85.4773 106.573 85.272V83.204H104.373C103.874 83.204 103.522 83.2407 103.317 83.314C103.112 83.3727 102.972 83.5047 102.899 83.71C102.826 83.9007 102.789 84.2453 102.789 84.744C102.789 85.228 102.826 85.5653 102.899 85.756C102.972 85.9467 103.112 86.0713 103.317 86.13C103.537 86.1887 103.918 86.218 104.461 86.218ZM112.611 77.352H115.823V78.65C116.028 77.638 117.077 77.132 118.969 77.132C119.966 77.132 120.722 77.264 121.235 77.528C121.748 77.7773 122.093 78.1733 122.269 78.716C122.445 78.1587 122.782 77.7553 123.281 77.506C123.794 77.2567 124.564 77.132 125.591 77.132C126.515 77.132 127.226 77.242 127.725 77.462C128.224 77.6673 128.568 77.99 128.759 78.43C128.964 78.87 129.067 79.4567 129.067 80.19V88H125.855V80.63C125.855 80.1607 125.826 79.8307 125.767 79.64C125.708 79.4347 125.576 79.2953 125.371 79.222C125.18 79.1487 124.843 79.112 124.359 79.112C123.758 79.112 123.325 79.1487 123.061 79.222C122.812 79.2953 122.643 79.4347 122.555 79.64C122.482 79.8307 122.445 80.1607 122.445 80.63V88H119.233V80.63C119.233 80.1607 119.204 79.8307 119.145 79.64C119.086 79.4347 118.954 79.2953 118.749 79.222C118.558 79.1487 118.221 79.112 117.737 79.112C117.136 79.112 116.703 79.1487 116.439 79.222C116.19 79.2953 116.021 79.4347 115.933 79.64C115.86 79.8307 115.823 80.1607 115.823 80.63V88H112.611V77.352ZM137.229 88.22C133.459 88.22 131.575 87.0687 131.575 84.766V80.938C131.575 79.6033 132 78.6353 132.851 78.034C133.716 77.4327 135.043 77.132 136.833 77.132C138.519 77.132 139.751 77.4253 140.529 78.012C141.321 78.584 141.717 79.5593 141.717 80.938V83.534H134.809V84.502C134.809 85.118 135.029 85.558 135.469 85.822C135.909 86.086 136.701 86.218 137.845 86.218C138.901 86.218 140.089 86.064 141.409 85.756V87.802C140.103 88.0807 138.71 88.22 137.229 88.22ZM138.659 81.708V80.168C138.659 79.816 138.512 79.552 138.219 79.376C137.94 79.2 137.463 79.112 136.789 79.112C136.011 79.112 135.491 79.2 135.227 79.376C134.948 79.5667 134.809 79.8307 134.809 80.168V81.708H138.659ZM153.994 88.22C152.63 88.22 150.943 88.088 148.934 87.824V85.206C151.427 85.5873 153.129 85.778 154.038 85.778C155.945 85.778 156.898 85.2867 156.898 84.304V83.38C156.898 82.9107 156.759 82.5513 156.48 82.302C156.216 82.0527 155.732 81.928 155.028 81.928H153.356C150.217 81.928 148.648 80.6813 148.648 78.188V77.132C148.648 75.8853 149.169 74.9687 150.21 74.382C151.251 73.7953 152.901 73.502 155.16 73.502C156.333 73.502 157.822 73.5973 159.626 73.788V76.34C157.411 76.076 155.886 75.944 155.05 75.944C153.891 75.944 153.114 76.0393 152.718 76.23C152.293 76.4353 152.08 76.758 152.08 77.198V78.21C152.08 78.958 152.711 79.332 153.972 79.332H155.688C157.316 79.332 158.497 79.6327 159.23 80.234C159.963 80.8353 160.33 81.752 160.33 82.984V83.93C160.33 85.6313 159.721 86.7827 158.504 87.384C157.917 87.692 157.265 87.9047 156.546 88.022C155.842 88.154 154.991 88.22 153.994 88.22ZM167.908 88.22C167.365 88.22 166.91 88.198 166.544 88.154C166.177 88.11 165.81 88.022 165.444 87.89C165.033 87.758 164.696 87.5747 164.432 87.34C164.182 87.1053 163.977 86.7827 163.816 86.372C163.64 85.9467 163.552 85.4553 163.552 84.898V79.332H161.396V77.352H163.552V74.272H166.764V77.352H169.69V79.332H166.764V84.348C166.764 84.8613 166.808 85.25 166.896 85.514C166.984 85.7633 167.152 85.9467 167.402 86.064C167.651 86.1667 168.032 86.218 168.546 86.218C168.751 86.218 169.132 86.1813 169.69 86.108V88.11C169 88.1833 168.406 88.22 167.908 88.22ZM176.647 88.22C175.987 88.22 175.444 88.198 175.019 88.154C174.593 88.11 174.139 88.022 173.655 87.89C173.127 87.7433 172.701 87.538 172.379 87.274C172.056 86.9953 171.785 86.6067 171.565 86.108C171.345 85.624 171.235 85.0373 171.235 84.348V81.202C171.235 80.498 171.345 79.882 171.565 79.354C171.785 78.826 172.071 78.4153 172.423 78.122C172.731 77.8727 173.134 77.6673 173.633 77.506C174.146 77.33 174.645 77.22 175.129 77.176C175.686 77.1467 176.192 77.132 176.647 77.132C177.321 77.132 177.857 77.154 178.253 77.198C178.663 77.2273 179.111 77.3153 179.595 77.462C180.123 77.6233 180.548 77.8433 180.871 78.122C181.208 78.4007 181.494 78.7967 181.729 79.31C181.949 79.838 182.059 80.4687 182.059 81.202V84.348C182.059 85.008 181.949 85.5873 181.729 86.086C181.523 86.5847 181.252 86.9733 180.915 87.252C180.621 87.5013 180.218 87.7067 179.705 87.868C179.206 88.0147 178.715 88.11 178.231 88.154C177.791 88.198 177.263 88.22 176.647 88.22ZM176.647 86.218C177.248 86.218 177.703 86.174 178.011 86.086C178.319 85.9833 178.531 85.8293 178.649 85.624C178.781 85.4187 178.847 85.118 178.847 84.722V80.696C178.847 80.1093 178.693 79.6987 178.385 79.464C178.077 79.2293 177.497 79.112 176.647 79.112C175.796 79.112 175.217 79.2293 174.909 79.464C174.601 79.6987 174.447 80.1093 174.447 80.696V84.722C174.447 85.118 174.505 85.4187 174.623 85.624C174.755 85.8293 174.975 85.9833 175.283 86.086C175.591 86.174 176.045 86.218 176.647 86.218ZM184.562 77.352H187.62V79.222C187.62 78.8847 187.76 78.5547 188.038 78.232C188.317 77.9093 188.669 77.6453 189.094 77.44C189.534 77.2347 189.967 77.132 190.392 77.132H191.536V79.794H190.436C189.527 79.794 188.852 79.9333 188.412 80.212C187.987 80.4907 187.774 80.9527 187.774 81.598V88H184.562V77.352ZM198.652 88.22C194.883 88.22 192.998 87.0687 192.998 84.766V80.938C192.998 79.6033 193.424 78.6353 194.274 78.034C195.14 77.4327 196.467 77.132 198.256 77.132C199.943 77.132 201.175 77.4253 201.952 78.012C202.744 78.584 203.14 79.5593 203.14 80.938V83.534H196.232V84.502C196.232 85.118 196.452 85.558 196.892 85.822C197.332 86.086 198.124 86.218 199.268 86.218C200.324 86.218 201.512 86.064 202.832 85.756V87.802C201.527 88.0807 200.134 88.22 198.652 88.22ZM200.082 81.708V80.168C200.082 79.816 199.936 79.552 199.642 79.376C199.364 79.2 198.887 79.112 198.212 79.112C197.435 79.112 196.914 79.2 196.65 79.376C196.372 79.5667 196.232 79.8307 196.232 80.168V81.708H200.082Z" fill="#004E9A"/>
<path d="M6.3525 73.722V72.722H5.3525V73.722H6.3525ZM17.4625 73.722H18.4625V72.722H17.4625V73.722ZM17.4625 76.164V77.164H18.4625V76.164H17.4625ZM9.7845 76.164V75.164H8.7845V76.164H9.7845ZM9.7845 79.662H8.7845V80.662H9.7845V79.662ZM16.7365 79.662H17.7365V78.662H16.7365V79.662ZM16.7365 82.104V83.104H17.7365V82.104H16.7365ZM9.7845 82.104V81.104H8.7845V82.104H9.7845ZM9.7845 88V89H10.7845V88H9.7845ZM6.3525 88H5.3525V89H6.3525V88ZM6.3525 74.722H17.4625V72.722H6.3525V74.722ZM16.4625 73.722V76.164H18.4625V73.722H16.4625ZM17.4625 75.164H9.7845V77.164H17.4625V75.164ZM8.7845 76.164V79.662H10.7845V76.164H8.7845ZM9.7845 80.662H16.7365V78.662H9.7845V80.662ZM15.7365 79.662V82.104H17.7365V79.662H15.7365ZM16.7365 81.104H9.7845V83.104H16.7365V81.104ZM8.7845 82.104V88H10.7845V82.104H8.7845ZM9.7845 87H6.3525V89H9.7845V87ZM7.3525 88V73.722H5.3525V88H7.3525ZM20.4182 87.956L20.0517 88.8864L20.0684 88.893L20.0854 88.899L20.4182 87.956ZM19.3842 86.966L18.4538 87.3325L18.4606 87.3498L18.4681 87.3668L19.3842 86.966ZM19.4062 82.808L18.4959 82.3942L18.4906 82.4058L18.4857 82.4174L19.4062 82.808ZM20.4402 81.774L20.8411 82.6902L20.8476 82.6873L20.854 82.6844L20.4402 81.774ZM26.0282 81.444V82.444H27.0282V81.444H26.0282ZM25.8302 79.706L24.9479 80.1766L24.9598 80.1989L24.9727 80.2205L25.8302 79.706ZM25.1482 79.244L24.8851 80.2088L24.8958 80.2116L25.1482 79.244ZM19.9342 79.376H18.9342V80.4933L20.0447 80.3699L19.9342 79.376ZM19.9342 77.352L19.8087 76.3599L18.9342 76.4706V77.352H19.9342ZM27.1502 77.44L26.8806 78.403L26.8855 78.4043L27.1502 77.44ZM28.7562 78.496L27.9167 79.0393V79.0393L28.7562 78.496ZM29.2402 88V89H30.2402V88H29.2402ZM26.0942 88H25.0942V89H26.0942V88ZM26.0942 87.032H27.0942V83.3487L25.2315 86.5263L26.0942 87.032ZM25.0822 87.934L24.6999 87.01L24.6864 87.0155L24.6732 87.0215L25.0822 87.934ZM25.3022 86.152L25.1608 85.1621L25.1535 85.1631L25.1463 85.1642L25.3022 86.152ZM25.7202 86.02L25.1655 85.1879L25.1294 85.212L25.0955 85.2391L25.7202 86.02ZM25.9402 85.734L25.072 85.2379L25.0469 85.2817L25.0264 85.3279L25.9402 85.734ZM26.0282 83.204H27.0282V82.204H26.0282V83.204ZM22.7722 83.314L23.047 84.2755L23.0781 84.2666L23.1086 84.2557L22.7722 83.314ZM22.3542 83.71L23.2876 84.069L23.2919 84.0577L23.296 84.0463L22.3542 83.71ZM22.3542 85.756L23.2876 85.397L22.3542 85.756ZM22.7722 86.13L22.4975 87.0915L22.506 87.094L22.5146 87.0962L22.7722 86.13ZM22.6622 87.22C21.6963 87.22 21.0861 87.1313 20.7511 87.013L20.0854 88.899C20.7477 89.1327 21.6335 89.22 22.6622 89.22V87.22ZM20.7848 87.0256C20.5425 86.9302 20.3979 86.7881 20.3004 86.5652L18.4681 87.3668C18.7812 88.0826 19.326 88.6005 20.0517 88.8864L20.7848 87.0256ZM20.3146 86.5995C20.1936 86.2922 20.0982 85.7246 20.0982 84.81H18.0982C18.0982 85.8021 18.1935 86.6718 18.4538 87.3325L20.3146 86.5995ZM20.0982 84.81C20.0982 84.0206 20.1964 83.506 20.3268 83.1985L18.4857 82.4174C18.2054 83.078 18.0982 83.8981 18.0982 84.81H20.0982ZM20.3166 83.2218C20.4388 82.953 20.6069 82.7926 20.8411 82.6902L20.0394 80.8578C19.3349 81.1661 18.8137 81.695 18.4959 82.3942L20.3166 83.2218ZM20.854 82.6844C21.1549 82.5476 21.654 82.444 22.4202 82.444V80.444C21.5145 80.444 20.6935 80.5604 20.0264 80.8636L20.854 82.6844ZM22.4202 82.444H26.0282V80.444H22.4202V82.444ZM27.0282 81.444V80.718H25.0282V81.444H27.0282ZM27.0282 80.718C27.0282 80.2033 26.9601 79.6455 26.6877 79.1915L24.9727 80.2205C24.9626 80.2036 24.9795 80.2249 24.9973 80.316C25.0147 80.405 25.0282 80.5358 25.0282 80.718H27.0282ZM26.7126 79.2354C26.4183 78.6836 25.8975 78.406 25.4007 78.2764L24.8958 80.2116C24.9382 80.2227 24.9676 80.2334 24.9867 80.2415C25.0056 80.2496 25.0124 80.2545 25.0109 80.2534C25.009 80.2521 24.9993 80.2452 24.9863 80.2311C24.9729 80.2166 24.9593 80.1981 24.9479 80.1766L26.7126 79.2354ZM25.4114 78.2792C24.9554 78.1549 24.3546 78.112 23.6742 78.112V80.112C24.3139 80.112 24.6957 80.1571 24.8851 80.2088L25.4114 78.2792ZM23.6742 78.112C22.7106 78.112 21.4216 78.2046 19.8238 78.3821L20.0447 80.3699C21.6148 80.1954 22.8193 80.112 23.6742 80.112V78.112ZM20.9342 79.376V77.352H18.9342V79.376H20.9342ZM20.0598 78.3441C21.1658 78.2041 22.4787 78.132 24.0042 78.132V76.132C22.4204 76.132 21.02 76.2066 19.8087 76.3599L20.0598 78.3441ZM24.0042 78.132C25.3369 78.132 26.2783 78.2343 26.8806 78.403L27.4199 76.477C26.5555 76.235 25.3996 76.132 24.0042 76.132V78.132ZM26.8855 78.4043C27.4708 78.565 27.764 78.8033 27.9167 79.0393L29.5958 77.9527C29.1032 77.1914 28.3256 76.7257 27.415 76.4757L26.8855 78.4043ZM27.9167 79.0393C28.0889 79.3055 28.2402 79.8073 28.2402 80.674H30.2402C30.2402 79.6341 30.0689 78.6839 29.5958 77.9527L27.9167 79.0393ZM28.2402 80.674V88H30.2402V80.674H28.2402ZM29.2402 87H26.0942V89H29.2402V87ZM27.0942 88V87.032H25.0942V88H27.0942ZM25.2315 86.5263C25.0841 86.7778 24.9091 86.9234 24.6999 87.01L25.4646 88.858C26.1061 88.5926 26.6057 88.1369 26.9569 87.5377L25.2315 86.5263ZM24.6732 87.0215C24.5972 87.0556 24.4064 87.1122 24.0409 87.1554C23.6898 87.1969 23.2332 87.22 22.6622 87.22V89.22C23.2793 89.22 23.82 89.1954 24.2756 89.1416C24.7167 89.0895 25.142 89.0031 25.4913 88.8465L24.6732 87.0215ZM23.9162 87.218C24.5647 87.218 25.0953 87.1971 25.4582 87.1398L25.1463 85.1642C24.9518 85.1949 24.5585 85.218 23.9162 85.218V87.218ZM25.4437 87.1419C25.6597 87.1111 26.0424 87.0429 26.3449 86.8009L25.0955 85.2391C25.1486 85.1967 25.1935 85.1726 25.2181 85.1607C25.2435 85.1485 25.2589 85.1436 25.2596 85.1434C25.2608 85.143 25.2536 85.1453 25.2358 85.1491C25.2182 85.1529 25.1936 85.1574 25.1608 85.1621L25.4437 87.1419ZM26.2749 86.8521C26.5683 86.6565 26.7456 86.384 26.854 86.1401L25.0264 85.3279C25.0175 85.348 25.0482 85.2662 25.1655 85.1879L26.2749 86.8521ZM26.8085 86.2301C26.9957 85.9025 27.0282 85.5398 27.0282 85.272H25.0282C25.0282 85.2998 25.0272 85.3206 25.0261 85.335C25.0249 85.3496 25.0237 85.3556 25.0239 85.3544C25.0241 85.3533 25.0263 85.342 25.0328 85.3231C25.0393 85.3041 25.0512 85.2742 25.072 85.2379L26.8085 86.2301ZM27.0282 85.272V83.204H25.0282V85.272H27.0282ZM26.0282 82.204H23.8282V84.204H26.0282V82.204ZM23.8282 82.204C23.3244 82.204 22.8185 82.2356 22.4359 82.3723L23.1086 84.2557C23.1042 84.2573 23.1546 84.2406 23.2938 84.2261C23.4247 84.2125 23.6007 84.204 23.8282 84.204V82.204ZM22.4975 82.3525C21.9744 82.5019 21.5916 82.8721 21.4125 83.3737L23.296 84.0463C23.287 84.0714 23.2606 84.127 23.2015 84.183C23.1418 84.2395 23.0812 84.2657 23.047 84.2755L22.4975 82.3525ZM21.4209 83.351C21.2736 83.7339 21.2442 84.2497 21.2442 84.744H23.2442C23.2442 84.5161 23.2528 84.343 23.2661 84.2173C23.2807 84.0804 23.2965 84.0459 23.2876 84.069L21.4209 83.351ZM21.2442 84.744C21.2442 85.228 21.2743 85.7338 21.4209 86.115L23.2876 85.397C23.2956 85.4179 23.2802 85.3833 23.2659 85.2519C23.2527 85.1307 23.2442 84.9637 23.2442 84.744H21.2442ZM21.4209 86.115C21.6128 86.614 22.0062 86.9512 22.4975 87.0915L23.047 85.1685C23.0689 85.1748 23.1225 85.1953 23.1805 85.2473C23.2398 85.3003 23.2727 85.3583 23.2876 85.397L21.4209 86.115ZM22.5146 87.0962C22.8739 87.1921 23.3732 87.218 23.9162 87.218V85.218C23.3739 85.218 23.1105 85.1853 23.0299 85.1638L22.5146 87.0962ZM35.9382 88.176L36.0287 87.1801L36.0062 87.1781L35.9836 87.177L35.9382 88.176ZM34.7502 88.066L34.6262 89.0583L34.7502 88.066ZM33.5842 87.758L33.137 88.6524L33.1456 88.6567L33.1543 88.6609L33.5842 87.758ZM32.6602 87.098L33.3329 86.3581L33.316 86.3428L33.2985 86.3282L32.6602 87.098ZM32.4182 78.584L31.5942 78.0175L31.592 78.0207L32.4182 78.584ZM33.1222 77.946L33.6486 78.7963L33.6591 78.7897L33.1222 77.946ZM34.0902 77.462L33.774 76.5133L33.7612 76.5176L33.7485 76.5222L34.0902 77.462ZM36.3122 77.132V76.132H36.2905L36.2688 76.1329L36.3122 77.132ZM40.7122 77.528H41.7122V76.7064L40.9062 76.547L40.7122 77.528ZM40.7122 79.64L40.4853 80.6139L41.7122 80.8998V79.64H40.7122ZM40.8662 85.734H41.8662V84.4927L40.6534 84.7569L40.8662 85.734ZM40.8662 87.846L41.0498 88.829L41.8662 88.6765V87.846H40.8662ZM37.2582 87.22C36.7129 87.22 36.3075 87.2054 36.0287 87.1801L35.8477 89.1719C36.2143 89.2052 36.6888 89.22 37.2582 89.22V87.22ZM35.9836 87.177C35.6962 87.164 35.3282 87.1305 34.8742 87.0737L34.6262 89.0583C35.1108 89.1189 35.5349 89.1587 35.8928 89.175L35.9836 87.177ZM34.8742 87.0737C34.4731 87.0236 34.1963 86.9419 34.0141 86.8551L33.1543 88.6609C33.5881 88.8674 34.0886 88.9911 34.6262 89.0583L34.8742 87.0737ZM34.0314 86.8636C33.8418 86.7688 33.6086 86.6087 33.3329 86.3581L31.9875 87.8379C32.3571 88.1739 32.74 88.4539 33.137 88.6524L34.0314 86.8636ZM33.2985 86.3282C33.027 86.1031 32.7582 85.6129 32.7582 84.546H30.7582C30.7582 85.8845 31.0907 87.0956 32.0219 87.8678L33.2985 86.3282ZM32.7582 84.546V81.004H30.7582V84.546H32.7582ZM32.7582 81.004C32.7582 80.1885 32.9422 79.5907 33.2444 79.1473L31.592 78.0207C31.0142 78.868 30.7582 79.8835 30.7582 81.004H32.7582ZM33.2422 79.1505C33.3068 79.0566 33.4275 78.9331 33.6486 78.7963L32.5958 77.0957C32.2009 77.3402 31.8522 77.6421 31.5942 78.0175L33.2422 79.1505ZM33.6591 78.7897C33.9272 78.619 34.1849 78.4916 34.4319 78.4018L33.7485 76.5222C33.3502 76.667 32.9625 76.8623 32.5853 77.1023L33.6591 78.7897ZM34.4064 78.4107C34.5861 78.3508 34.8687 78.2878 35.2784 78.2332L35.014 76.2508C34.5437 76.3135 34.1223 76.3972 33.774 76.5133L34.4064 78.4107ZM35.2784 78.2332C35.6975 78.1773 36.0555 78.1441 36.3556 78.1311L36.2688 76.1329C35.8942 76.1492 35.4749 76.1893 35.014 76.2508L35.2784 78.2332ZM36.3122 78.132H37.4782V76.132H36.3122V78.132ZM37.4782 78.132C38.206 78.132 39.2117 78.2506 40.5182 78.509L40.9062 76.547C39.5434 76.2774 38.3931 76.132 37.4782 76.132V78.132ZM39.7122 77.528V79.64H41.7122V77.528H39.7122ZM40.9391 78.6661C39.409 78.3095 38.1603 78.112 37.2362 78.112V80.112C37.9255 80.112 38.9941 80.2665 40.4853 80.6139L40.9391 78.6661ZM37.2362 78.112C36.4147 78.112 35.6231 78.2446 35.0112 78.6565C34.3291 79.1158 34.0142 79.8222 34.0142 80.608H36.0142C36.0142 80.4829 36.037 80.4219 36.0493 80.3972C36.0593 80.3768 36.0768 80.3501 36.1282 80.3155C36.257 80.2288 36.5763 80.112 37.2362 80.112V78.112ZM34.0142 80.608V84.524H36.0142V80.608H34.0142ZM34.0142 84.524C34.0142 85.3633 34.3375 86.1186 35.0547 86.6162C35.7057 87.0677 36.5574 87.218 37.4562 87.218V85.218C36.727 85.218 36.3577 85.0859 36.1947 84.9728C36.0979 84.9057 36.0142 84.814 36.0142 84.524H34.0142ZM37.4562 87.218C38.3579 87.218 39.5789 87.0378 41.079 86.7111L40.6534 84.7569C39.1908 85.0755 38.1385 85.218 37.4562 85.218V87.218ZM39.8662 85.734V87.846H41.8662V85.734H39.8662ZM40.6826 86.863C39.3932 87.1039 38.2535 87.22 37.2582 87.22V89.22C38.4043 89.22 39.6699 89.0868 41.0498 88.829L40.6826 86.863ZM43.6475 78.034L43.0768 77.2128L43.0702 77.2174L43.6475 78.034ZM51.3255 78.012L50.7231 78.8102L50.7315 78.8165L50.74 78.8227L51.3255 78.012ZM52.5135 83.534V84.534H53.5135V83.534H52.5135ZM45.6055 83.534V82.534H44.6055V83.534H45.6055ZM46.2655 85.822L46.78 84.9645V84.9645L46.2655 85.822ZM52.2055 85.756H53.2055V84.4958L51.9783 84.7822L52.2055 85.756ZM52.2055 87.802L52.4143 88.78L53.2055 88.611V87.802H52.2055ZM49.4555 81.708V82.708H50.4555V81.708H49.4555ZM49.0155 79.376L48.4815 80.2215L48.4912 80.2276L48.501 80.2335L49.0155 79.376ZM46.0235 79.376L45.4687 78.5439L45.4588 78.5507L46.0235 79.376ZM45.6055 81.708H44.6055V82.708H45.6055V81.708ZM48.0255 87.22C46.2101 87.22 45.0164 86.9369 44.3063 86.5031C43.6764 86.1183 43.3715 85.587 43.3715 84.766H41.3715C41.3715 86.2477 42.0089 87.4433 43.2637 88.2099C44.4383 88.9274 46.0715 89.22 48.0255 89.22V87.22ZM43.3715 84.766V80.938H41.3715V84.766H43.3715ZM43.3715 80.938C43.3715 79.8265 43.7125 79.2127 44.2247 78.8506L43.0702 77.2174C41.8812 78.058 41.3715 79.3802 41.3715 80.938H43.3715ZM44.2181 78.8552C44.8352 78.4264 45.9167 78.132 47.6295 78.132V76.132C45.7636 76.132 44.1904 76.439 43.0768 77.2128L44.2181 78.8552ZM47.6295 78.132C49.2413 78.132 50.2062 78.4201 50.7231 78.8102L51.9279 77.2138C50.8901 76.4306 49.391 76.132 47.6295 76.132V78.132ZM50.74 78.8227C51.1752 79.137 51.5135 79.7393 51.5135 80.938H53.5135C53.5135 79.3794 53.0598 78.031 51.911 77.2013L50.74 78.8227ZM51.5135 80.938V83.534H53.5135V80.938H51.5135ZM52.5135 82.534H45.6055V84.534H52.5135V82.534ZM44.6055 83.534V84.502H46.6055V83.534H44.6055ZM44.6055 84.502C44.6055 85.3867 44.9452 86.196 45.751 86.6795L46.78 84.9645C46.7058 84.92 46.6055 84.8493 46.6055 84.502H44.6055ZM45.751 86.6795C46.4472 87.0972 47.4889 87.218 48.6415 87.218V85.218C47.5061 85.218 46.9638 85.0748 46.78 84.9645L45.751 86.6795ZM48.6415 87.218C49.792 87.218 51.0581 87.0506 52.4327 86.7298L51.9783 84.7822C50.7129 85.0774 49.603 85.218 48.6415 85.218V87.218ZM51.2055 85.756V87.802H53.2055V85.756H51.2055ZM51.9967 86.824C50.767 87.0866 49.4442 87.22 48.0255 87.22V89.22C49.5694 89.22 51.0333 89.0748 52.4143 88.78L51.9967 86.824ZM50.4555 81.708V80.168H48.4555V81.708H50.4555ZM50.4555 80.168C50.4555 79.4772 50.1351 78.8816 49.53 78.5185L48.501 80.2335C48.5111 80.2396 48.5091 80.2398 48.5009 80.2316C48.4922 80.2229 48.4811 80.2093 48.4713 80.1916C48.4616 80.1741 48.457 80.1596 48.4552 80.1521C48.4536 80.1453 48.4555 80.1494 48.4555 80.168H50.4555ZM49.5495 78.5305C49.0148 78.1928 48.2883 78.112 47.5855 78.112V80.112C47.8836 80.112 48.1071 80.1318 48.2674 80.1614C48.4342 80.1922 48.4879 80.2255 48.4815 80.2215L49.5495 78.5305ZM47.5855 78.112C47.1645 78.112 46.7799 78.1354 46.4453 78.192C46.1266 78.2459 45.7706 78.3427 45.4688 78.5439L46.5782 80.208C46.5403 80.2333 46.5767 80.1981 46.7786 80.164C46.9648 80.1326 47.2292 80.112 47.5855 80.112V78.112ZM45.4588 78.5507C44.908 78.9275 44.6055 79.5002 44.6055 80.168H46.6055C46.6055 80.1527 46.607 80.1491 46.6058 80.1545C46.6044 80.1603 46.6011 80.1711 46.5944 80.1838C46.5877 80.1964 46.5807 80.2052 46.5768 80.2095C46.5732 80.2135 46.5753 80.2101 46.5882 80.2013L45.4588 78.5507ZM44.6055 80.168V81.708H46.6055V80.168H44.6055ZM45.6055 82.708H49.4555V80.708H45.6055V82.708ZM54.9685 77.352V76.352H53.9685V77.352H54.9685ZM58.1365 77.352H59.1365V76.352H58.1365V77.352ZM58.1365 78.65H57.1365L59.1075 78.8892L58.1365 78.65ZM64.4065 77.88L63.7299 78.6163L63.7403 78.6258L63.7509 78.635L64.4065 77.88ZM65.2425 88V89H66.2425V88H65.2425ZM62.0305 88H61.0305V89H62.0305V88ZM61.8985 79.684L60.9568 80.0203L60.9672 80.0495L60.9794 80.0779L61.8985 79.684ZM61.4145 79.244L61.0634 80.1803L61.0725 80.1837L61.0817 80.187L61.4145 79.244ZM58.9285 79.244L59.1711 80.2141L59.1936 80.2085L59.2159 80.2018L58.9285 79.244ZM58.1805 88V89H59.1805V88H58.1805ZM54.9685 88H53.9685V89H54.9685V88ZM54.9685 78.352H58.1365V76.352H54.9685V78.352ZM57.1365 77.352V78.65H59.1365V77.352H57.1365ZM59.1075 78.8892C59.1436 78.7426 59.2354 78.5797 59.5827 78.4251C59.9675 78.2538 60.5974 78.132 61.5465 78.132V76.132C60.4717 76.132 59.5213 76.2632 58.7694 76.5979C57.9801 76.9493 57.3788 77.5454 57.1656 78.4108L59.1075 78.8892ZM61.5465 78.132C62.8498 78.132 63.4754 78.3824 63.7299 78.6163L65.0832 77.1437C64.2524 76.3802 62.9713 76.132 61.5465 76.132V78.132ZM63.7509 78.635C64.0083 78.8586 64.2425 79.2952 64.2425 80.19H66.2425C66.2425 78.9728 65.9195 77.8694 65.0622 77.125L63.7509 78.635ZM64.2425 80.19V88H66.2425V80.19H64.2425ZM65.2425 87H62.0305V89H65.2425V87ZM63.0305 88V80.608H61.0305V88H63.0305ZM63.0305 80.608C63.0305 80.1564 62.9867 79.6844 62.8177 79.2901L60.9794 80.0779C60.9783 80.0753 60.9935 80.1121 61.0076 80.2104C61.0212 80.3055 61.0305 80.436 61.0305 80.608H63.0305ZM62.8403 79.3477C62.6441 78.7982 62.214 78.4657 61.7474 78.301L61.0817 80.187C61.1068 80.1958 61.0864 80.1932 61.0499 80.1599C61.0091 80.1229 60.9753 80.0722 60.9568 80.0203L62.8403 79.3477ZM61.7657 78.3077C61.3553 78.1538 60.8385 78.112 60.3145 78.112V80.112C60.7879 80.112 61.0045 80.1582 61.0634 80.1803L61.7657 78.3077ZM60.3145 78.112C59.6668 78.112 59.0819 78.154 58.6412 78.2862L59.2159 80.2018C59.3618 80.158 59.701 80.112 60.3145 80.112V78.112ZM58.686 78.2739C58.205 78.3941 57.7118 78.6715 57.4401 79.2148L59.229 80.1092C59.2169 80.1333 59.2013 80.1568 59.183 80.1777C59.1649 80.1985 59.1478 80.2127 59.1355 80.2213C59.1123 80.2377 59.1152 80.2281 59.1711 80.2141L58.686 78.2739ZM57.4401 79.2148C57.2313 79.6324 57.1805 80.1382 57.1805 80.608H59.1805C59.1805 80.4327 59.1913 80.3036 59.2061 80.2132C59.2213 80.1192 59.2366 80.094 59.229 80.1092L57.4401 79.2148ZM57.1805 80.608V88H59.1805V80.608H57.1805ZM58.1805 87H54.9685V89H58.1805V87ZM55.9685 88V77.352H53.9685V88H55.9685ZM67.8325 87.89H66.8325V88.766L67.7009 88.8813L67.8325 87.89ZM67.8325 85.756L67.9819 84.7672L66.8325 84.5936V85.756H67.8325ZM73.5745 86.02L73.9532 86.9455L73.5745 86.02ZM73.7505 83.864L73.1327 84.6503L73.1507 84.6644L73.1693 84.6777L73.7505 83.864ZM68.5365 82.962L67.9427 83.7666L67.949 83.7712L67.9553 83.7757L68.5365 82.962ZM68.9325 77.726L69.3302 78.6436L69.3429 78.6379L68.9325 77.726ZM76.6985 77.33H77.6985V76.4L76.7709 76.3326L76.6985 77.33ZM76.6985 79.376L76.6218 80.3731L77.6985 80.4559V79.376H76.6985ZM71.1325 79.288L70.7264 78.3742L70.6833 78.3933L70.6423 78.4164L71.1325 79.288ZM71.0665 81.092L70.4568 81.8846L70.4767 81.8999L70.4973 81.9142L71.0665 81.092ZM76.9405 86.526L76.0461 86.0788L76.9405 86.526ZM76.1925 87.428L76.766 88.2473L76.7738 88.2417L76.1925 87.428ZM75.0485 87.912L74.806 86.9418L74.7987 86.9437L75.0485 87.912ZM73.6185 88.154L73.5306 87.1578L73.5222 87.1586L73.6185 88.154ZM72.0345 87.22C70.9495 87.22 69.5958 87.1153 67.9641 86.8987L67.7009 88.8813C69.384 89.1047 70.8315 89.22 72.0345 89.22V87.22ZM68.8325 87.89V85.756H66.8325V87.89H68.8325ZM67.6831 86.7448C69.7173 87.0521 71.2018 87.218 72.0785 87.218V85.218C71.3713 85.218 70.0251 85.0759 67.9819 84.7672L67.6831 86.7448ZM72.0785 87.218C72.7846 87.218 73.4442 87.1538 73.9532 86.9455L73.1959 85.0945C73.0595 85.1502 72.7218 85.218 72.0785 85.218V87.218ZM73.9532 86.9455C74.2619 86.8192 74.5577 86.6119 74.7696 86.2942C74.9809 85.9771 75.0585 85.6254 75.0585 85.294H73.0585C73.0585 85.3146 73.0554 85.2599 73.1055 85.1848C73.156 85.109 73.2098 85.0888 73.1959 85.0945L73.9532 86.9455ZM75.0585 85.294V84.634H73.0585V85.294H75.0585ZM75.0585 84.634C75.0585 84.0993 74.9047 83.4595 74.3318 83.0503L73.1693 84.6777C73.1391 84.6562 73.1121 84.6299 73.0905 84.6015C73.0693 84.5738 73.0581 84.5505 73.0531 84.5379C73.0445 84.5164 73.0585 84.5386 73.0585 84.634H75.0585ZM74.3684 83.0777C74.0913 82.86 73.7661 82.7571 73.4902 82.7019C73.2018 82.6442 72.8798 82.622 72.5405 82.622V84.622C72.8026 84.622 72.9829 84.6401 73.0979 84.6631C73.2253 84.6885 73.2044 84.7066 73.1327 84.6503L74.3684 83.0777ZM72.5405 82.622H71.1545V84.622H72.5405V82.622ZM71.1545 82.622C70.1365 82.622 69.4993 82.4208 69.1178 82.1483L67.9553 83.7757C68.8057 84.3832 69.9139 84.622 71.1545 84.622V82.622ZM69.1304 82.1574C68.8057 81.9178 68.6125 81.5774 68.6125 80.982H66.6125C66.6125 82.1173 67.0353 83.0969 67.9427 83.7666L69.1304 82.1574ZM68.6125 80.982V79.684H66.6125V80.982H68.6125ZM68.6125 79.684C68.6125 79.3858 68.6813 79.1945 68.7717 79.0605C68.8638 78.9239 69.0268 78.775 69.3301 78.6436L68.5349 76.8084C67.9583 77.0583 67.4613 77.4264 67.1134 77.9425C66.7637 78.4611 66.6125 79.0582 66.6125 79.684H68.6125ZM69.3429 78.6379C70.0268 78.3302 71.1823 78.132 72.9145 78.132V76.132C71.0975 76.132 69.5983 76.3298 68.5222 76.8141L69.3429 78.6379ZM72.9145 78.132C73.5777 78.132 74.8055 78.1952 76.6261 78.3274L76.7709 76.3326C74.9543 76.2008 73.6594 76.132 72.9145 76.132V78.132ZM75.6985 77.33V79.376H77.6985V77.33H75.6985ZM76.7752 78.3789C74.5165 78.2052 73.1698 78.112 72.8265 78.112V80.112C73.07 80.112 74.3046 80.1948 76.6218 80.3731L76.7752 78.3789ZM72.8265 78.112C72.3752 78.112 71.9802 78.1271 71.6507 78.1614C71.3443 78.1932 71.0077 78.2492 70.7264 78.3742L71.5387 80.2018C71.5213 80.2095 71.5991 80.1775 71.8574 80.1506C72.0926 80.1262 72.4125 80.112 72.8265 80.112V78.112ZM70.6423 78.4164C69.9951 78.7804 69.7805 79.4287 69.7805 80.014H71.7805C71.7805 79.9443 71.7927 79.9545 71.7683 80.0048C71.7555 80.0312 71.7355 80.0625 71.7067 80.093C71.678 80.1235 71.6481 80.1453 71.6228 80.1596L70.6423 78.4164ZM69.7805 80.014V80.586H71.7805V80.014H69.7805ZM69.7805 80.586C69.7805 81.1668 70.0909 81.6032 70.4568 81.8846L71.6762 80.2994C71.6623 80.2886 71.6905 80.3066 71.7226 80.3634C71.7583 80.4267 71.7805 80.506 71.7805 80.586H69.7805ZM70.4973 81.9142C70.9267 82.2115 71.4415 82.29 71.9025 82.29V80.29C71.7763 80.29 71.6952 80.2784 71.649 80.2674C71.6034 80.2566 71.6076 80.2503 71.6357 80.2698L70.4973 81.9142ZM71.9025 82.29H73.3105V80.29H71.9025V82.29ZM73.3105 82.29C74.5392 82.29 75.2875 82.496 75.7016 82.7658C76.0414 82.9873 76.2265 83.2925 76.2265 83.842H78.2265C78.2265 82.6902 77.759 81.7194 76.7935 81.0902C75.9022 80.5094 74.6926 80.29 73.3105 80.29V82.29ZM76.2265 83.842V85.184H78.2265V83.842H76.2265ZM76.2265 85.184C76.2265 85.5734 76.1546 85.8618 76.0461 86.0788L77.835 86.9732C78.1078 86.4275 78.2265 85.8213 78.2265 85.184H76.2265ZM76.0461 86.0788C75.919 86.3329 75.7706 86.5005 75.6113 86.6143L76.7738 88.2417C77.2305 87.9155 77.5807 87.4818 77.835 86.9732L76.0461 86.0788ZM75.6191 86.6088C75.4543 86.7241 75.1958 86.8444 74.806 86.9419L75.2911 88.8821C75.84 88.7449 76.3441 88.5425 76.766 88.2472L75.6191 86.6088ZM74.7987 86.9437C74.4005 87.0465 73.9782 87.1184 73.5306 87.1579L73.7064 89.1501C74.2562 89.1016 74.7872 89.0122 75.2984 88.8803L74.7987 86.9437ZM73.5222 87.1586C73.1077 87.1988 72.6131 87.22 72.0345 87.22V89.22C72.6586 89.22 73.22 89.1972 73.7149 89.1493L73.5222 87.1586ZM89.4334 88.11L89.3179 89.1033L89.4334 88.11ZM87.5634 87.736L87.8382 86.7745L87.8297 86.772L87.8211 86.7698L87.5634 87.736ZM85.9354 87.032L85.3489 87.8419L85.3582 87.8487L85.3677 87.8552L85.9354 87.032ZM84.9014 85.844L84.0121 86.3013L84.0177 86.3122L84.0235 86.3229L84.9014 85.844ZM84.9454 76.208L85.8353 76.6643L85.8399 76.6552L84.9454 76.208ZM86.1334 74.822L85.5847 73.9859L85.5731 73.9937L86.1334 74.822ZM87.8054 74.03L87.4892 73.0813L87.4828 73.0835L87.8054 74.03ZM89.7414 73.59L89.631 72.5961L89.6259 72.5967L89.7414 73.59ZM97.4634 73.964H98.4634V73.1169L97.6278 72.9776L97.4634 73.964ZM97.4634 76.56L97.2288 77.5321L98.4634 77.8301V76.56H97.4634ZM88.9274 85.338L88.5213 86.2518L88.5287 86.2551L88.9274 85.338ZM94.2734 85.448L94.5322 86.4139L95.2734 86.2154V85.448H94.2734ZM94.2734 82.126H95.2734V81.126H94.2734V82.126ZM91.9414 82.126H90.9414V83.126H91.9414V82.126ZM91.9414 79.882V78.882H90.9414V79.882H91.9414ZM97.5514 79.882H98.5514V78.882H97.5514V79.882ZM97.5514 87.296L97.8902 88.2369L98.5514 87.9988V87.296H97.5514ZM94.7354 87.956L94.5834 86.9676L94.5815 86.9679L94.7354 87.956ZM91.6114 87.22C90.8182 87.22 90.1321 87.1845 89.5489 87.1167L89.3179 89.1033C89.9962 89.1822 90.762 89.22 91.6114 89.22V87.22ZM89.5489 87.1167C88.9726 87.0497 88.4025 86.9357 87.8382 86.7745L87.2887 88.6975C87.9564 88.8883 88.6329 89.0237 89.3179 89.1033L89.5489 87.1167ZM87.8211 86.7698C87.2383 86.6144 86.8092 86.4198 86.5032 86.2088L85.3677 87.8552C85.9123 88.2308 86.5686 88.5056 87.3058 88.7022L87.8211 86.7698ZM86.5219 86.2221C86.2232 86.0057 85.9757 85.7252 85.7793 85.3651L84.0235 86.3229C84.3552 86.9308 84.797 87.4423 85.3489 87.8419L86.5219 86.2221ZM85.7907 85.3867C85.6093 85.0339 85.5054 84.6079 85.5054 84.084H83.5054C83.5054 84.8801 83.6656 85.6275 84.0121 86.3013L85.7907 85.3867ZM85.5054 84.084V78.144H83.5054V84.084H85.5054ZM85.5054 78.144C85.5054 77.5651 85.6225 77.0792 85.8353 76.6643L84.0556 75.7517C83.6817 76.4808 83.5054 77.2856 83.5054 78.144H85.5054ZM85.8399 76.6552C86.0635 76.208 86.3499 75.8829 86.6937 75.6503L85.5731 73.9937C84.9197 74.4358 84.4141 75.0346 84.051 75.7608L85.8399 76.6552ZM86.6821 75.658C87.0679 75.4049 87.5461 75.1749 88.1281 74.9765L87.4828 73.0835C86.7741 73.3251 86.1376 73.6231 85.5848 73.986L86.6821 75.658ZM88.1217 74.9787C88.7226 74.7784 89.3007 74.648 89.8569 74.5833L89.6259 72.5967C88.9209 72.6787 88.2083 72.8416 87.4892 73.0813L88.1217 74.9787ZM89.8519 74.5839C90.3318 74.5306 90.9307 74.502 91.6554 74.502V72.502C90.8841 72.502 90.2071 72.5321 89.631 72.5961L89.8519 74.5839ZM91.6554 74.502C93.6287 74.502 95.5095 74.6521 97.299 74.9504L97.6278 72.9776C95.7214 72.6599 93.7302 72.502 91.6554 72.502V74.502ZM96.4634 73.964V76.56H98.4634V73.964H96.4634ZM97.6981 75.5879C95.9042 75.1549 93.8871 74.944 91.6554 74.944V76.944C93.7651 76.944 95.6201 77.1438 97.2288 77.5321L97.6981 75.5879ZM91.6554 74.944C90.3522 74.944 89.2116 75.1272 88.3653 75.6179C87.4359 76.1569 86.9374 77.0262 86.9374 78.1H88.9374C88.9374 77.7365 89.0586 77.5278 89.3686 77.3481C89.7616 77.1202 90.48 76.944 91.6554 76.944V74.944ZM86.9374 78.1V83.842H88.9374V78.1H86.9374ZM86.9374 83.842C86.9374 84.3548 87.0596 84.8556 87.351 85.2959C87.6413 85.7345 88.0536 86.044 88.5213 86.2518L89.3336 84.4242C89.1413 84.3387 89.0586 84.2522 89.0189 84.1921C88.9802 84.1338 88.9374 84.0332 88.9374 83.842H86.9374ZM88.5287 86.2551C89.3943 86.6314 90.5724 86.778 91.9634 86.778V84.778C90.6559 84.778 89.8099 84.6313 89.3262 84.4209L88.5287 86.2551ZM91.9634 86.778C92.7837 86.778 93.6414 86.6525 94.5322 86.4139L94.0147 84.4821C93.2628 84.6835 92.5805 84.778 91.9634 84.778V86.778ZM95.2734 85.448V82.126H93.2734V85.448H95.2734ZM94.2734 81.126H91.9414V83.126H94.2734V81.126ZM92.9414 82.126V79.882H90.9414V82.126H92.9414ZM91.9414 80.882H97.5514V78.882H91.9414V80.882ZM96.5514 79.882V87.296H98.5514V79.882H96.5514ZM97.2127 86.3551C96.5614 86.5896 95.6912 86.7972 94.5834 86.9676L94.8875 88.9444C96.0677 88.7628 97.0748 88.5304 97.8902 88.2369L97.2127 86.3551ZM94.5815 86.9679C93.4934 87.1375 92.5043 87.22 91.6114 87.22V89.22C92.6253 89.22 93.7188 89.1265 94.8894 88.9441L94.5815 86.9679ZM100.963 87.956L100.597 88.8864L100.613 88.893L100.63 88.899L100.963 87.956ZM99.9292 86.966L98.9987 87.3325L99.0056 87.3498L99.013 87.3668L99.9292 86.966ZM99.9512 82.808L99.0408 82.3942L99.0355 82.4058L99.0306 82.4174L99.9512 82.808ZM100.985 81.774L101.386 82.6902L101.392 82.6873L101.399 82.6844L100.985 81.774ZM106.573 81.444V82.444H107.573V81.444H106.573ZM106.375 79.706L105.493 80.1766L105.505 80.1989L105.518 80.2205L106.375 79.706ZM105.693 79.244L105.43 80.2088L105.441 80.2116L105.693 79.244ZM100.479 79.376H99.4792V80.4933L100.59 80.3699L100.479 79.376ZM100.479 77.352L100.354 76.3599L99.4792 76.4706V77.352H100.479ZM107.695 77.44L107.426 78.403L107.43 78.4043L107.695 77.44ZM109.301 78.496L108.462 79.0393V79.0393L109.301 78.496ZM109.785 88V89H110.785V88H109.785ZM106.639 88H105.639V89H106.639V88ZM106.639 87.032H107.639V83.3487L105.776 86.5263L106.639 87.032ZM105.627 87.934L105.245 87.01L105.231 87.0155L105.218 87.0215L105.627 87.934ZM105.847 86.152L105.706 85.1621L105.698 85.1631L105.691 85.1642L105.847 86.152ZM106.265 86.02L105.71 85.1879L105.674 85.212L105.64 85.2391L106.265 86.02ZM106.485 85.734L105.617 85.2379L105.592 85.2817L105.571 85.3279L106.485 85.734ZM106.573 83.204H107.573V82.204H106.573V83.204ZM103.317 83.314L103.592 84.2755L103.623 84.2666L103.653 84.2557L103.317 83.314ZM102.899 83.71L103.833 84.069L103.837 84.0577L103.841 84.0463L102.899 83.71ZM102.899 85.756L103.833 85.397L102.899 85.756ZM103.317 86.13L103.042 87.0915L103.051 87.094L103.059 87.0962L103.317 86.13ZM103.207 87.22C102.241 87.22 101.631 87.1313 101.296 87.013L100.63 88.899C101.293 89.1327 102.178 89.22 103.207 89.22V87.22ZM101.33 87.0256C101.087 86.9302 100.943 86.7881 100.845 86.5652L99.013 87.3668C99.3261 88.0826 99.8709 88.6005 100.597 88.8864L101.33 87.0256ZM100.86 86.5995C100.739 86.2922 100.643 85.7246 100.643 84.81H98.6432C98.6432 85.8021 98.7384 86.6718 98.9987 87.3325L100.86 86.5995ZM100.643 84.81C100.643 84.0206 100.741 83.506 100.872 83.1985L99.0306 82.4174C98.7504 83.078 98.6432 83.8981 98.6432 84.81H100.643ZM100.862 83.2218C100.984 82.953 101.152 82.7926 101.386 82.6902L100.584 80.8578C99.8798 81.1661 99.3586 81.695 99.0408 82.3942L100.862 83.2218ZM101.399 82.6844C101.7 82.5476 102.199 82.444 102.965 82.444V80.444C102.059 80.444 101.238 80.5604 100.571 80.8636L101.399 82.6844ZM102.965 82.444H106.573V80.444H102.965V82.444ZM107.573 81.444V80.718H105.573V81.444H107.573ZM107.573 80.718C107.573 80.2033 107.505 79.6455 107.233 79.1915L105.518 80.2205C105.508 80.2036 105.524 80.2249 105.542 80.316C105.56 80.405 105.573 80.5358 105.573 80.718H107.573ZM107.258 79.2354C106.963 78.6836 106.442 78.406 105.946 78.2764L105.441 80.2116C105.483 80.2227 105.513 80.2334 105.532 80.2415C105.551 80.2496 105.557 80.2545 105.556 80.2534C105.554 80.2521 105.544 80.2452 105.531 80.2311C105.518 80.2166 105.504 80.1981 105.493 80.1766L107.258 79.2354ZM105.956 78.2792C105.5 78.1549 104.899 78.112 104.219 78.112V80.112C104.859 80.112 105.241 80.1571 105.43 80.2088L105.956 78.2792ZM104.219 78.112C103.255 78.112 101.967 78.2046 100.369 78.3821L100.59 80.3699C102.16 80.1954 103.364 80.112 104.219 80.112V78.112ZM101.479 79.376V77.352H99.4792V79.376H101.479ZM100.605 78.3441C101.711 78.2041 103.024 78.132 104.549 78.132V76.132C102.965 76.132 101.565 76.2066 100.354 76.3599L100.605 78.3441ZM104.549 78.132C105.882 78.132 106.823 78.2343 107.426 78.403L107.965 76.477C107.1 76.235 105.945 76.132 104.549 76.132V78.132ZM107.43 78.4043C108.016 78.565 108.309 78.8033 108.462 79.0393L110.141 77.9527C109.648 77.1914 108.871 76.7257 107.96 76.4757L107.43 78.4043ZM108.462 79.0393C108.634 79.3055 108.785 79.8073 108.785 80.674H110.785C110.785 79.6341 110.614 78.6839 110.141 77.9527L108.462 79.0393ZM108.785 80.674V88H110.785V80.674H108.785ZM109.785 87H106.639V89H109.785V87ZM107.639 88V87.032H105.639V88H107.639ZM105.776 86.5263C105.629 86.7778 105.454 86.9234 105.245 87.01L106.01 88.858C106.651 88.5926 107.151 88.1369 107.502 87.5377L105.776 86.5263ZM105.218 87.0215C105.142 87.0556 104.951 87.1122 104.586 87.1554C104.235 87.1969 103.778 87.22 103.207 87.22V89.22C103.824 89.22 104.365 89.1954 104.821 89.1416C105.262 89.0895 105.687 89.0031 106.036 88.8465L105.218 87.0215ZM104.461 87.218C105.11 87.218 105.64 87.1971 106.003 87.1398L105.691 85.1642C105.497 85.1949 105.103 85.218 104.461 85.218V87.218ZM105.989 87.1419C106.205 87.1111 106.587 87.0429 106.89 86.8009L105.64 85.2391C105.693 85.1967 105.738 85.1726 105.763 85.1607C105.788 85.1485 105.804 85.1436 105.805 85.1434C105.806 85.143 105.799 85.1453 105.781 85.1491C105.763 85.1529 105.739 85.1574 105.706 85.1621L105.989 87.1419ZM106.82 86.8521C107.113 86.6565 107.291 86.384 107.399 86.1401L105.571 85.3279C105.562 85.348 105.593 85.2662 105.71 85.1879L106.82 86.8521ZM107.353 86.2301C107.541 85.9025 107.573 85.5398 107.573 85.272H105.573C105.573 85.2998 105.572 85.3206 105.571 85.335C105.57 85.3496 105.569 85.3556 105.569 85.3544C105.569 85.3533 105.571 85.342 105.578 85.3231C105.584 85.3041 105.596 85.2742 105.617 85.2379L107.353 86.2301ZM107.573 85.272V83.204H105.573V85.272H107.573ZM106.573 82.204H104.373V84.204H106.573V82.204ZM104.373 82.204C103.869 82.204 103.363 82.2356 102.981 82.3723L103.653 84.2557C103.649 84.2573 103.7 84.2406 103.839 84.2261C103.97 84.2125 104.146 84.204 104.373 84.204V82.204ZM103.042 82.3525C102.519 82.5019 102.137 82.8721 101.957 83.3737L103.841 84.0463C103.832 84.0714 103.806 84.127 103.746 84.183C103.687 84.2395 103.626 84.2657 103.592 84.2755L103.042 82.3525ZM101.966 83.351C101.819 83.7339 101.789 84.2497 101.789 84.744H103.789C103.789 84.5161 103.798 84.343 103.811 84.2173C103.826 84.0804 103.841 84.0459 103.833 84.069L101.966 83.351ZM101.789 84.744C101.789 85.228 101.819 85.7338 101.966 86.115L103.833 85.397C103.841 85.4179 103.825 85.3833 103.811 85.2519C103.798 85.1307 103.789 84.9637 103.789 84.744H101.789ZM101.966 86.115C102.158 86.614 102.551 86.9512 103.042 87.0915L103.592 85.1685C103.614 85.1748 103.667 85.1953 103.725 85.2473C103.785 85.3003 103.818 85.3583 103.833 85.397L101.966 86.115ZM103.059 87.0962C103.419 87.1921 103.918 87.218 104.461 87.218V85.218C103.919 85.218 103.655 85.1853 103.575 85.1638L103.059 87.0962ZM112.611 77.352V76.352H111.611V77.352H112.611ZM115.823 77.352H116.823V76.352H115.823V77.352ZM115.823 78.65H114.823L116.803 78.8488L115.823 78.65ZM121.235 77.528L120.778 78.4173L120.788 78.4225L120.798 78.4275L121.235 77.528ZM122.269 78.716L121.318 79.0245L122.282 81.9966L123.223 79.0171L122.269 78.716ZM123.281 77.506L122.844 76.6064L122.834 76.6116L123.281 77.506ZM127.725 77.462L127.321 78.3769L127.333 78.3819L127.344 78.3867L127.725 77.462ZM128.759 78.43L127.842 78.8276L127.847 78.8403L127.853 78.8529L128.759 78.43ZM129.067 88V89H130.067V88H129.067ZM125.855 88H124.855V89H125.855V88ZM125.767 79.64L124.806 79.9147L124.808 79.9244L124.811 79.9341L125.767 79.64ZM125.371 79.222L125.012 80.1553L125.023 80.1597L125.035 80.1637L125.371 79.222ZM123.061 79.222L122.793 78.2585L122.786 78.2605L122.779 78.2626L123.061 79.222ZM122.555 79.64L121.636 79.2461L121.629 79.2634L121.622 79.281L122.555 79.64ZM122.445 88V89H123.445V88H122.445ZM119.233 88H118.233V89H119.233V88ZM119.145 79.64L118.184 79.9147L118.186 79.9244L118.189 79.9341L119.145 79.64ZM118.749 79.222L118.39 80.1553L118.401 80.1597L118.413 80.1637L118.749 79.222ZM116.439 79.222L116.171 78.2585L116.164 78.2605L116.157 78.2626L116.439 79.222ZM115.933 79.64L115.014 79.2461L115.007 79.2634L115 79.281L115.933 79.64ZM115.823 88V89H116.823V88H115.823ZM112.611 88H111.611V89H112.611V88ZM112.611 78.352H115.823V76.352H112.611V78.352ZM114.823 77.352V78.65H116.823V77.352H114.823ZM116.803 78.8488C116.835 78.6912 116.914 78.5491 117.198 78.4121C117.528 78.253 118.09 78.132 118.969 78.132V76.132C117.956 76.132 117.048 76.264 116.329 76.6109C115.564 76.9799 115.016 77.5968 114.843 78.4512L116.803 78.8488ZM118.969 78.132C119.908 78.132 120.474 78.2611 120.778 78.4173L121.692 76.6387C120.97 76.2669 120.025 76.132 118.969 76.132V78.132ZM120.798 78.4275C121.067 78.558 121.226 78.7407 121.318 79.0245L123.22 78.4075C122.96 77.606 122.43 76.9966 121.672 76.6285L120.798 78.4275ZM123.223 79.0171C123.322 78.704 123.485 78.5223 123.728 78.4004L122.834 76.6116C122.08 76.9884 121.569 77.6133 121.316 78.4149L123.223 79.0171ZM123.718 78.4055C124.026 78.2559 124.613 78.132 125.591 78.132V76.132C124.516 76.132 123.563 76.2574 122.844 76.6065L123.718 78.4055ZM125.591 78.132C126.46 78.132 127.009 78.239 127.321 78.3769L128.129 76.5471C127.444 76.245 126.571 76.132 125.591 76.132V78.132ZM127.344 78.3867C127.635 78.5063 127.768 78.657 127.842 78.8276L129.677 78.0324C129.369 77.323 128.813 76.8284 128.106 76.5373L127.344 78.3867ZM127.853 78.8529C127.973 79.1104 128.067 79.535 128.067 80.19H130.067C130.067 79.3783 129.956 78.6296 129.665 78.0071L127.853 78.8529ZM128.067 80.19V88H130.067V80.19H128.067ZM129.067 87H125.855V89H129.067V87ZM126.855 88V80.63H124.855V88H126.855ZM126.855 80.63C126.855 80.1591 126.83 79.6942 126.723 79.3459L124.811 79.9341C124.811 79.9332 124.825 79.9845 124.837 80.119C124.848 80.2453 124.855 80.4138 124.855 80.63H126.855ZM126.729 79.3653C126.579 78.8421 126.209 78.4594 125.707 78.2803L125.035 80.1637C125.01 80.1548 124.954 80.1284 124.898 80.0692C124.842 80.0095 124.815 79.949 124.806 79.9147L126.729 79.3653ZM125.73 78.2887C125.349 78.1421 124.843 78.112 124.359 78.112V80.112C124.579 80.112 124.746 80.1205 124.867 80.1336C124.998 80.1479 125.033 80.1634 125.012 80.1553L125.73 78.2887ZM124.359 78.112C123.749 78.112 123.198 78.146 122.793 78.2585L123.329 80.1855C123.452 80.1513 123.767 80.112 124.359 80.112V78.112ZM122.779 78.2626C122.296 78.4048 121.861 78.7204 121.636 79.2461L123.474 80.0339C123.457 80.0744 123.426 80.1185 123.385 80.1525C123.347 80.1835 123.324 80.1869 123.343 80.1814L122.779 78.2626ZM121.622 79.281C121.476 79.6603 121.445 80.1562 121.445 80.63H123.445C123.445 80.4185 123.454 80.2577 123.467 80.1409C123.48 80.0151 123.496 79.9805 123.488 79.999L121.622 79.281ZM121.445 80.63V88H123.445V80.63H121.445ZM122.445 87H119.233V89H122.445V87ZM120.233 88V80.63H118.233V88H120.233ZM120.233 80.63C120.233 80.1591 120.208 79.6942 120.101 79.3459L118.189 79.9341C118.189 79.9332 118.203 79.9845 118.215 80.119C118.226 80.2453 118.233 80.4138 118.233 80.63H120.233ZM120.107 79.3653C119.957 78.8421 119.587 78.4594 119.085 78.2803L118.413 80.1637C118.388 80.1548 118.332 80.1284 118.276 80.0692C118.22 80.0095 118.193 79.949 118.184 79.9147L120.107 79.3653ZM119.108 78.2887C118.727 78.1421 118.221 78.112 117.737 78.112V80.112C117.957 80.112 118.124 80.1205 118.245 80.1336C118.376 80.1479 118.411 80.1634 118.39 80.1553L119.108 78.2887ZM117.737 78.112C117.127 78.112 116.576 78.146 116.171 78.2585L116.707 80.1855C116.83 80.1513 117.145 80.112 117.737 80.112V78.112ZM116.157 78.2626C115.674 78.4048 115.239 78.7204 115.014 79.2461L116.852 80.0339C116.835 80.0744 116.804 80.1185 116.763 80.1525C116.725 80.1835 116.702 80.1869 116.721 80.1814L116.157 78.2626ZM115 79.281C114.854 79.6603 114.823 80.1562 114.823 80.63H116.823C116.823 80.4185 116.832 80.2577 116.845 80.1409C116.858 80.0151 116.874 79.9805 116.866 79.999L115 79.281ZM114.823 80.63V88H116.823V80.63H114.823ZM115.823 87H112.611V89H115.823V87ZM113.611 88V77.352H111.611V88H113.611ZM132.851 78.034L132.28 77.2128L132.273 77.2174L132.851 78.034ZM140.529 78.012L139.926 78.8102L139.935 78.8165L139.943 78.8227L140.529 78.012ZM141.717 83.534V84.534H142.717V83.534H141.717ZM134.809 83.534V82.534H133.809V83.534H134.809ZM135.469 85.822L135.983 84.9645V84.9645L135.469 85.822ZM141.409 85.756H142.409V84.4958L141.181 84.7822L141.409 85.756ZM141.409 87.802L141.617 88.78L142.409 88.611V87.802H141.409ZM138.659 81.708V82.708H139.659V81.708H138.659ZM138.219 79.376L137.685 80.2215L137.694 80.2276L137.704 80.2335L138.219 79.376ZM135.227 79.376L134.672 78.5439L134.662 78.5507L135.227 79.376ZM134.809 81.708H133.809V82.708H134.809V81.708ZM137.229 87.22C135.413 87.22 134.219 86.9369 133.509 86.5031C132.88 86.1183 132.575 85.587 132.575 84.766H130.575C130.575 86.2477 131.212 87.4433 132.467 88.2099C133.641 88.9274 135.275 89.22 137.229 89.22V87.22ZM132.575 84.766V80.938H130.575V84.766H132.575ZM132.575 80.938C132.575 79.8265 132.916 79.2127 133.428 78.8506L132.273 77.2174C131.084 78.058 130.575 79.3802 130.575 80.938H132.575ZM133.421 78.8552C134.038 78.4264 135.12 78.132 136.833 78.132V76.132C134.967 76.132 133.394 76.439 132.28 77.2128L133.421 78.8552ZM136.833 78.132C138.444 78.132 139.409 78.4201 139.926 78.8102L141.131 77.2138C140.093 76.4306 138.594 76.132 136.833 76.132V78.132ZM139.943 78.8227C140.378 79.137 140.717 79.7393 140.717 80.938H142.717C142.717 79.3794 142.263 78.031 141.114 77.2013L139.943 78.8227ZM140.717 80.938V83.534H142.717V80.938H140.717ZM141.717 82.534H134.809V84.534H141.717V82.534ZM133.809 83.534V84.502H135.809V83.534H133.809ZM133.809 84.502C133.809 85.3867 134.148 86.196 134.954 86.6795L135.983 84.9645C135.909 84.92 135.809 84.8493 135.809 84.502H133.809ZM134.954 86.6795C135.65 87.0972 136.692 87.218 137.845 87.218V85.218C136.709 85.218 136.167 85.0748 135.983 84.9645L134.954 86.6795ZM137.845 87.218C138.995 87.218 140.261 87.0506 141.636 86.7298L141.181 84.7822C139.916 85.0774 138.806 85.218 137.845 85.218V87.218ZM140.409 85.756V87.802H142.409V85.756H140.409ZM141.2 86.824C139.97 87.0866 138.647 87.22 137.229 87.22V89.22C138.773 89.22 140.236 89.0748 141.617 88.78L141.2 86.824ZM139.659 81.708V80.168H137.659V81.708H139.659ZM139.659 80.168C139.659 79.4772 139.338 78.8816 138.733 78.5185L137.704 80.2335C137.714 80.2396 137.712 80.2398 137.704 80.2316C137.695 80.2229 137.684 80.2093 137.674 80.1916C137.665 80.1741 137.66 80.1596 137.658 80.1521C137.657 80.1453 137.659 80.1494 137.659 80.168H139.659ZM138.753 78.5305C138.218 78.1928 137.491 78.112 136.789 78.112V80.112C137.087 80.112 137.31 80.1318 137.471 80.1614C137.637 80.1922 137.691 80.2255 137.685 80.2215L138.753 78.5305ZM136.789 78.112C136.368 78.112 135.983 78.1354 135.648 78.192C135.33 78.2459 134.974 78.3427 134.672 78.5439L135.781 80.208C135.743 80.2333 135.78 80.1981 135.982 80.164C136.168 80.1326 136.432 80.112 136.789 80.112V78.112ZM134.662 78.5507C134.111 78.9275 133.809 79.5002 133.809 80.168H135.809C135.809 80.1527 135.81 80.1491 135.809 80.1545C135.808 80.1603 135.804 80.1711 135.798 80.1838C135.791 80.1964 135.784 80.2052 135.78 80.2095C135.776 80.2135 135.778 80.2101 135.791 80.2013L134.662 78.5507ZM133.809 80.168V81.708H135.809V80.168H133.809ZM134.809 82.708H138.659V80.708H134.809V82.708ZM148.934 87.824H147.934V88.7012L148.804 88.8155L148.934 87.824ZM148.934 85.206L149.085 84.2175L147.934 84.0414V85.206H148.934ZM156.48 82.302L155.793 83.029L155.803 83.0383L155.813 83.0472L156.48 82.302ZM150.21 74.382L150.701 75.2532L150.21 74.382ZM159.626 73.788H160.626V72.8881L159.731 72.7935L159.626 73.788ZM159.626 76.34L159.508 77.333L160.626 77.4663V76.34H159.626ZM152.718 76.23L152.284 75.329L152.283 75.3294L152.718 76.23ZM159.23 80.234L158.596 81.0073L159.23 80.234ZM158.504 87.384L158.061 86.4874L158.05 86.4929L158.039 86.4986L158.504 87.384ZM156.546 88.022L156.385 87.0351L156.373 87.037L156.362 87.0391L156.546 88.022ZM153.994 87.22C152.689 87.22 151.049 87.0933 149.064 86.8325L148.804 88.8155C150.838 89.0827 152.571 89.22 153.994 89.22V87.22ZM149.934 87.824V85.206H147.934V87.824H149.934ZM148.783 86.1945C151.268 86.5746 153.042 86.778 154.038 86.778V84.778C153.216 84.778 151.587 84.6001 149.085 84.2175L148.783 86.1945ZM154.038 86.778C155.045 86.778 155.952 86.6537 156.641 86.2984C157 86.1132 157.326 85.8521 157.559 85.492C157.795 85.127 157.898 84.7186 157.898 84.304H155.898C155.898 84.3808 155.882 84.4022 155.88 84.4058C155.874 84.4142 155.842 84.4601 155.725 84.5206C155.461 84.6566 154.938 84.778 154.038 84.778V86.778ZM157.898 84.304V83.38H155.898V84.304H157.898ZM157.898 83.38C157.898 82.7041 157.689 82.0422 157.147 81.5568L155.813 83.0472C155.828 83.0605 155.898 83.1172 155.898 83.38H157.898ZM157.167 81.575C156.606 81.046 155.778 80.928 155.028 80.928V82.928C155.327 82.928 155.535 82.9551 155.67 82.9899C155.806 83.0252 155.822 83.056 155.793 83.029L157.167 81.575ZM155.028 80.928H153.356V82.928H155.028V80.928ZM153.356 80.928C151.892 80.928 150.979 80.6328 150.447 80.21C149.959 79.822 149.648 79.2115 149.648 78.188H147.648C147.648 79.6578 148.122 80.9173 149.203 81.776C150.24 82.5998 151.681 82.928 153.356 82.928V80.928ZM149.648 78.188V77.132H147.648V78.188H149.648ZM149.648 77.132C149.648 76.2272 149.99 75.6535 150.701 75.2532L149.719 73.5108C148.347 74.2839 147.648 75.5435 147.648 77.132H149.648ZM150.701 75.2532C151.511 74.7971 152.945 74.502 155.16 74.502V72.502C152.857 72.502 150.992 72.7936 149.719 73.5108L150.701 75.2532ZM155.16 74.502C156.285 74.502 157.735 74.5937 159.521 74.7825L159.731 72.7935C157.909 72.6009 156.382 72.502 155.16 72.502V74.502ZM158.626 73.788V76.34H160.626V73.788H158.626ZM159.744 75.347C157.534 75.0836 155.953 74.944 155.05 74.944V76.944C155.819 76.944 157.288 77.0684 159.508 77.333L159.744 75.347ZM155.05 74.944C154.447 74.944 153.919 74.9686 153.476 75.0229C153.05 75.0752 152.629 75.163 152.284 75.329L153.152 77.131C153.203 77.1063 153.369 77.0511 153.72 77.0081C154.054 76.9671 154.494 76.944 155.05 76.944V74.944ZM152.283 75.3294C151.944 75.4932 151.63 75.7334 151.405 76.0757C151.176 76.4222 151.08 76.8103 151.08 77.198H153.08C153.08 77.1688 153.083 77.1574 153.083 77.1586C153.083 77.1608 153.08 77.1682 153.074 77.1763C153.069 77.1841 153.068 77.1837 153.076 77.1764C153.086 77.1684 153.109 77.1516 153.153 77.1306L152.283 75.3294ZM151.08 77.198V78.21H153.08V77.198H151.08ZM151.08 78.21C151.08 78.9283 151.416 79.5401 152.043 79.9116C152.587 80.2345 153.275 80.332 153.972 80.332V78.332C153.407 78.332 153.149 78.2425 153.063 78.1914C153.035 78.1747 153.051 78.1779 153.07 78.2109C153.088 78.243 153.08 78.2535 153.08 78.21H151.08ZM153.972 80.332H155.688V78.332H153.972V80.332ZM155.688 80.332C157.235 80.332 158.131 80.6258 158.596 81.0073L159.864 79.4607C158.863 78.6396 157.397 78.332 155.688 78.332V80.332ZM158.596 81.0073C159.032 81.3649 159.33 81.955 159.33 82.984H161.33C161.33 81.549 160.895 80.3057 159.864 79.4607L158.596 81.0073ZM159.33 82.984V83.93H161.33V82.984H159.33ZM159.33 83.93C159.33 85.3662 158.845 86.1003 158.061 86.4874L158.947 88.2806C160.598 87.465 161.33 85.8964 161.33 83.93H159.33ZM158.039 86.4986C157.557 86.752 157.008 86.9333 156.385 87.0351L156.707 89.0089C157.521 88.876 158.278 88.632 158.969 88.2694L158.039 86.4986ZM156.362 87.0391C155.737 87.1563 154.952 87.22 153.994 87.22V89.22C155.031 89.22 155.947 89.1517 156.73 89.0049L156.362 87.0391ZM166.544 88.154L166.663 87.1611L166.544 88.154ZM165.444 87.89L165.783 86.9491L165.766 86.9433L165.75 86.938L165.444 87.89ZM164.432 87.34L163.746 88.0682L163.757 88.078L163.767 88.0874L164.432 87.34ZM163.816 86.372L164.747 86.0063L164.743 85.998L164.74 85.9896L163.816 86.372ZM163.552 79.332H164.552V78.332H163.552V79.332ZM161.396 79.332H160.396V80.332H161.396V79.332ZM161.396 77.352V76.352H160.396V77.352H161.396ZM163.552 77.352V78.352H164.552V77.352H163.552ZM163.552 74.272V73.272H162.552V74.272H163.552ZM166.764 74.272H167.764V73.272H166.764V74.272ZM166.764 77.352H165.764V78.352H166.764V77.352ZM169.69 77.352H170.69V76.352H169.69V77.352ZM169.69 79.332V80.332H170.69V79.332H169.69ZM166.764 79.332V78.332H165.764V79.332H166.764ZM166.896 85.514L165.947 85.8302L165.95 85.8385L165.953 85.8468L166.896 85.514ZM167.402 86.064L166.976 86.9688L166.998 86.9793L167.021 86.9887L167.402 86.064ZM169.69 86.108H170.69V84.9678L169.559 85.1165L169.69 86.108ZM169.69 88.11L169.796 89.1044L170.69 89.0093V88.11H169.69ZM167.908 87.22C167.388 87.22 166.976 87.1987 166.663 87.1611L166.425 89.1469C166.844 89.1973 167.342 89.22 167.908 89.22V87.22ZM166.663 87.1611C166.375 87.1266 166.082 87.057 165.783 86.9491L165.105 88.8309C165.539 88.987 165.979 89.0934 166.425 89.1469L166.663 87.1611ZM165.75 86.938C165.443 86.8393 165.236 86.7168 165.096 86.5926L163.767 88.0874C164.156 88.4325 164.623 88.6767 165.138 88.842L165.75 86.938ZM165.117 86.6118C165.002 86.5032 164.869 86.3178 164.747 86.0063L162.885 86.7377C163.085 87.2476 163.363 87.7075 163.746 88.0682L165.117 86.6118ZM164.74 85.9896C164.623 85.7082 164.552 85.3511 164.552 84.898H162.552C162.552 85.5596 162.656 86.1851 162.892 86.7544L164.74 85.9896ZM164.552 84.898V79.332H162.552V84.898H164.552ZM163.552 78.332H161.396V80.332H163.552V78.332ZM162.396 79.332V77.352H160.396V79.332H162.396ZM161.396 78.352H163.552V76.352H161.396V78.352ZM164.552 77.352V74.272H162.552V77.352H164.552ZM163.552 75.272H166.764V73.272H163.552V75.272ZM165.764 74.272V77.352H167.764V74.272H165.764ZM166.764 78.352H169.69V76.352H166.764V78.352ZM168.69 77.352V79.332H170.69V77.352H168.69ZM169.69 78.332H166.764V80.332H169.69V78.332ZM165.764 79.332V84.348H167.764V79.332H165.764ZM165.764 84.348C165.764 84.8942 165.808 85.4117 165.947 85.8302L167.844 85.1978C167.808 85.0883 167.764 84.8285 167.764 84.348H165.764ZM165.953 85.8468C166.134 86.3599 166.496 86.743 166.976 86.9688L167.828 85.1592C167.817 85.1541 167.813 85.1512 167.814 85.1518C167.815 85.1526 167.819 85.1557 167.824 85.1614C167.83 85.1673 167.834 85.1733 167.837 85.1784C167.84 85.1834 167.84 85.185 167.839 85.1812L165.953 85.8468ZM167.021 86.9887C167.456 87.1679 167.998 87.218 168.546 87.218V85.218C168.067 85.218 167.846 85.1654 167.783 85.1393L167.021 86.9887ZM168.546 87.218C168.826 87.218 169.269 87.1719 169.82 87.0995L169.559 85.1165C168.996 85.1907 168.676 85.218 168.546 85.218V87.218ZM168.69 86.108V88.11H170.69V86.108H168.69ZM169.584 87.1156C168.917 87.1865 168.36 87.22 167.908 87.22V89.22C168.452 89.22 169.084 89.1801 169.796 89.1044L169.584 87.1156ZM175.019 88.154L175.122 87.1593L175.019 88.154ZM173.655 87.89L173.387 88.8535L173.392 88.8548L173.655 87.89ZM172.379 87.274L171.725 88.0308L171.735 88.0395L171.746 88.048L172.379 87.274ZM171.565 86.108L172.48 85.7043L172.475 85.6942L171.565 86.108ZM171.565 79.354L172.488 79.7386L171.565 79.354ZM172.423 78.122L171.794 77.3448L171.788 77.3492L171.783 77.3538L172.423 78.122ZM173.633 77.506L173.941 78.4574L173.949 78.4548L173.957 78.4519L173.633 77.506ZM175.129 77.176L175.076 76.1774L175.057 76.1784L175.038 76.1801L175.129 77.176ZM178.253 77.198L178.142 78.1919L178.162 78.1941L178.182 78.1955L178.253 77.198ZM179.595 77.462L179.887 76.5056L179.885 76.505L179.595 77.462ZM180.871 78.122L180.217 78.8788L180.225 78.886L180.234 78.893L180.871 78.122ZM181.729 79.31L182.652 78.9254L182.645 78.9097L182.638 78.8942L181.729 79.31ZM181.729 86.086L180.814 85.6824L180.809 85.6937L180.804 85.7052L181.729 86.086ZM180.915 87.252L180.278 86.481L180.267 86.4901L180.915 87.252ZM179.705 87.868L179.987 88.8274L179.996 88.8248L180.005 88.822L179.705 87.868ZM178.231 88.154L178.14 87.1581L178.131 87.159L178.231 88.154ZM178.011 86.086L178.285 87.0475L178.306 87.0416L178.327 87.0347L178.011 86.086ZM178.649 85.624L177.808 85.0832L177.793 85.1052L177.781 85.1279L178.649 85.624ZM178.385 79.464L178.991 78.6686L178.385 79.464ZM174.623 85.624L173.755 86.1201L173.767 86.1428L173.782 86.1648L174.623 85.624ZM175.283 86.086L174.967 87.0347L174.987 87.0416L175.008 87.0475L175.283 86.086ZM176.647 87.22C176.005 87.22 175.5 87.1984 175.122 87.1593L174.916 89.1487C175.388 89.1976 175.969 89.22 176.647 89.22V87.22ZM175.122 87.1593C174.759 87.1218 174.358 87.0453 173.918 86.9252L173.392 88.8548C173.919 88.9987 174.428 89.0982 174.916 89.1487L175.122 87.1593ZM173.922 86.9265C173.488 86.8058 173.199 86.6532 173.012 86.5L171.746 88.048C172.204 88.4228 172.765 88.6808 173.387 88.8535L173.922 86.9265ZM173.032 86.5172C172.849 86.3585 172.656 86.1039 172.48 85.7044L170.65 86.5116C170.914 87.1095 171.264 87.6322 171.725 88.0308L173.032 86.5172ZM172.475 85.6942C172.329 85.3726 172.235 84.9352 172.235 84.348H170.235C170.235 85.1395 170.361 85.8754 170.654 86.5218L172.475 85.6942ZM172.235 84.348V81.202H170.235V84.348H172.235ZM172.235 81.202C172.235 80.6004 172.329 80.1201 172.488 79.7386L170.642 78.9694C170.361 79.6439 170.235 80.3956 170.235 81.202H172.235ZM172.488 79.7386C172.661 79.3232 172.862 79.0579 173.063 78.8902L171.783 77.3538C171.28 77.7728 170.909 78.3288 170.642 78.9694L172.488 79.7386ZM173.052 78.8992C173.239 78.7477 173.523 78.5925 173.941 78.4574L173.325 76.5546C172.745 76.7422 172.222 76.9976 171.794 77.3448L173.052 78.8992ZM173.957 78.4519C174.403 78.2989 174.824 78.2079 175.219 78.1719L175.038 76.1801C174.466 76.2321 173.889 76.3611 173.308 76.5601L173.957 78.4519ZM175.181 78.1746C175.725 78.146 176.213 78.132 176.647 78.132V76.132C176.171 76.132 175.647 76.1473 175.076 76.1774L175.181 78.1746ZM176.647 78.132C177.306 78.132 177.799 78.1538 178.142 78.1919L178.363 76.2041C177.914 76.1542 177.337 76.132 176.647 76.132V78.132ZM178.182 78.1955C178.503 78.2185 178.876 78.2892 179.305 78.419L179.885 76.505C179.345 76.3414 178.823 76.2362 178.324 76.2005L178.182 78.1955ZM179.303 78.4184C179.735 78.5505 180.026 78.7137 180.217 78.8788L181.524 77.3652C181.07 76.973 180.51 76.6961 179.887 76.5056L179.303 78.4184ZM180.234 78.893C180.426 79.0516 180.63 79.3114 180.819 79.7258L182.638 78.8942C182.358 78.2819 181.99 77.7497 181.508 77.351L180.234 78.893ZM180.806 79.6946C180.963 80.0716 181.059 80.565 181.059 81.202H183.059C183.059 80.3723 182.935 79.6044 182.652 78.9254L180.806 79.6946ZM181.059 81.202V84.348H183.059V81.202H181.059ZM181.059 84.348C181.059 84.8977 180.967 85.3347 180.814 85.6824L182.644 86.4896C182.93 85.8399 183.059 85.1183 183.059 84.348H181.059ZM180.804 85.7052C180.647 86.087 180.463 86.3284 180.278 86.481L181.552 88.023C182.042 87.6182 182.4 87.0823 182.653 86.4667L180.804 85.7052ZM180.267 86.4901C180.108 86.6256 179.838 86.7779 179.405 86.914L180.005 88.822C180.598 88.6354 181.135 88.3771 181.562 88.0139L180.267 86.4901ZM179.423 86.9086C178.982 87.0382 178.555 87.1204 178.14 87.1581L178.321 89.1499C178.875 89.0996 179.43 88.9912 179.987 88.8274L179.423 86.9086ZM178.131 87.159C177.734 87.1987 177.241 87.22 176.647 87.22V89.22C177.284 89.22 177.847 89.1973 178.33 89.149L178.131 87.159ZM176.647 87.218C177.275 87.218 177.841 87.1744 178.285 87.0475L177.736 85.1245C177.564 85.1736 177.221 85.218 176.647 85.218V87.218ZM178.327 87.0347C178.781 86.8834 179.239 86.6075 179.517 86.1201L177.781 85.1279C177.789 85.1124 177.799 85.1003 177.806 85.092C177.814 85.0839 177.818 85.0815 177.815 85.0836C177.808 85.0886 177.774 85.1109 177.695 85.1373L178.327 87.0347ZM179.49 86.1648C179.772 85.7265 179.847 85.2017 179.847 84.722H177.847C177.847 84.8673 177.834 84.9669 177.821 85.0301C177.807 85.0935 177.795 85.1027 177.808 85.0832L179.49 86.1648ZM179.847 84.722V80.696H177.847V84.722H179.847ZM179.847 80.696C179.847 79.9627 179.654 79.1741 178.991 78.6686L177.779 80.2594C177.764 80.2481 177.775 80.246 177.795 80.2991C177.818 80.3614 177.847 80.4845 177.847 80.696H179.847ZM178.991 78.6686C178.67 78.4242 178.285 78.2942 177.918 78.2199C177.541 78.1436 177.112 78.112 176.647 78.112V80.112C177.032 80.112 177.318 80.139 177.521 80.1801C177.733 80.2231 177.791 80.2691 177.779 80.2594L178.991 78.6686ZM176.647 78.112C176.181 78.112 175.752 78.1436 175.376 78.2199C175.009 78.2942 174.623 78.4242 174.303 78.6686L175.515 80.2594C175.502 80.2691 175.56 80.2231 175.773 80.1801C175.976 80.139 176.262 80.112 176.647 80.112V78.112ZM174.303 78.6686C173.639 79.1741 173.447 79.9627 173.447 80.696H175.447C175.447 80.4845 175.475 80.3614 175.499 80.2991C175.519 80.246 175.53 80.2481 175.515 80.2594L174.303 78.6686ZM173.447 80.696V84.722H175.447V80.696H173.447ZM173.447 84.722C173.447 85.1882 173.511 85.6938 173.755 86.1201L175.491 85.1279C175.5 85.1431 175.487 85.1262 175.472 85.053C175.458 84.9809 175.447 84.8733 175.447 84.722H173.447ZM173.782 86.1648C174.072 86.6171 174.514 86.8838 174.967 87.0347L175.599 85.1373C175.518 85.1104 175.477 85.0858 175.46 85.0743C175.446 85.0643 175.453 85.0661 175.464 85.0832L173.782 86.1648ZM175.008 87.0475C175.452 87.1744 176.019 87.218 176.647 87.218V85.218C176.072 85.218 175.729 85.1736 175.557 85.1245L175.008 87.0475ZM184.562 77.352V76.352H183.562V77.352H184.562ZM187.62 77.352H188.62V76.352H187.62V77.352ZM188.038 78.232L187.281 77.5784L188.038 78.232ZM189.094 77.44L188.671 76.5337L188.66 76.5394L189.094 77.44ZM191.536 77.132H192.536V76.132H191.536V77.132ZM191.536 79.794V80.794H192.536V79.794H191.536ZM188.412 80.212L187.877 79.3672L187.871 79.3713L187.864 79.3755L188.412 80.212ZM187.774 88V89H188.774V88H187.774ZM184.562 88H183.562V89H184.562V88ZM184.562 78.352H187.62V76.352H184.562V78.352ZM186.62 77.352V79.222H188.62V77.352H186.62ZM188.62 79.222C188.62 79.1827 188.631 79.076 188.795 78.8856L187.281 77.5784C186.889 78.0333 186.62 78.5866 186.62 79.222H188.62ZM188.795 78.8856C188.975 78.6771 189.213 78.4929 189.529 78.3406L188.66 76.5394C188.124 76.7978 187.659 77.1416 187.281 77.5784L188.795 78.8856ZM189.517 78.3462C189.844 78.1939 190.132 78.132 190.392 78.132V76.132C189.801 76.132 189.225 76.2754 188.671 76.5338L189.517 78.3462ZM190.392 78.132H191.536V76.132H190.392V78.132ZM190.536 77.132V79.794H192.536V77.132H190.536ZM191.536 78.794H190.436V80.794H191.536V78.794ZM190.436 78.794C189.461 78.794 188.557 78.9367 187.877 79.3672L188.947 81.0568C189.148 80.9299 189.593 80.794 190.436 80.794V78.794ZM187.864 79.3755C187.081 79.889 186.774 80.7181 186.774 81.598H188.774C188.774 81.1872 188.893 81.0924 188.96 81.0485L187.864 79.3755ZM186.774 81.598V88H188.774V81.598H186.774ZM187.774 87H184.562V89H187.774V87ZM185.562 88V77.352H183.562V88H185.562ZM194.274 78.034L193.704 77.2128L193.697 77.2174L194.274 78.034ZM201.952 78.012L201.35 78.8102L201.358 78.8165L201.367 78.8227L201.952 78.012ZM203.14 83.534V84.534H204.14V83.534H203.14ZM196.232 83.534V82.534H195.232V83.534H196.232ZM196.892 85.822L197.407 84.9645V84.9645L196.892 85.822ZM202.832 85.756H203.832V84.4958L202.605 84.7822L202.832 85.756ZM202.832 87.802L203.041 88.78L203.832 88.611V87.802H202.832ZM200.082 81.708V82.708H201.082V81.708H200.082ZM199.642 79.376L199.108 80.2215L199.118 80.2276L199.128 80.2335L199.642 79.376ZM196.65 79.376L196.096 78.5439L196.086 78.5507L196.65 79.376ZM196.232 81.708H195.232V82.708H196.232V81.708ZM198.652 87.22C196.837 87.22 195.643 86.9369 194.933 86.5031C194.303 86.1183 193.998 85.587 193.998 84.766H191.998C191.998 86.2477 192.636 87.4433 193.891 88.2099C195.065 88.9274 196.699 89.22 198.652 89.22V87.22ZM193.998 84.766V80.938H191.998V84.766H193.998ZM193.998 80.938C193.998 79.8265 194.339 79.2127 194.852 78.8506L193.697 77.2174C192.508 78.058 191.998 79.3802 191.998 80.938H193.998ZM194.845 78.8552C195.462 78.4264 196.544 78.132 198.256 78.132V76.132C196.391 76.132 194.817 76.439 193.704 77.2128L194.845 78.8552ZM198.256 78.132C199.868 78.132 200.833 78.4201 201.35 78.8102L202.555 77.2138C201.517 76.4306 200.018 76.132 198.256 76.132V78.132ZM201.367 78.8227C201.802 79.137 202.14 79.7393 202.14 80.938H204.14C204.14 79.3794 203.687 78.031 202.538 77.2013L201.367 78.8227ZM202.14 80.938V83.534H204.14V80.938H202.14ZM203.14 82.534H196.232V84.534H203.14V82.534ZM195.232 83.534V84.502H197.232V83.534H195.232ZM195.232 84.502C195.232 85.3867 195.572 86.196 196.378 86.6795L197.407 84.9645C197.333 84.92 197.232 84.8493 197.232 84.502H195.232ZM196.378 86.6795C197.074 87.0972 198.116 87.218 199.268 87.218V85.218C198.133 85.218 197.591 85.0748 197.407 84.9645L196.378 86.6795ZM199.268 87.218C200.419 87.218 201.685 87.0506 203.06 86.7298L202.605 84.7822C201.34 85.0774 200.23 85.218 199.268 85.218V87.218ZM201.832 85.756V87.802H203.832V85.756H201.832ZM202.624 86.824C201.394 87.0866 200.071 87.22 198.652 87.22V89.22C200.196 89.22 201.66 89.0748 203.041 88.78L202.624 86.824ZM201.082 81.708V80.168H199.082V81.708H201.082ZM201.082 80.168C201.082 79.4772 200.762 78.8816 200.157 78.5185L199.128 80.2335C199.138 80.2396 199.136 80.2398 199.128 80.2316C199.119 80.2229 199.108 80.2093 199.098 80.1916C199.089 80.1741 199.084 80.1596 199.082 80.1521C199.081 80.1453 199.082 80.1494 199.082 80.168H201.082ZM200.176 78.5305C199.642 78.1928 198.915 78.112 198.212 78.112V80.112C198.511 80.112 198.734 80.1318 198.894 80.1614C199.061 80.1922 199.115 80.2255 199.108 80.2215L200.176 78.5305ZM198.212 78.112C197.791 78.112 197.407 78.1354 197.072 78.192C196.754 78.2459 196.398 78.3427 196.096 78.5439L197.205 80.208C197.167 80.2333 197.204 80.1981 197.406 80.164C197.592 80.1326 197.856 80.112 198.212 80.112V78.112ZM196.086 78.5507C195.535 78.9275 195.232 79.5002 195.232 80.168H197.232C197.232 80.1527 197.234 80.1491 197.233 80.1545C197.231 80.1603 197.228 80.1711 197.221 80.1838C197.215 80.1964 197.208 80.2052 197.204 80.2095C197.2 80.2135 197.202 80.2101 197.215 80.2013L196.086 78.5507ZM195.232 80.168V81.708H197.232V80.168H195.232ZM196.232 82.708H200.082V80.708H196.232V82.708Z" fill="#004E9A"/>
</g>
<path d="M153.946 45.4223C153.697 39.6928 152.701 33.3406 151.206 27.3619C149.711 21.6325 147.843 16.2766 145.601 12.1663C136.882 -3.15386 127.416 -0.787331 116.082 2.20197C112.47 3.07385 108.609 4.07029 104.623 4.44395H103.377C99.3915 4.07029 95.5303 3.07385 91.9183 2.20197C80.5838 -0.662776 71.1177 -3.15386 62.3989 12.2909C60.1569 16.4012 58.164 21.757 56.7939 27.4865C55.2993 33.4651 54.3029 39.8174 54.0537 45.5469C53.8046 51.8992 54.4274 56.5077 55.7975 59.7461C57.1676 62.7354 59.1605 64.6037 61.7761 65.351C64.1426 65.9738 66.8828 65.7247 69.7476 64.4791C74.6052 62.4863 80.2102 58.2514 85.6905 53.1447C89.5517 49.4081 96.7759 47.5398 104 47.5398C111.224 47.5398 118.448 49.4081 122.31 53.1447C127.79 58.2514 133.395 62.4863 138.252 64.4791C141.117 65.6001 143.857 65.9738 146.224 65.351C148.715 64.6037 150.832 62.8599 152.203 59.6215C153.573 56.5077 154.195 51.8992 153.946 45.4223ZM147.968 57.8778C147.22 59.6215 146.224 60.618 144.978 60.9916C143.608 61.3653 141.865 61.1162 139.872 60.3689C135.512 58.6251 130.406 54.7639 125.423 50.0308C120.69 45.2978 112.345 42.9312 104 42.9312C95.6549 42.9312 87.3098 45.2978 82.4521 49.7817C77.3454 54.5148 72.2387 58.5005 68.0038 60.1197C66.011 60.8671 64.2672 61.2407 62.8971 60.7425C61.6516 60.3689 60.6551 59.3724 59.9078 57.6287C58.9114 55.2621 58.4132 51.4009 58.6623 45.6714C58.9114 40.3156 59.7832 34.2124 61.2779 28.4829C62.648 23.1271 64.3918 18.1449 66.5092 14.4083C73.3597 2.07742 81.3311 4.07029 90.7973 6.56138C94.6585 7.55781 98.6442 8.55424 103.004 8.92791C103.128 8.92791 103.128 8.92791 103.253 8.92791H104.623C104.747 8.92791 104.747 8.92791 104.872 8.92791C109.356 8.55424 113.342 7.55781 117.203 6.56138C126.669 4.19484 134.64 2.07742 141.491 14.4083C143.608 18.1449 145.352 23.0025 146.722 28.4829C148.092 34.2124 149.089 40.1911 149.338 45.6714C149.587 51.4009 149.089 55.2621 147.968 57.8778Z" fill="#004E9A"/>
<path d="M92.5408 21.1342C91.2952 20.0132 89.8006 19.1414 88.0568 19.0168C87.9322 17.3976 87.1849 15.7784 86.0639 14.6574L85.9394 14.5329C84.5693 13.1628 82.8255 12.4154 80.8327 12.4154C78.8398 12.4154 76.9715 13.2873 75.7259 14.5329C74.6049 15.6538 73.7331 17.2731 73.6085 19.0168C71.8647 19.1414 70.3701 19.8887 69.1245 21.0097L69 21.1342C67.6299 22.5043 66.8826 24.2481 66.8826 26.241C66.8826 28.2338 67.7544 30.1021 69 31.3477C70.2455 32.5932 71.7402 33.3406 73.6085 33.4651C73.7331 35.2089 74.4804 36.8281 75.7259 37.9491C77.096 39.3192 78.8398 40.0665 80.8327 40.0665C82.8255 40.0665 84.6938 39.1946 85.9394 37.9491C87.0604 36.7035 87.9322 35.2089 88.0568 33.4651C89.8006 33.3406 91.4198 32.5932 92.5408 31.3477C93.9109 29.9776 94.6582 28.2338 94.6582 26.241C94.6582 24.2481 93.7863 22.3798 92.5408 21.1342ZM89.4269 28.1093C88.9287 28.6075 88.3059 28.8566 87.5586 28.8566H85.8148C84.5693 28.8566 83.4483 29.853 83.4483 31.2231V32.8423C83.4483 33.5897 83.1992 34.2124 82.701 34.7107C82.2027 35.2089 81.58 35.458 80.8327 35.458C80.0853 35.458 79.4626 35.2089 78.9643 34.7107C78.4661 34.2124 78.217 33.5897 78.217 32.8423V31.0986C78.217 29.853 77.2206 28.732 75.8505 28.732H74.1067C73.3594 28.732 72.7366 28.4829 72.2384 27.9847C71.8647 27.6111 71.4911 26.9883 71.4911 26.241C71.4911 25.4936 71.7402 24.8709 72.2384 24.3726C72.2384 24.3726 72.2384 24.3727 72.363 24.2481C72.8612 23.8744 73.4839 23.6253 74.1067 23.6253H75.8505C77.096 23.6253 78.217 22.6289 78.217 21.2588V19.515C78.217 18.7677 78.4661 18.1449 78.9643 17.6467C79.4626 17.1485 80.0853 16.8994 80.8327 16.8994C81.58 16.8994 82.2027 17.1485 82.701 17.6467C82.701 17.6467 82.701 17.6467 82.8255 17.7713C83.1992 18.2695 83.4483 18.8923 83.4483 19.515V21.2588C83.4483 22.5043 84.4447 23.6253 85.8148 23.6253H87.5586C88.3059 23.6253 88.9287 23.8744 89.4269 24.3726C89.9251 24.8709 90.1742 25.4936 90.1742 26.241C90.1742 26.9883 89.9251 27.6111 89.4269 28.1093Z" fill="#004E9A"/>
<path d="M125.672 21.757C128.08 21.757 130.032 19.8052 130.032 17.3976C130.032 14.99 128.08 13.0382 125.672 13.0382C123.265 13.0382 121.313 14.99 121.313 17.3976C121.313 19.8052 123.265 21.757 125.672 21.757Z" fill="#004E9A"/>
<path d="M125.672 39.4437C128.08 39.4437 130.032 37.4919 130.032 35.0843C130.032 32.6767 128.08 30.7249 125.672 30.7249C123.265 30.7249 121.313 32.6767 121.313 35.0843C121.313 37.4919 123.265 39.4437 125.672 39.4437Z" fill="#004E9A"/>
<path d="M116.829 30.6004C119.237 30.6004 121.188 28.6486 121.188 26.241C121.188 23.8333 119.237 21.8816 116.829 21.8816C114.421 21.8816 112.469 23.8333 112.469 26.241C112.469 28.6486 114.421 30.6004 116.829 30.6004Z" fill="#004E9A"/>
<path d="M134.516 30.6004C136.923 30.6004 138.875 28.6486 138.875 26.241C138.875 23.8333 136.923 21.8816 134.516 21.8816C132.108 21.8816 130.156 23.8333 130.156 26.241C130.156 28.6486 132.108 30.6004 134.516 30.6004Z" fill="#004E9A"/>
<defs>
<filter id="filter0_d" x="1.35248" y="72.502" width="206.788" height="24.718" filterUnits="userSpaceOnUse" color-interpolation-filters="sRGB">
<feFlood flood-opacity="0" result="BackgroundImageFix"/>
<feColorMatrix in="SourceAlpha" type="matrix" values="0 0 0 0 0 0 0 0 0 0 0 0 0 0 0 0 0 0 127 0"/>
<feOffset dy="4"/>
<feGaussianBlur stdDeviation="2"/>
<feColorMatrix type="matrix" values="0 0 0 0 0 0 0 0 0 0 0 0 0 0 0 0 0 0 0.25 0"/>
<feBlend mode="normal" in2="BackgroundImageFix" result="effect1_dropShadow"/>
<feBlend mode="normal" in="SourceGraphic" in2="effect1_dropShadow" result="shape"/>
</filter>
</defs>
</svg>
