<svg width="100" height="100" viewBox="0 0 100 100" fill="none" xmlns="http://www.w3.org/2000/svg">
<path d="M97.1406 13.6709C95.6695 12.1973 93.2826 12.1947 91.8115 13.6646L46.5981 58.7588L30.2852 41.0414C28.8756 39.5113 26.4924 39.4121 24.9598 40.8215C23.4283 42.231 23.3303 44.6154 24.7399 46.1469L43.7098 66.7486C44.4045 67.5037 45.3768 67.9422 46.402 67.9635C46.4295 67.9646 46.4561 67.9646 46.4824 67.9646C47.4787 67.9646 48.4371 67.5689 49.1432 66.8654L97.1332 19.0012C98.608 17.5314 98.6105 15.1445 97.1406 13.6709Z" fill="#004E9A"/>
<path d="M96.2311 46.2311C94.1494 46.2311 92.4623 47.9182 92.4623 50C92.4623 73.4146 73.4146 92.4623 50 92.4623C26.5867 92.4623 7.53769 73.4146 7.53769 50C7.53769 26.5867 26.5867 7.53769 50 7.53769C52.0816 7.53769 53.7689 5.85059 53.7689 3.76895C53.7689 1.68711 52.0816 0 50 0C22.4297 0 0 22.4297 0 50C0 77.5691 22.4297 100 50 100C77.5691 100 100 77.5691 100 50C100 47.9184 98.3129 46.2311 96.2311 46.2311Z" fill="#004E9A"/>
</svg>
