<svg width="100" height="100" viewBox="0 0 100 100" fill="none" xmlns="http://www.w3.org/2000/svg">
<g clip-path="url(#clip0)">
<path d="M98.3205 44.704L53.4538 3.82166C51.4845 2.02694 48.5147 2.02714 46.5462 3.82147L1.67927 44.7042C0.101736 46.1417 -0.419357 48.3565 0.351345 50.3466C1.12224 52.3366 2.99919 53.6223 5.13337 53.6223H12.2994V94.5834C12.2994 96.2074 13.6162 97.5242 15.2402 97.5242H39.8327C41.4567 97.5242 42.7735 96.2076 42.7735 94.5834V69.7131H57.227V94.5836C57.227 96.2076 58.5438 97.5244 60.1678 97.5244H84.7592C86.3832 97.5244 87.7 96.2078 87.7 94.5836V53.6223H94.8674C97.0014 53.6223 98.8785 52.3364 99.6494 50.3466C100.419 48.3563 99.8981 46.1417 98.3205 44.704Z" fill="#004E9A"/>
<path d="M86.9319 8.34568H67.1821L89.8727 28.9777V11.2863C89.8727 9.66228 88.5561 8.34568 86.9319 8.34568Z" fill="#004E9A"/>
</g>
<defs>
<clipPath id="clip0">
<rect width="100" height="100" fill="white"/>
</clipPath>
</defs>
</svg>
