<svg width="100" height="100" viewBox="0 0 100 100" fill="none" xmlns="http://www.w3.org/2000/svg">
<path d="M76.4893 42.527V26.6907C76.5317 19.5251 73.6697 12.6351 68.5605 7.61077C63.6209 2.69239 57.155 0 50.3074 0C50.2014 0 50.0742 0 49.9682 0C35.3614 0.0211999 23.4895 11.978 23.4895 26.6907V42.527C17.9775 43.1842 13.9495 47.8058 13.9495 53.4026V88.976C13.9495 95.018 18.7831 100 24.8251 100H75.1749C81.2169 100 86.0504 95.018 86.0504 88.976V53.4026C86.0292 47.827 82.0013 43.1842 76.4893 42.527ZM27.7083 26.6907H27.7295C27.7295 14.3099 37.7146 4.17638 49.9894 4.17638H50.0106C55.8406 4.15518 61.4373 6.46597 65.5713 10.5788C69.8749 14.8399 72.2705 20.6487 72.2281 26.6907V42.5482H67.5641V26.6907C67.6065 21.8783 65.6985 17.2567 62.2853 13.8647C59.0629 10.6424 54.6958 8.81916 50.1378 8.81916H50.0106C40.2586 8.81916 32.3723 16.8327 32.3723 26.6695V42.5482H27.7083V26.6907ZM63.3453 26.6907V42.5482H36.6334V26.6907C36.6334 19.1859 42.6118 13.0803 50.0318 13.0803H50.159C53.5934 13.0803 56.9006 14.4583 59.3385 16.8963C61.9249 19.4827 63.3877 23.0231 63.3453 26.6907ZM82.0013 89.0396C82.0013 92.7496 78.9909 95.76 75.2809 95.76H24.9099C21.1999 95.76 18.1895 92.7496 18.1895 89.0396V53.5086C18.1895 49.7986 21.1999 46.7882 24.9099 46.7882H75.2809C78.9909 46.7882 82.0013 49.7986 82.0013 53.5086V89.0396Z" fill="#004E9A"/>
<path d="M57.3246 69.9597C56.3918 66.6737 53.4026 64.4265 49.9894 64.4265C45.7706 64.4265 42.3362 67.8397 42.3362 72.0797C42.3362 75.4929 44.5834 78.4821 47.8694 79.4149V85.3509C47.8694 86.5169 48.8234 87.4708 49.9894 87.4708C51.1554 87.4708 52.1094 86.5169 52.1094 85.3509V79.4149C56.1586 78.2489 58.5118 74.0089 57.3246 69.9597ZM49.9894 75.4717C48.1026 75.4717 46.5762 73.9453 46.5762 72.0585C46.5762 70.1717 48.1026 68.6453 49.9894 68.6453C51.8762 68.6453 53.4026 70.1717 53.4026 72.0585C53.4026 73.9453 51.8762 75.4717 49.9894 75.4717Z" fill="#004E9A"/>
</svg>
