<svg width="100" height="100" viewBox="0 0 100 100" fill="none" xmlns="http://www.w3.org/2000/svg">
<g clip-path="url(#clip0)">
<path d="M39.2837 21.5242V3.57049C39.2831 1.59795 37.6837 -0.000627611 35.7111 1.84848e-07C34.6996 0.00020945 33.7357 0.429622 33.0585 1.18109L0.915532 36.8958C-0.259912 38.205 -0.306997 40.175 0.804831 41.5388L32.948 80.8248C34.1969 82.3514 36.4469 82.5765 37.9737 81.3276C38.8007 80.6511 39.2814 79.6397 39.2837 78.5712V60.7746C67.4984 61.6925 85.1055 73.7533 93.0415 97.5608C93.5283 99.0173 94.8916 99.9993 96.4272 100C96.6197 100.001 96.8123 99.9849 97.0023 99.9535C98.73 99.6716 99.9987 98.1792 99.9987 96.4284C99.9985 54.3709 74.6806 23.4741 39.2837 21.5242Z" fill="#004E9A"/>
</g>
<defs>
<clipPath id="clip0">
<rect width="100" height="100" fill="white"/>
</clipPath>
</defs>
</svg>
