<svg width="100" height="100" viewBox="0 0 100 100" fill="none" xmlns="http://www.w3.org/2000/svg">
<path d="M42.7086 46.875H3.125C1.39999 46.875 0 45.475 0 43.75C0 42.025 1.39999 40.625 3.125 40.625H42.7086C44.4336 40.625 45.8336 42.025 45.8336 43.75C45.8336 45.475 44.4336 46.875 42.7086 46.875Z" fill="#004E9A"/>
<path d="M27.0836 62.5C26.2833 62.5 25.4837 62.1956 24.8749 61.5837C23.6542 60.3622 23.6542 58.3832 24.8749 57.1625L38.2919 43.7462L24.8749 30.3337C23.6542 29.1122 23.6542 27.1332 24.8749 25.9125C26.0956 24.6918 28.0746 24.6918 29.2961 25.9125L44.9211 41.5375C46.1418 42.7582 46.1418 44.7372 44.9211 45.9587L29.2961 61.5837C28.6835 62.1956 27.8831 62.5 27.0836 62.5Z" fill="#004E9A"/>
<path d="M66.6664 100C62.0705 100 58.3336 96.2623 58.3336 91.6664V16.6664C58.3336 13.1042 60.6003 9.92508 63.9748 8.75397L89.0083 0.408176C94.6083 -1.30844 100 2.84577 100 8.33359V83.3336C100 86.8919 97.7333 90.0665 94.3626 91.2414L69.3207 99.5918C68.4082 99.8749 67.5629 100 66.6664 100ZM91.6664 6.25C91.3956 6.25 91.1667 6.28357 90.921 6.35834L65.992 14.6706C65.1749 14.9544 64.5836 15.7791 64.5836 16.6664V91.6664C64.5836 93.0878 66.1247 94.046 67.4126 93.6416L92.3416 85.3294C93.1541 85.0456 93.75 84.2209 93.75 83.3336V8.33359C93.75 7.18766 92.8169 6.25 91.6664 6.25Z" fill="#004E9A"/>
<path d="M36.4586 20.8336C34.7336 20.8336 33.3336 19.4336 33.3336 17.7086V11.4586C33.3336 5.13763 38.4705 0 44.7914 0H91.6664C93.3914 0 94.7914 1.39999 94.7914 3.125C94.7914 4.85001 93.3914 6.25 91.6664 6.25H44.7914C41.9205 6.25 39.5836 8.58765 39.5836 11.4586V17.7086C39.5836 19.4336 38.1836 20.8336 36.4586 20.8336Z" fill="#004E9A"/>
<path d="M61.4586 87.5H44.7914C38.4705 87.5 33.3336 82.3624 33.3336 76.0414V69.7914C33.3336 68.0664 34.7336 66.6664 36.4586 66.6664C38.1836 66.6664 39.5836 68.0664 39.5836 69.7914V76.0414C39.5836 78.9124 41.9205 81.25 44.7914 81.25H61.4586C63.1836 81.25 64.5836 82.65 64.5836 84.375C64.5836 86.1 63.1836 87.5 61.4586 87.5Z" fill="#004E9A"/>
</svg>
